<svg width="282" height="28" viewBox="0 0 282 28" fill="none" xmlns="http://www.w3.org/2000/svg">
            <path d="M1.854 20.5V7.9H6.84C7.5 7.9 8.094 8.062 8.622 8.386C9.15 8.71 9.57 9.16 9.882 9.736C10.194 10.3 10.35 10.936 10.35 11.644C10.35 12.388 10.194 13.054 9.882 13.642C9.57 14.218 9.15 14.68 8.622 15.028C8.094 15.364 7.5 15.532 6.84 15.532H3.258V20.5H1.854ZM3.258 14.164H6.912C7.284 14.164 7.614 14.056 7.902 13.84C8.202 13.612 8.442 13.312 8.622 12.94C8.802 12.556 8.892 12.118 8.892 11.626C8.892 11.182 8.802 10.786 8.622 10.438C8.442 10.078 8.202 9.796 7.902 9.592C7.614 9.376 7.284 9.268 6.912 9.268H3.258V14.164ZM12.5113 20.5V11.104H13.8613L13.8973 13.606L13.7533 13.264C13.8853 12.844 14.0953 12.454 14.3833 12.094C14.6833 11.734 15.0373 11.446 15.4453 11.23C15.8533 11.014 16.3033 10.906 16.7953 10.906C16.9993 10.906 17.1913 10.924 17.3713 10.96C17.5513 10.984 17.7013 11.02 17.8213 11.068L17.4433 12.58C17.2873 12.508 17.1253 12.46 16.9573 12.436C16.8013 12.4 16.6513 12.382 16.5073 12.382C16.0993 12.382 15.7333 12.454 15.4093 12.598C15.0853 12.742 14.8093 12.946 14.5813 13.21C14.3533 13.462 14.1793 13.756 14.0593 14.092C13.9393 14.428 13.8793 14.788 13.8793 15.172V20.5H12.5113ZM19.5861 20.5V11.104H20.9361V20.5H19.5861ZM20.2521 9.07C19.9161 9.07 19.6581 8.986 19.4781 8.818C19.3101 8.638 19.2261 8.398 19.2261 8.098C19.2261 7.798 19.3161 7.558 19.4961 7.378C19.6761 7.198 19.9281 7.108 20.2521 7.108C20.5761 7.108 20.8281 7.198 21.0081 7.378C21.1881 7.546 21.2781 7.786 21.2781 8.098C21.2781 8.386 21.1881 8.62 21.0081 8.8C20.8281 8.98 20.5761 9.07 20.2521 9.07ZM26.8003 20.5L22.8403 11.104H24.3343L27.4663 18.79L27.1063 18.988L30.5443 11.104H31.9843L27.7723 20.5H26.8003ZM36.9782 20.68C36.1622 20.68 35.4242 20.47 34.7642 20.05C34.1042 19.618 33.5822 19.036 33.1982 18.304C32.8142 17.56 32.6222 16.72 32.6222 15.784C32.6222 14.836 32.8202 13.996 33.2162 13.264C33.6122 12.532 34.1402 11.956 34.8002 11.536C35.4722 11.116 36.2222 10.906 37.0502 10.906C37.5422 10.906 37.9982 10.978 38.4182 11.122C38.8382 11.266 39.2102 11.47 39.5342 11.734C39.8702 11.986 40.1462 12.286 40.3622 12.634C40.5902 12.97 40.7462 13.336 40.8302 13.732L40.4342 13.534L40.4882 11.104H41.8382V20.5H40.4702V18.196L40.8302 17.962C40.7462 18.322 40.5842 18.67 40.3442 19.006C40.1042 19.33 39.8102 19.618 39.4622 19.87C39.1262 20.122 38.7422 20.32 38.3102 20.464C37.8902 20.608 37.4462 20.68 36.9782 20.68ZM37.2842 19.384C37.9082 19.384 38.4662 19.234 38.9582 18.934C39.4502 18.622 39.8342 18.196 40.1102 17.656C40.3982 17.104 40.5422 16.48 40.5422 15.784C40.5422 15.088 40.3982 14.47 40.1102 13.93C39.8342 13.39 39.4502 12.964 38.9582 12.652C38.4662 12.34 37.9082 12.184 37.2842 12.184C36.6482 12.184 36.0842 12.34 35.5922 12.652C35.1122 12.964 34.7282 13.39 34.4402 13.93C34.1642 14.47 34.0262 15.088 34.0262 15.784C34.0262 16.468 34.1642 17.086 34.4402 17.638C34.7162 18.178 35.1002 18.604 35.5922 18.916C36.0842 19.228 36.6482 19.384 37.2842 19.384ZM48.4283 20.68C47.5403 20.68 46.7483 20.47 46.0523 20.05C45.3563 19.618 44.8043 19.036 44.3963 18.304C44.0003 17.56 43.8023 16.72 43.8023 15.784C43.8023 14.848 44.0003 14.014 44.3963 13.282C44.8043 12.538 45.3563 11.956 46.0523 11.536C46.7483 11.116 47.5463 10.906 48.4463 10.906C49.2503 10.906 49.9823 11.068 50.6423 11.392C51.3023 11.704 51.8303 12.142 52.2263 12.706L51.4343 13.678C51.2063 13.378 50.9303 13.114 50.6063 12.886C50.2943 12.658 49.9523 12.484 49.5803 12.364C49.2203 12.232 48.8603 12.166 48.5003 12.166C47.8643 12.166 47.2943 12.328 46.7903 12.652C46.2863 12.964 45.8843 13.39 45.5843 13.93C45.2963 14.47 45.1523 15.088 45.1523 15.784C45.1523 16.48 45.2963 17.104 45.5843 17.656C45.8843 18.196 46.2863 18.622 46.7903 18.934C47.2943 19.246 47.8583 19.402 48.4823 19.402C48.8423 19.402 49.1963 19.348 49.5443 19.24C49.8923 19.12 50.2223 18.952 50.5343 18.736C50.8463 18.52 51.1343 18.25 51.3983 17.926L52.1903 18.898C51.7823 19.438 51.2363 19.87 50.5523 20.194C49.8683 20.518 49.1603 20.68 48.4283 20.68ZM55.2632 24.64L57.0812 20.212L57.2072 21.49L52.4912 11.104H54.0212L57.2432 18.304C57.3392 18.496 57.4352 18.724 57.5312 18.988C57.6272 19.24 57.7172 19.492 57.8012 19.744L57.2972 19.69C57.3812 19.486 57.4592 19.276 57.5312 19.06C57.6152 18.844 57.6932 18.634 57.7652 18.43L60.5912 11.104H62.1392L58.3412 20.5L56.7212 24.64H55.2632ZM69.1431 20.5V7.9H74.1291C74.7891 7.9 75.3831 8.062 75.9111 8.386C76.4391 8.71 76.8591 9.16 77.1711 9.736C77.4831 10.3 77.6391 10.936 77.6391 11.644C77.6391 12.388 77.4831 13.054 77.1711 13.642C76.8591 14.218 76.4391 14.68 75.9111 15.028C75.3831 15.364 74.7891 15.532 74.1291 15.532H70.5471V20.5H69.1431ZM70.5471 14.164H74.2011C74.5731 14.164 74.9031 14.056 75.1911 13.84C75.4911 13.612 75.7311 13.312 75.9111 12.94C76.0911 12.556 76.1811 12.118 76.1811 11.626C76.1811 11.182 76.0911 10.786 75.9111 10.438C75.7311 10.078 75.4911 9.796 75.1911 9.592C74.9031 9.376 74.5731 9.268 74.2011 9.268H70.5471V14.164ZM83.7825 20.68C82.8465 20.68 82.0125 20.47 81.2805 20.05C80.5605 19.63 79.9905 19.048 79.5705 18.304C79.1625 17.56 78.9585 16.714 78.9585 15.766C78.9585 14.83 79.1625 13.996 79.5705 13.264C79.9905 12.532 80.5605 11.956 81.2805 11.536C82.0125 11.116 82.8465 10.906 83.7825 10.906C84.7065 10.906 85.5285 11.116 86.2485 11.536C86.9805 11.956 87.5505 12.532 87.9585 13.264C88.3785 13.996 88.5885 14.83 88.5885 15.766C88.5885 16.714 88.3785 17.56 87.9585 18.304C87.5505 19.048 86.9805 19.63 86.2485 20.05C85.5285 20.47 84.7065 20.68 83.7825 20.68ZM83.7825 19.402C84.4425 19.402 85.0305 19.246 85.5465 18.934C86.0625 18.61 86.4645 18.178 86.7525 17.638C87.0405 17.086 87.1845 16.462 87.1845 15.766C87.1845 15.07 87.0405 14.452 86.7525 13.912C86.4645 13.372 86.0625 12.952 85.5465 12.652C85.0305 12.34 84.4425 12.184 83.7825 12.184C83.1225 12.184 82.5285 12.34 82.0005 12.652C81.4845 12.952 81.0765 13.378 80.7765 13.93C80.4885 14.47 80.3505 15.082 80.3625 15.766C80.3505 16.462 80.4885 17.086 80.7765 17.638C81.0765 18.178 81.4845 18.61 82.0005 18.934C82.5285 19.246 83.1225 19.402 83.7825 19.402ZM90.5941 20.5V7.18H91.9441V20.5H90.5941ZM94.9611 20.5V11.104H96.3111V20.5H94.9611ZM95.6271 9.07C95.2911 9.07 95.0331 8.986 94.8531 8.818C94.6851 8.638 94.6011 8.398 94.6011 8.098C94.6011 7.798 94.6911 7.558 94.8711 7.378C95.0511 7.198 95.3031 7.108 95.6271 7.108C95.9511 7.108 96.2031 7.198 96.3831 7.378C96.5631 7.546 96.6531 7.786 96.6531 8.098C96.6531 8.386 96.5631 8.62 96.3831 8.8C96.2031 8.98 95.9511 9.07 95.6271 9.07ZM103.219 20.68C102.331 20.68 101.539 20.47 100.843 20.05C100.147 19.618 99.5953 19.036 99.1873 18.304C98.7913 17.56 98.5933 16.72 98.5933 15.784C98.5933 14.848 98.7913 14.014 99.1873 13.282C99.5953 12.538 100.147 11.956 100.843 11.536C101.539 11.116 102.337 10.906 103.237 10.906C104.041 10.906 104.773 11.068 105.433 11.392C106.093 11.704 106.621 12.142 107.017 12.706L106.225 13.678C105.997 13.378 105.721 13.114 105.397 12.886C105.085 12.658 104.743 12.484 104.371 12.364C104.011 12.232 103.651 12.166 103.291 12.166C102.655 12.166 102.085 12.328 101.581 12.652C101.077 12.964 100.675 13.39 100.375 13.93C100.087 14.47 99.9433 15.088 99.9433 15.784C99.9433 16.48 100.087 17.104 100.375 17.656C100.675 18.196 101.077 18.622 101.581 18.934C102.085 19.246 102.649 19.402 103.273 19.402C103.633 19.402 103.987 19.348 104.335 19.24C104.683 19.12 105.013 18.952 105.325 18.736C105.637 18.52 105.925 18.25 106.189 17.926L106.981 18.898C106.573 19.438 106.027 19.87 105.343 20.194C104.659 20.518 103.951 20.68 103.219 20.68ZM110.054 24.64L111.872 20.212L111.998 21.49L107.282 11.104H108.812L112.034 18.304C112.13 18.496 112.226 18.724 112.322 18.988C112.418 19.24 112.508 19.492 112.592 19.744L112.088 19.69C112.172 19.486 112.25 19.276 112.322 19.06C112.406 18.844 112.484 18.634 112.556 18.43L115.382 11.104H116.93L113.132 20.5L111.512 24.64H110.054Z" fill="#B3B3B3"/>
            <line x1="130.5" y1="0.5" x2="130.5" y2="27.5" stroke="#B3B3B3"/>
            <path d="M146.14 20.5V9.268H142.54V7.9H151.288V9.268H147.544V20.5H146.14ZM155.47 20.68C154.534 20.68 153.7 20.476 152.968 20.068C152.248 19.66 151.684 19.09 151.276 18.358C150.868 17.626 150.664 16.786 150.664 15.838C150.664 15.106 150.778 14.446 151.006 13.858C151.234 13.258 151.552 12.736 151.96 12.292C152.38 11.848 152.878 11.506 153.454 11.266C154.03 11.014 154.654 10.888 155.326 10.888C155.962 10.888 156.538 11.002 157.054 11.23C157.582 11.458 158.032 11.776 158.404 12.184C158.788 12.58 159.076 13.054 159.268 13.606C159.46 14.158 159.544 14.764 159.52 15.424L159.502 16.054H151.672L151.474 14.92H158.476L158.152 15.226V14.794C158.128 14.362 158.002 13.948 157.774 13.552C157.546 13.144 157.222 12.814 156.802 12.562C156.394 12.31 155.902 12.184 155.326 12.184C154.654 12.184 154.072 12.322 153.58 12.598C153.088 12.862 152.71 13.258 152.446 13.786C152.182 14.314 152.05 14.968 152.05 15.748C152.05 16.492 152.194 17.14 152.482 17.692C152.77 18.232 153.178 18.652 153.706 18.952C154.246 19.252 154.894 19.402 155.65 19.402C156.094 19.402 156.532 19.33 156.964 19.186C157.408 19.03 157.894 18.73 158.422 18.286L159.124 19.258C158.848 19.534 158.518 19.78 158.134 19.996C157.75 20.2 157.33 20.368 156.874 20.5C156.418 20.62 155.95 20.68 155.47 20.68ZM161.437 20.5V11.104H162.787L162.823 13.606L162.679 13.264C162.811 12.844 163.021 12.454 163.309 12.094C163.609 11.734 163.963 11.446 164.371 11.23C164.779 11.014 165.229 10.906 165.721 10.906C165.925 10.906 166.117 10.924 166.297 10.96C166.477 10.984 166.627 11.02 166.747 11.068L166.369 12.58C166.213 12.508 166.051 12.46 165.883 12.436C165.727 12.4 165.577 12.382 165.433 12.382C165.025 12.382 164.659 12.454 164.335 12.598C164.011 12.742 163.735 12.946 163.507 13.21C163.279 13.462 163.105 13.756 162.985 14.092C162.865 14.428 162.805 14.788 162.805 15.172V20.5H161.437ZM168.134 20.5V11.104H169.484L169.52 13.246L169.25 13.336C169.346 12.976 169.502 12.652 169.718 12.364C169.946 12.064 170.216 11.806 170.528 11.59C170.84 11.374 171.182 11.212 171.554 11.104C171.926 10.984 172.316 10.924 172.724 10.924C173.216 10.924 173.654 11.008 174.038 11.176C174.434 11.332 174.764 11.608 175.028 12.004C175.304 12.388 175.514 12.898 175.658 13.534L175.334 13.372L175.46 13.066C175.58 12.79 175.754 12.526 175.982 12.274C176.222 12.01 176.492 11.776 176.792 11.572C177.104 11.368 177.44 11.212 177.8 11.104C178.172 10.984 178.55 10.924 178.934 10.924C179.594 10.924 180.152 11.068 180.608 11.356C181.064 11.632 181.406 12.058 181.634 12.634C181.874 13.21 181.994 13.942 181.994 14.83V20.5H180.608V14.902C180.608 14.278 180.53 13.768 180.374 13.372C180.218 12.976 179.984 12.682 179.672 12.49C179.372 12.286 178.988 12.184 178.52 12.184C178.112 12.184 177.734 12.256 177.386 12.4C177.05 12.532 176.756 12.724 176.504 12.976C176.264 13.216 176.072 13.492 175.928 13.804C175.796 14.116 175.73 14.452 175.73 14.812V20.5H174.362V14.884C174.362 14.284 174.278 13.786 174.11 13.39C173.954 12.994 173.72 12.694 173.408 12.49C173.096 12.286 172.712 12.184 172.256 12.184C171.86 12.184 171.494 12.256 171.158 12.4C170.822 12.532 170.528 12.718 170.276 12.958C170.036 13.198 169.844 13.474 169.7 13.786C169.568 14.098 169.502 14.434 169.502 14.794V20.5H168.134ZM187.63 20.68C186.826 20.68 186.106 20.53 185.47 20.23C184.834 19.93 184.33 19.534 183.958 19.042L184.912 18.214C185.26 18.634 185.668 18.952 186.136 19.168C186.616 19.384 187.15 19.492 187.738 19.492C188.038 19.492 188.308 19.462 188.548 19.402C188.788 19.33 188.998 19.228 189.178 19.096C189.358 18.964 189.496 18.808 189.592 18.628C189.688 18.448 189.736 18.25 189.736 18.034C189.736 17.638 189.562 17.308 189.214 17.044C189.058 16.936 188.836 16.828 188.548 16.72C188.26 16.6 187.912 16.486 187.504 16.378C186.832 16.186 186.274 15.994 185.83 15.802C185.386 15.598 185.038 15.364 184.786 15.1C184.606 14.884 184.468 14.65 184.372 14.398C184.288 14.146 184.246 13.87 184.246 13.57C184.246 13.186 184.324 12.832 184.48 12.508C184.648 12.184 184.876 11.902 185.164 11.662C185.464 11.41 185.812 11.224 186.208 11.104C186.616 10.972 187.054 10.906 187.522 10.906C187.966 10.906 188.404 10.966 188.836 11.086C189.268 11.206 189.67 11.38 190.042 11.608C190.414 11.836 190.732 12.106 190.996 12.418L190.168 13.318C189.94 13.078 189.688 12.862 189.412 12.67C189.136 12.478 188.842 12.328 188.53 12.22C188.23 12.112 187.918 12.058 187.594 12.058C187.306 12.058 187.036 12.094 186.784 12.166C186.544 12.238 186.334 12.34 186.154 12.472C185.986 12.592 185.854 12.742 185.758 12.922C185.674 13.102 185.632 13.3 185.632 13.516C185.632 13.696 185.668 13.858 185.74 14.002C185.812 14.146 185.914 14.272 186.046 14.38C186.214 14.512 186.448 14.638 186.748 14.758C187.06 14.866 187.444 14.98 187.9 15.1C188.428 15.244 188.872 15.394 189.232 15.55C189.604 15.694 189.91 15.868 190.15 16.072C190.474 16.312 190.702 16.588 190.834 16.9C190.978 17.212 191.05 17.566 191.05 17.962C191.05 18.49 190.9 18.958 190.6 19.366C190.312 19.774 189.91 20.098 189.394 20.338C188.878 20.566 188.29 20.68 187.63 20.68ZM202.368 20.68C201.432 20.68 200.598 20.47 199.866 20.05C199.146 19.63 198.576 19.048 198.156 18.304C197.748 17.56 197.544 16.714 197.544 15.766C197.544 14.83 197.748 13.996 198.156 13.264C198.576 12.532 199.146 11.956 199.866 11.536C200.598 11.116 201.432 10.906 202.368 10.906C203.292 10.906 204.114 11.116 204.834 11.536C205.566 11.956 206.136 12.532 206.544 13.264C206.964 13.996 207.174 14.83 207.174 15.766C207.174 16.714 206.964 17.56 206.544 18.304C206.136 19.048 205.566 19.63 204.834 20.05C204.114 20.47 203.292 20.68 202.368 20.68ZM202.368 19.402C203.028 19.402 203.616 19.246 204.132 18.934C204.648 18.61 205.05 18.178 205.338 17.638C205.626 17.086 205.77 16.462 205.77 15.766C205.77 15.07 205.626 14.452 205.338 13.912C205.05 13.372 204.648 12.952 204.132 12.652C203.616 12.34 203.028 12.184 202.368 12.184C201.708 12.184 201.114 12.34 200.586 12.652C200.07 12.952 199.662 13.378 199.362 13.93C199.074 14.47 198.936 15.082 198.948 15.766C198.936 16.462 199.074 17.086 199.362 17.638C199.662 18.178 200.07 18.61 200.586 18.934C201.114 19.246 201.708 19.402 202.368 19.402ZM209.873 20.5V9.646C209.873 9.178 209.975 8.764 210.179 8.404C210.383 8.044 210.671 7.762 211.043 7.558C211.427 7.342 211.871 7.234 212.375 7.234C212.759 7.234 213.101 7.306 213.401 7.45C213.713 7.582 213.971 7.768 214.175 8.008L213.707 9.07C213.515 8.866 213.305 8.722 213.077 8.638C212.861 8.542 212.651 8.494 212.447 8.494C212.183 8.494 211.961 8.542 211.781 8.638C211.601 8.722 211.463 8.854 211.367 9.034C211.283 9.202 211.241 9.406 211.241 9.646V20.5H210.611C210.479 20.5 210.353 20.5 210.233 20.5C210.113 20.5 209.993 20.5 209.873 20.5ZM208.199 12.436V11.176H213.635V12.436H208.199ZM224.852 20.68C224.216 20.68 223.616 20.59 223.052 20.41C222.488 20.23 221.972 19.96 221.504 19.6C221.036 19.24 220.622 18.796 220.262 18.268L221.234 17.188C221.798 17.992 222.374 18.556 222.962 18.88C223.562 19.204 224.234 19.366 224.978 19.366C225.518 19.366 226.01 19.276 226.454 19.096C226.898 18.916 227.246 18.664 227.498 18.34C227.75 18.016 227.876 17.644 227.876 17.224C227.876 16.948 227.828 16.702 227.732 16.486C227.648 16.27 227.516 16.078 227.336 15.91C227.156 15.742 226.934 15.592 226.67 15.46C226.406 15.328 226.1 15.208 225.752 15.1C225.416 14.992 225.038 14.884 224.618 14.776C224.006 14.632 223.466 14.464 222.998 14.272C222.542 14.068 222.152 13.822 221.828 13.534C221.516 13.246 221.276 12.916 221.108 12.544C220.952 12.16 220.874 11.71 220.874 11.194C220.874 10.702 220.976 10.246 221.18 9.826C221.396 9.406 221.69 9.046 222.062 8.746C222.434 8.434 222.872 8.194 223.376 8.026C223.88 7.858 224.42 7.774 224.996 7.774C225.644 7.774 226.22 7.864 226.724 8.044C227.24 8.212 227.696 8.464 228.092 8.8C228.488 9.136 228.83 9.538 229.118 10.006L228.128 10.978C227.876 10.582 227.588 10.24 227.264 9.952C226.952 9.664 226.604 9.448 226.22 9.304C225.848 9.148 225.434 9.07 224.978 9.07C224.45 9.07 223.982 9.16 223.574 9.34C223.178 9.52 222.866 9.772 222.638 10.096C222.41 10.408 222.296 10.768 222.296 11.176C222.296 11.476 222.35 11.746 222.458 11.986C222.566 12.214 222.734 12.418 222.962 12.598C223.202 12.766 223.508 12.922 223.88 13.066C224.264 13.198 224.72 13.324 225.248 13.444C225.872 13.588 226.43 13.762 226.922 13.966C227.426 14.17 227.852 14.416 228.2 14.704C228.56 14.98 228.83 15.304 229.01 15.676C229.202 16.048 229.298 16.474 229.298 16.954C229.298 17.698 229.112 18.352 228.74 18.916C228.368 19.468 227.846 19.9 227.174 20.212C226.514 20.524 225.74 20.68 224.852 20.68ZM235.731 20.68C234.795 20.68 233.961 20.476 233.229 20.068C232.509 19.66 231.945 19.09 231.537 18.358C231.129 17.626 230.925 16.786 230.925 15.838C230.925 15.106 231.039 14.446 231.267 13.858C231.495 13.258 231.813 12.736 232.221 12.292C232.641 11.848 233.139 11.506 233.715 11.266C234.291 11.014 234.915 10.888 235.587 10.888C236.223 10.888 236.799 11.002 237.315 11.23C237.843 11.458 238.293 11.776 238.665 12.184C239.049 12.58 239.337 13.054 239.529 13.606C239.721 14.158 239.805 14.764 239.781 15.424L239.763 16.054H231.933L231.735 14.92H238.737L238.413 15.226V14.794C238.389 14.362 238.263 13.948 238.035 13.552C237.807 13.144 237.483 12.814 237.063 12.562C236.655 12.31 236.163 12.184 235.587 12.184C234.915 12.184 234.333 12.322 233.841 12.598C233.349 12.862 232.971 13.258 232.707 13.786C232.443 14.314 232.311 14.968 232.311 15.748C232.311 16.492 232.455 17.14 232.743 17.692C233.031 18.232 233.439 18.652 233.967 18.952C234.507 19.252 235.155 19.402 235.911 19.402C236.355 19.402 236.793 19.33 237.225 19.186C237.669 19.03 238.155 18.73 238.683 18.286L239.385 19.258C239.109 19.534 238.779 19.78 238.395 19.996C238.011 20.2 237.591 20.368 237.135 20.5C236.679 20.62 236.211 20.68 235.731 20.68ZM241.699 20.5V11.104H243.049L243.085 13.606L242.941 13.264C243.073 12.844 243.283 12.454 243.571 12.094C243.871 11.734 244.225 11.446 244.633 11.23C245.041 11.014 245.491 10.906 245.983 10.906C246.187 10.906 246.379 10.924 246.559 10.96C246.739 10.984 246.889 11.02 247.009 11.068L246.631 12.58C246.475 12.508 246.313 12.46 246.145 12.436C245.989 12.4 245.839 12.382 245.695 12.382C245.287 12.382 244.921 12.454 244.597 12.598C244.273 12.742 243.997 12.946 243.769 13.21C243.541 13.462 243.367 13.756 243.247 14.092C243.127 14.428 243.067 14.788 243.067 15.172V20.5H241.699ZM252.226 20.5L248.266 11.104H249.76L252.892 18.79L252.532 18.988L255.97 11.104H257.41L253.198 20.5H252.226ZM259.356 20.5V11.104H260.706V20.5H259.356ZM260.022 9.07C259.686 9.07 259.428 8.986 259.248 8.818C259.08 8.638 258.996 8.398 258.996 8.098C258.996 7.798 259.086 7.558 259.266 7.378C259.446 7.198 259.698 7.108 260.022 7.108C260.346 7.108 260.598 7.198 260.778 7.378C260.958 7.546 261.048 7.786 261.048 8.098C261.048 8.386 260.958 8.62 260.778 8.8C260.598 8.98 260.346 9.07 260.022 9.07ZM267.614 20.68C266.726 20.68 265.934 20.47 265.238 20.05C264.542 19.618 263.99 19.036 263.582 18.304C263.186 17.56 262.988 16.72 262.988 15.784C262.988 14.848 263.186 14.014 263.582 13.282C263.99 12.538 264.542 11.956 265.238 11.536C265.934 11.116 266.732 10.906 267.632 10.906C268.436 10.906 269.168 11.068 269.828 11.392C270.488 11.704 271.016 12.142 271.412 12.706L270.62 13.678C270.392 13.378 270.116 13.114 269.792 12.886C269.48 12.658 269.138 12.484 268.766 12.364C268.406 12.232 268.046 12.166 267.686 12.166C267.05 12.166 266.48 12.328 265.976 12.652C265.472 12.964 265.07 13.39 264.77 13.93C264.482 14.47 264.338 15.088 264.338 15.784C264.338 16.48 264.482 17.104 264.77 17.656C265.07 18.196 265.472 18.622 265.976 18.934C266.48 19.246 267.044 19.402 267.668 19.402C268.028 19.402 268.382 19.348 268.73 19.24C269.078 19.12 269.408 18.952 269.72 18.736C270.032 18.52 270.32 18.25 270.584 17.926L271.376 18.898C270.968 19.438 270.422 19.87 269.738 20.194C269.054 20.518 268.346 20.68 267.614 20.68ZM277.268 20.68C276.332 20.68 275.498 20.476 274.766 20.068C274.046 19.66 273.482 19.09 273.074 18.358C272.666 17.626 272.462 16.786 272.462 15.838C272.462 15.106 272.576 14.446 272.804 13.858C273.032 13.258 273.35 12.736 273.758 12.292C274.178 11.848 274.676 11.506 275.252 11.266C275.828 11.014 276.452 10.888 277.124 10.888C277.76 10.888 278.336 11.002 278.852 11.23C279.38 11.458 279.83 11.776 280.202 12.184C280.586 12.58 280.874 13.054 281.066 13.606C281.258 14.158 281.342 14.764 281.318 15.424L281.3 16.054H273.47L273.272 14.92H280.274L279.95 15.226V14.794C279.926 14.362 279.8 13.948 279.572 13.552C279.344 13.144 279.02 12.814 278.6 12.562C278.192 12.31 277.7 12.184 277.124 12.184C276.452 12.184 275.87 12.322 275.378 12.598C274.886 12.862 274.508 13.258 274.244 13.786C273.98 14.314 273.848 14.968 273.848 15.748C273.848 16.492 273.992 17.14 274.28 17.692C274.568 18.232 274.976 18.652 275.504 18.952C276.044 19.252 276.692 19.402 277.448 19.402C277.892 19.402 278.33 19.33 278.762 19.186C279.206 19.03 279.692 18.73 280.22 18.286L280.922 19.258C280.646 19.534 280.316 19.78 279.932 19.996C279.548 20.2 279.128 20.368 278.672 20.5C278.216 20.62 277.748 20.68 277.268 20.68Z" fill="#B3B3B3"/>
          </svg>