<svg width="748" height="146" viewBox="0 0 748 146" fill="none" xmlns="http://www.w3.org/2000/svg">
<path d="M16.646 65C14.5967 65 12.6827 64.6327 10.904 63.898C9.164 63.1633 7.63667 62.158 6.322 60.882C5.046 59.5673 4.04067 58.04 3.306 56.3C2.57133 54.56 2.204 52.646 2.204 50.558C2.204 49.398 2.33933 48.1607 2.61 46.846C2.91933 45.5313 3.364 44.1393 3.944 42.67C4.56267 41.162 5.278 39.596 6.09 37.972C6.902 36.348 7.84933 34.6467 8.932 32.868L14.326 23.704H21.518L21.75 24.284L14.848 35.652C13.7267 37.508 12.7407 39.2673 11.89 40.93C11.0393 42.554 10.3047 44.12 9.686 45.628C9.106 47.0973 8.62267 48.528 8.236 49.92L6.67 44.642C7.25 43.4047 7.96533 42.2833 8.816 41.278C9.66667 40.2727 10.614 39.422 11.658 38.726C12.702 38.03 13.7847 37.508 14.906 37.16C16.066 36.812 17.2453 36.638 18.444 36.638C20.6867 36.638 22.7553 37.2567 24.65 38.494C26.5447 39.6927 28.0527 41.2973 29.174 43.308C30.334 45.3187 30.914 47.5227 30.914 49.92C30.914 52.82 30.2953 55.4107 29.058 57.692C27.8593 59.9347 26.1773 61.7133 24.012 63.028C21.8467 64.3427 19.3913 65 16.646 65ZM16.704 58.388C18.096 58.388 19.3333 58.0593 20.416 57.402C21.5373 56.7447 22.4073 55.836 23.026 54.676C23.6447 53.4773 23.954 52.1047 23.954 50.558C23.954 49.2433 23.6253 48.0253 22.968 46.904C22.3493 45.744 21.4987 44.816 20.416 44.12C19.3333 43.3853 18.1153 43.018 16.762 43.018C15.2927 43.018 13.978 43.366 12.818 44.062C11.6967 44.7193 10.8073 45.628 10.15 46.788C9.53133 47.9093 9.222 49.166 9.222 50.558C9.222 52.0273 9.53133 53.3613 10.15 54.56C10.8073 55.72 11.6967 56.648 12.818 57.344C13.9393 58.04 15.2347 58.388 16.704 58.388ZM48.2229 65.406C45.4003 65.406 42.8483 64.8067 40.5669 63.608C38.2856 62.3707 36.3909 60.592 34.8829 58.272L39.0589 53.748C40.7603 55.6427 42.2876 56.9573 43.6409 57.692C44.9943 58.388 46.4829 58.736 48.1069 58.736C49.5763 58.736 50.8909 58.4267 52.0509 57.808C53.2109 57.1507 54.1389 56.2807 54.8349 55.198C55.5309 54.0767 55.8789 52.8587 55.8789 51.544C55.8789 50.1133 55.5503 48.8567 54.8929 47.774C54.2356 46.6527 53.3463 45.7633 52.2249 45.106C51.1036 44.4487 49.8276 44.12 48.3969 44.12C47.6236 44.12 46.8889 44.178 46.1929 44.294C45.4969 44.41 44.6849 44.642 43.7569 44.99C42.8676 45.338 41.7269 45.8793 40.3349 46.614L36.7389 41.742L39.1169 24.284H61.5629V30.954H43.3509L45.0329 29.098L43.1189 41.974L40.9729 40.466C41.4756 40.002 42.2103 39.5573 43.1769 39.132C44.1823 38.7067 45.2649 38.3587 46.4249 38.088C47.5849 37.8173 48.7256 37.682 49.8469 37.682C52.3603 37.682 54.6029 38.262 56.5749 39.422C58.5469 40.582 60.1129 42.1867 61.2729 44.236C62.4329 46.2467 63.0129 48.5667 63.0129 51.196C63.0129 53.864 62.3556 56.2807 61.0409 58.446C59.7649 60.5727 58.0056 62.274 55.7629 63.55C53.5203 64.7873 51.0069 65.406 48.2229 65.406ZM74.6782 65L101.532 24.4H108.434L81.2902 65H74.6782ZM77.9842 45.918C76.1668 45.918 74.5428 45.4347 73.1122 44.468C71.7202 43.5013 70.6182 42.1867 69.8062 40.524C69.0328 38.8613 68.6462 36.9667 68.6462 34.84C68.6462 32.6747 69.0328 30.7607 69.8062 29.098C70.6182 27.3967 71.7202 26.0627 73.1122 25.096C74.5428 24.1293 76.1862 23.646 78.0422 23.646C79.8595 23.646 81.4642 24.1293 82.8562 25.096C84.2868 26.0627 85.3888 27.3967 86.1622 29.098C86.9742 30.7607 87.3802 32.6747 87.3802 34.84C87.3802 36.928 86.9742 38.8227 86.1622 40.524C85.3502 42.1867 84.2288 43.5013 82.7982 44.468C81.3675 45.4347 79.7628 45.918 77.9842 45.918ZM78.0422 40.988C78.7768 40.988 79.4148 40.7367 79.9562 40.234C80.4975 39.7313 80.9228 39.0353 81.2322 38.146C81.5415 37.218 81.6962 36.116 81.6962 34.84C81.6962 33.564 81.5415 32.462 81.2322 31.534C80.9228 30.606 80.4975 29.8907 79.9562 29.388C79.4148 28.8853 78.7575 28.634 77.9842 28.634C77.2495 28.634 76.5922 28.9047 76.0122 29.446C75.4708 29.9487 75.0455 30.664 74.7362 31.592C74.4268 32.4813 74.2722 33.564 74.2722 34.84C74.2722 36.116 74.4075 37.218 74.6782 38.146C74.9875 39.0353 75.4322 39.7313 76.0122 40.234C76.5922 40.7367 77.2688 40.988 78.0422 40.988ZM105.534 65.522C103.717 65.522 102.093 65.0387 100.662 64.072C99.2702 63.1053 98.1682 61.7907 97.3562 60.128C96.5442 58.4653 96.1382 56.5707 96.1382 54.444C96.1382 52.2787 96.5248 50.3647 97.2982 48.702C98.1102 47.0007 99.2315 45.6667 100.662 44.7C102.093 43.7333 103.717 43.25 105.534 43.25C107.39 43.25 109.014 43.7333 110.406 44.7C111.798 45.6667 112.881 47.0007 113.654 48.702C114.466 50.3647 114.872 52.2787 114.872 54.444C114.872 56.532 114.466 58.4267 113.654 60.128C112.842 61.7907 111.721 63.1053 110.29 64.072C108.898 65.0387 107.313 65.522 105.534 65.522ZM105.534 60.65C106.269 60.65 106.907 60.3987 107.448 59.896C108.028 59.3547 108.473 58.6393 108.782 57.75C109.092 56.822 109.246 55.72 109.246 54.444C109.246 53.2067 109.092 52.124 108.782 51.196C108.473 50.268 108.028 49.5527 107.448 49.05C106.907 48.5087 106.269 48.238 105.534 48.238C104.761 48.238 104.084 48.4893 103.504 48.992C102.963 49.4947 102.538 50.2293 102.228 51.196C101.919 52.124 101.764 53.2067 101.764 54.444C101.764 55.72 101.919 56.822 102.228 57.75C102.538 58.6393 102.963 59.3547 103.504 59.896C104.084 60.3987 104.761 60.65 105.534 60.65Z" fill="#CAFF33"/>
<path d="M7.074 112.18C6.174 112.18 5.346 112.024 4.59 111.712C3.834 111.388 3.18 110.938 2.628 110.362C2.076 109.774 1.644 109.084 1.332 108.292C1.032 107.5 0.882 106.636 0.882 105.7C0.882 104.776 1.032 103.93 1.332 103.162C1.644 102.382 2.082 101.704 2.646 101.128C3.21 100.54 3.864 100.09 4.608 99.778C5.352 99.466 6.168 99.31 7.056 99.31C7.644 99.31 8.226 99.406 8.802 99.598C9.378 99.778 9.906 100.03 10.386 100.354C10.878 100.678 11.28 101.05 11.592 101.47L10.62 102.478C10.32 102.118 9.972 101.806 9.576 101.542C9.192 101.278 8.784 101.074 8.352 100.93C7.92 100.786 7.488 100.714 7.056 100.714C6.384 100.714 5.754 100.84 5.166 101.092C4.59 101.332 4.092 101.674 3.672 102.118C3.252 102.562 2.922 103.09 2.682 103.702C2.454 104.314 2.34 104.98 2.34 105.7C2.34 106.444 2.454 107.128 2.682 107.752C2.922 108.376 3.258 108.916 3.69 109.372C4.134 109.816 4.65 110.164 5.238 110.416C5.838 110.656 6.504 110.776 7.236 110.776C7.668 110.776 8.1 110.716 8.532 110.596C8.964 110.464 9.36 110.284 9.72 110.056C10.08 109.828 10.386 109.57 10.638 109.282L11.358 110.452C11.082 110.788 10.71 111.088 10.242 111.352C9.786 111.604 9.282 111.808 8.73 111.964C8.178 112.108 7.626 112.18 7.074 112.18ZM17.1501 112.18C16.3341 112.18 15.5961 111.97 14.9361 111.55C14.2761 111.118 13.7541 110.536 13.3701 109.804C12.9861 109.06 12.7941 108.22 12.7941 107.284C12.7941 106.336 12.9921 105.496 13.3881 104.764C13.7841 104.032 14.3121 103.456 14.9721 103.036C15.6441 102.616 16.3941 102.406 17.2221 102.406C17.7141 102.406 18.1701 102.478 18.5901 102.622C19.0101 102.766 19.3821 102.97 19.7061 103.234C20.0421 103.486 20.3181 103.786 20.5341 104.134C20.7621 104.47 20.9181 104.836 21.0021 105.232L20.6061 105.034L20.6601 102.604H22.0101V112H20.6421V109.696L21.0021 109.462C20.9181 109.822 20.7561 110.17 20.5161 110.506C20.2761 110.83 19.9821 111.118 19.6341 111.37C19.2981 111.622 18.9141 111.82 18.4821 111.964C18.0621 112.108 17.6181 112.18 17.1501 112.18ZM17.4561 110.884C18.0801 110.884 18.6381 110.734 19.1301 110.434C19.6221 110.122 20.0061 109.696 20.2821 109.156C20.5701 108.604 20.7141 107.98 20.7141 107.284C20.7141 106.588 20.5701 105.97 20.2821 105.43C20.0061 104.89 19.6221 104.464 19.1301 104.152C18.6381 103.84 18.0801 103.684 17.4561 103.684C16.8201 103.684 16.2561 103.84 15.7641 104.152C15.2841 104.464 14.9001 104.89 14.6121 105.43C14.3361 105.97 14.1981 106.588 14.1981 107.284C14.1981 107.968 14.3361 108.586 14.6121 109.138C14.8881 109.678 15.2721 110.104 15.7641 110.416C16.2561 110.728 16.8201 110.884 17.4561 110.884ZM27.7182 112.18C26.9142 112.18 26.1942 112.03 25.5582 111.73C24.9222 111.43 24.4182 111.034 24.0462 110.542L25.0002 109.714C25.3482 110.134 25.7562 110.452 26.2242 110.668C26.7042 110.884 27.2382 110.992 27.8262 110.992C28.1262 110.992 28.3962 110.962 28.6362 110.902C28.8762 110.83 29.0862 110.728 29.2662 110.596C29.4462 110.464 29.5842 110.308 29.6802 110.128C29.7762 109.948 29.8242 109.75 29.8242 109.534C29.8242 109.138 29.6502 108.808 29.3022 108.544C29.1462 108.436 28.9242 108.328 28.6362 108.22C28.3482 108.1 28.0002 107.986 27.5922 107.878C26.9202 107.686 26.3622 107.494 25.9182 107.302C25.4742 107.098 25.1262 106.864 24.8742 106.6C24.6942 106.384 24.5562 106.15 24.4602 105.898C24.3762 105.646 24.3342 105.37 24.3342 105.07C24.3342 104.686 24.4122 104.332 24.5682 104.008C24.7362 103.684 24.9642 103.402 25.2522 103.162C25.5522 102.91 25.9002 102.724 26.2962 102.604C26.7042 102.472 27.1422 102.406 27.6102 102.406C28.0542 102.406 28.4922 102.466 28.9242 102.586C29.3562 102.706 29.7582 102.88 30.1302 103.108C30.5022 103.336 30.8202 103.606 31.0842 103.918L30.2562 104.818C30.0282 104.578 29.7762 104.362 29.5002 104.17C29.2242 103.978 28.9302 103.828 28.6182 103.72C28.3182 103.612 28.0062 103.558 27.6822 103.558C27.3942 103.558 27.1242 103.594 26.8722 103.666C26.6322 103.738 26.4222 103.84 26.2422 103.972C26.0742 104.092 25.9422 104.242 25.8462 104.422C25.7622 104.602 25.7202 104.8 25.7202 105.016C25.7202 105.196 25.7562 105.358 25.8282 105.502C25.9002 105.646 26.0022 105.772 26.1342 105.88C26.3022 106.012 26.5362 106.138 26.8362 106.258C27.1482 106.366 27.5322 106.48 27.9882 106.6C28.5162 106.744 28.9602 106.894 29.3202 107.05C29.6922 107.194 29.9982 107.368 30.2382 107.572C30.5622 107.812 30.7902 108.088 30.9222 108.4C31.0662 108.712 31.1382 109.066 31.1382 109.462C31.1382 109.99 30.9882 110.458 30.6882 110.866C30.4002 111.274 29.9982 111.598 29.4822 111.838C28.9662 112.066 28.3782 112.18 27.7182 112.18ZM33.2535 112V98.68H34.6035V104.656L34.3335 104.926C34.4655 104.434 34.7115 104.002 35.0715 103.63C35.4315 103.246 35.8515 102.946 36.3315 102.73C36.8235 102.514 37.3215 102.406 37.8255 102.406C38.5455 102.406 39.1455 102.544 39.6255 102.82C40.1055 103.096 40.4595 103.522 40.6875 104.098C40.9275 104.674 41.0475 105.406 41.0475 106.294V112H39.6795V106.366C39.6795 105.742 39.5955 105.232 39.4275 104.836C39.2715 104.428 39.0255 104.128 38.6895 103.936C38.3535 103.744 37.9335 103.654 37.4295 103.666C37.0335 103.666 36.6615 103.738 36.3135 103.882C35.9655 104.014 35.6655 104.2 35.4135 104.44C35.1615 104.68 34.9635 104.956 34.8195 105.268C34.6755 105.58 34.6035 105.916 34.6035 106.276V112H33.9375C33.8535 112 33.7575 112 33.6495 112C33.5415 112 33.4095 112 33.2535 112ZM49.2095 112V99.4H50.6135V112H49.2095ZM49.9115 106.384V104.998H56.2835V106.384H49.9115ZM49.9115 100.768V99.4H57.1295V100.768H49.9115ZM59.3754 112V98.68H60.7254V112H59.3754ZM67.3646 112.18C66.4286 112.18 65.5946 111.97 64.8626 111.55C64.1426 111.13 63.5726 110.548 63.1526 109.804C62.7446 109.06 62.5406 108.214 62.5406 107.266C62.5406 106.33 62.7446 105.496 63.1526 104.764C63.5726 104.032 64.1426 103.456 64.8626 103.036C65.5946 102.616 66.4286 102.406 67.3646 102.406C68.2886 102.406 69.1106 102.616 69.8306 103.036C70.5626 103.456 71.1326 104.032 71.5406 104.764C71.9606 105.496 72.1706 106.33 72.1706 107.266C72.1706 108.214 71.9606 109.06 71.5406 109.804C71.1326 110.548 70.5626 111.13 69.8306 111.55C69.1106 111.97 68.2886 112.18 67.3646 112.18ZM67.3646 110.902C68.0246 110.902 68.6126 110.746 69.1286 110.434C69.6446 110.11 70.0466 109.678 70.3346 109.138C70.6226 108.586 70.7666 107.962 70.7666 107.266C70.7666 106.57 70.6226 105.952 70.3346 105.412C70.0466 104.872 69.6446 104.452 69.1286 104.152C68.6126 103.84 68.0246 103.684 67.3646 103.684C66.7046 103.684 66.1106 103.84 65.5826 104.152C65.0666 104.452 64.6586 104.878 64.3586 105.43C64.0706 105.97 63.9326 106.582 63.9446 107.266C63.9326 107.962 64.0706 108.586 64.3586 109.138C64.6586 109.678 65.0666 110.11 65.5826 110.434C66.1106 110.746 66.7046 110.902 67.3646 110.902ZM76.0026 112L72.7446 102.604L74.1846 102.586L76.7226 110.236L76.2726 110.2L79.0266 104.044H79.8366L82.6086 110.2L82.0686 110.236L84.6606 102.604H86.0826L82.8246 112H82.0326L79.1166 105.304L79.6566 105.34L76.8306 112H76.0026ZM1.854 139V126.4H3.222L8.064 134.266L7.416 134.248L12.312 126.4H13.59V139H12.186V133.24C12.186 132.16 12.204 131.188 12.24 130.324C12.276 129.46 12.342 128.602 12.438 127.75L12.69 128.254L8.172 135.346H7.2L2.808 128.344L3.006 127.75C3.102 128.554 3.168 129.382 3.204 130.234C3.24 131.074 3.258 132.076 3.258 133.24V139H1.854ZM20.4372 139.18C19.6212 139.18 18.8832 138.97 18.2232 138.55C17.5632 138.118 17.0412 137.536 16.6572 136.804C16.2732 136.06 16.0812 135.22 16.0812 134.284C16.0812 133.336 16.2792 132.496 16.6752 131.764C17.0712 131.032 17.5992 130.456 18.2592 130.036C18.9312 129.616 19.6812 129.406 20.5092 129.406C21.0012 129.406 21.4572 129.478 21.8772 129.622C22.2972 129.766 22.6692 129.97 22.9932 130.234C23.3292 130.486 23.6052 130.786 23.8212 131.134C24.0492 131.47 24.2052 131.836 24.2892 132.232L23.8932 132.034L23.9472 129.604H25.2972V139H23.9292V136.696L24.2892 136.462C24.2052 136.822 24.0432 137.17 23.8032 137.506C23.5632 137.83 23.2692 138.118 22.9212 138.37C22.5852 138.622 22.2012 138.82 21.7692 138.964C21.3492 139.108 20.9052 139.18 20.4372 139.18ZM20.7432 137.884C21.3672 137.884 21.9252 137.734 22.4172 137.434C22.9092 137.122 23.2932 136.696 23.5692 136.156C23.8572 135.604 24.0012 134.98 24.0012 134.284C24.0012 133.588 23.8572 132.97 23.5692 132.43C23.2932 131.89 22.9092 131.464 22.4172 131.152C21.9252 130.84 21.3672 130.684 20.7432 130.684C20.1072 130.684 19.5432 130.84 19.0512 131.152C18.5712 131.464 18.1872 131.89 17.8992 132.43C17.6232 132.97 17.4852 133.588 17.4852 134.284C17.4852 134.968 17.6232 135.586 17.8992 136.138C18.1752 136.678 18.5592 137.104 19.0512 137.416C19.5432 137.728 20.1072 137.884 20.7432 137.884ZM27.9273 139V129.604H29.2593L29.3133 131.566L29.0973 131.656C29.2173 131.248 29.4513 130.876 29.7993 130.54C30.1473 130.204 30.5613 129.934 31.0413 129.73C31.5333 129.514 32.0373 129.406 32.5533 129.406C33.2493 129.406 33.8313 129.544 34.2993 129.82C34.7673 130.096 35.1213 130.522 35.3613 131.098C35.6013 131.674 35.7213 132.406 35.7213 133.294V139H34.3533V133.366C34.3533 132.742 34.2693 132.232 34.1013 131.836C33.9453 131.428 33.6993 131.128 33.3633 130.936C33.0273 130.744 32.6133 130.654 32.1213 130.666C31.7133 130.666 31.3353 130.738 30.9873 130.882C30.6393 131.014 30.3393 131.2 30.0873 131.44C29.8353 131.68 29.6373 131.956 29.4933 132.268C29.3493 132.58 29.2773 132.916 29.2773 133.276V139H28.6113C28.5273 139 28.4313 139 28.3233 139C28.2153 139 28.0833 139 27.9273 139ZM41.9704 139.18C41.1544 139.18 40.4164 138.97 39.7564 138.55C39.0964 138.118 38.5744 137.536 38.1904 136.804C37.8064 136.06 37.6144 135.22 37.6144 134.284C37.6144 133.336 37.8124 132.496 38.2084 131.764C38.6044 131.032 39.1324 130.456 39.7924 130.036C40.4644 129.616 41.2144 129.406 42.0424 129.406C42.5344 129.406 42.9904 129.478 43.4104 129.622C43.8304 129.766 44.2024 129.97 44.5264 130.234C44.8624 130.486 45.1384 130.786 45.3544 131.134C45.5824 131.47 45.7384 131.836 45.8224 132.232L45.4264 132.034L45.4804 129.604H46.8304V139H45.4624V136.696L45.8224 136.462C45.7384 136.822 45.5764 137.17 45.3364 137.506C45.0964 137.83 44.8024 138.118 44.4544 138.37C44.1184 138.622 43.7344 138.82 43.3024 138.964C42.8824 139.108 42.4384 139.18 41.9704 139.18ZM42.2764 137.884C42.9004 137.884 43.4584 137.734 43.9504 137.434C44.4424 137.122 44.8264 136.696 45.1024 136.156C45.3904 135.604 45.5344 134.98 45.5344 134.284C45.5344 133.588 45.3904 132.97 45.1024 132.43C44.8264 131.89 44.4424 131.464 43.9504 131.152C43.4584 130.84 42.9004 130.684 42.2764 130.684C41.6404 130.684 41.0764 130.84 40.5844 131.152C40.1044 131.464 39.7204 131.89 39.4324 132.43C39.1564 132.97 39.0184 133.588 39.0184 134.284C39.0184 134.968 39.1564 135.586 39.4324 136.138C39.7084 136.678 40.0924 137.104 40.5844 137.416C41.0764 137.728 41.6404 137.884 42.2764 137.884ZM53.5105 143.14C52.8145 143.14 52.1545 143.032 51.5305 142.816C50.9065 142.6 50.3905 142.33 49.9825 142.006L50.5225 140.872C50.7625 141.064 51.0385 141.232 51.3505 141.376C51.6745 141.532 52.0225 141.652 52.3945 141.736C52.7665 141.832 53.1445 141.88 53.5285 141.88C54.2245 141.88 54.8125 141.748 55.2925 141.484C55.7845 141.232 56.1565 140.854 56.4085 140.35C56.6725 139.846 56.8045 139.222 56.8045 138.478V136.678L57.0205 136.624C56.9125 137.08 56.6785 137.506 56.3185 137.902C55.9585 138.286 55.5205 138.598 55.0045 138.838C54.4885 139.066 53.9425 139.18 53.3665 139.18C52.4905 139.18 51.7045 138.97 51.0085 138.55C50.3245 138.13 49.7845 137.554 49.3885 136.822C48.9925 136.078 48.7945 135.238 48.7945 134.302C48.7945 133.354 48.9925 132.514 49.3885 131.782C49.7965 131.038 50.3425 130.456 51.0265 130.036C51.7105 129.616 52.4785 129.406 53.3305 129.406C53.7025 129.406 54.0625 129.454 54.4105 129.55C54.7585 129.634 55.0765 129.76 55.3645 129.928C55.6645 130.096 55.9345 130.288 56.1745 130.504C56.4145 130.72 56.6125 130.954 56.7685 131.206C56.9365 131.458 57.0565 131.716 57.1285 131.98L56.7505 131.926L56.8045 129.604H58.1545V138.424C58.1545 139.18 58.0465 139.846 57.8305 140.422C57.6145 141.01 57.2965 141.502 56.8765 141.898C56.4685 142.306 55.9765 142.612 55.4005 142.816C54.8365 143.032 54.2065 143.14 53.5105 143.14ZM53.5285 137.884C54.1645 137.884 54.7285 137.734 55.2205 137.434C55.7245 137.122 56.1205 136.696 56.4085 136.156C56.6965 135.616 56.8405 134.992 56.8405 134.284C56.8405 133.588 56.6965 132.97 56.4085 132.43C56.1325 131.89 55.7425 131.464 55.2385 131.152C54.7345 130.84 54.1645 130.684 53.5285 130.684C52.8805 130.684 52.3045 130.84 51.8005 131.152C51.3085 131.464 50.9185 131.89 50.6305 132.43C50.3425 132.97 50.1985 133.588 50.1985 134.284C50.1985 134.968 50.3365 135.586 50.6125 136.138C50.9005 136.678 51.2905 137.104 51.7825 137.416C52.2865 137.728 52.8685 137.884 53.5285 137.884ZM64.9208 139.18C63.9848 139.18 63.1508 138.976 62.4188 138.568C61.6988 138.16 61.1348 137.59 60.7268 136.858C60.3188 136.126 60.1148 135.286 60.1148 134.338C60.1148 133.606 60.2288 132.946 60.4568 132.358C60.6848 131.758 61.0028 131.236 61.4108 130.792C61.8308 130.348 62.3288 130.006 62.9048 129.766C63.4808 129.514 64.1048 129.388 64.7768 129.388C65.4128 129.388 65.9888 129.502 66.5048 129.73C67.0328 129.958 67.4828 130.276 67.8548 130.684C68.2388 131.08 68.5268 131.554 68.7188 132.106C68.9108 132.658 68.9948 133.264 68.9708 133.924L68.9528 134.554H61.1228L60.9248 133.42H67.9268L67.6028 133.726V133.294C67.5788 132.862 67.4528 132.448 67.2248 132.052C66.9968 131.644 66.6728 131.314 66.2528 131.062C65.8448 130.81 65.3528 130.684 64.7768 130.684C64.1048 130.684 63.5228 130.822 63.0308 131.098C62.5388 131.362 62.1608 131.758 61.8968 132.286C61.6328 132.814 61.5008 133.468 61.5008 134.248C61.5008 134.992 61.6448 135.64 61.9328 136.192C62.2208 136.732 62.6288 137.152 63.1568 137.452C63.6968 137.752 64.3448 137.902 65.1008 137.902C65.5448 137.902 65.9828 137.83 66.4148 137.686C66.8588 137.53 67.3448 137.23 67.8728 136.786L68.5748 137.758C68.2988 138.034 67.9688 138.28 67.5848 138.496C67.2008 138.7 66.7808 138.868 66.3248 139C65.8688 139.12 65.4008 139.18 64.9208 139.18ZM70.8702 139V129.604H72.2202L72.2562 131.746L71.9862 131.836C72.0822 131.476 72.2382 131.152 72.4542 130.864C72.6822 130.564 72.9522 130.306 73.2642 130.09C73.5762 129.874 73.9182 129.712 74.2902 129.604C74.6622 129.484 75.0522 129.424 75.4602 129.424C75.9522 129.424 76.3902 129.508 76.7742 129.676C77.1702 129.832 77.5002 130.108 77.7642 130.504C78.0402 130.888 78.2502 131.398 78.3942 132.034L78.0702 131.872L78.1962 131.566C78.3162 131.29 78.4902 131.026 78.7182 130.774C78.9582 130.51 79.2282 130.276 79.5282 130.072C79.8402 129.868 80.1762 129.712 80.5362 129.604C80.9082 129.484 81.2862 129.424 81.6702 129.424C82.3302 129.424 82.8882 129.568 83.3442 129.856C83.8002 130.132 84.1422 130.558 84.3702 131.134C84.6102 131.71 84.7302 132.442 84.7302 133.33V139H83.3442V133.402C83.3442 132.778 83.2662 132.268 83.1102 131.872C82.9542 131.476 82.7202 131.182 82.4082 130.99C82.1082 130.786 81.7242 130.684 81.2562 130.684C80.8482 130.684 80.4702 130.756 80.1222 130.9C79.7862 131.032 79.4922 131.224 79.2402 131.476C79.0002 131.716 78.8082 131.992 78.6642 132.304C78.5322 132.616 78.4662 132.952 78.4662 133.312V139H77.0982V133.384C77.0982 132.784 77.0142 132.286 76.8462 131.89C76.6902 131.494 76.4562 131.194 76.1442 130.99C75.8322 130.786 75.4482 130.684 74.9922 130.684C74.5962 130.684 74.2302 130.756 73.8942 130.9C73.5582 131.032 73.2642 131.218 73.0122 131.458C72.7722 131.698 72.5802 131.974 72.4362 132.286C72.3042 132.598 72.2382 132.934 72.2382 133.294V139H70.8702ZM91.4286 139.18C90.4926 139.18 89.6586 138.976 88.9266 138.568C88.2066 138.16 87.6426 137.59 87.2346 136.858C86.8266 136.126 86.6226 135.286 86.6226 134.338C86.6226 133.606 86.7366 132.946 86.9646 132.358C87.1926 131.758 87.5106 131.236 87.9186 130.792C88.3386 130.348 88.8366 130.006 89.4126 129.766C89.9886 129.514 90.6126 129.388 91.2846 129.388C91.9206 129.388 92.4966 129.502 93.0126 129.73C93.5406 129.958 93.9906 130.276 94.3626 130.684C94.7466 131.08 95.0346 131.554 95.2266 132.106C95.4186 132.658 95.5026 133.264 95.4786 133.924L95.4606 134.554H87.6306L87.4326 133.42H94.4346L94.1106 133.726V133.294C94.0866 132.862 93.9606 132.448 93.7326 132.052C93.5046 131.644 93.1806 131.314 92.7606 131.062C92.3526 130.81 91.8606 130.684 91.2846 130.684C90.6126 130.684 90.0306 130.822 89.5386 131.098C89.0466 131.362 88.6686 131.758 88.4046 132.286C88.1406 132.814 88.0086 133.468 88.0086 134.248C88.0086 134.992 88.1526 135.64 88.4406 136.192C88.7286 136.732 89.1366 137.152 89.6646 137.452C90.2046 137.752 90.8526 137.902 91.6086 137.902C92.0526 137.902 92.4906 137.83 92.9226 137.686C93.3666 137.53 93.8526 137.23 94.3806 136.786L95.0826 137.758C94.8066 138.034 94.4766 138.28 94.0926 138.496C93.7086 138.7 93.2886 138.868 92.8326 139C92.3766 139.12 91.9086 139.18 91.4286 139.18ZM97.396 139V129.604H98.728L98.782 131.566L98.566 131.656C98.686 131.248 98.92 130.876 99.268 130.54C99.616 130.204 100.03 129.934 100.51 129.73C101.002 129.514 101.506 129.406 102.022 129.406C102.718 129.406 103.3 129.544 103.768 129.82C104.236 130.096 104.59 130.522 104.83 131.098C105.07 131.674 105.19 132.406 105.19 133.294V139H103.822V133.366C103.822 132.742 103.738 132.232 103.57 131.836C103.414 131.428 103.168 131.128 102.832 130.936C102.496 130.744 102.082 130.654 101.59 130.666C101.182 130.666 100.804 130.738 100.456 130.882C100.108 131.014 99.808 131.2 99.556 131.44C99.304 131.68 99.106 131.956 98.962 132.268C98.818 132.58 98.746 132.916 98.746 133.276V139H98.08C97.996 139 97.9 139 97.792 139C97.684 139 97.552 139 97.396 139ZM109.063 139V127.138H110.413V139H109.063ZM106.939 130.9V129.604H112.789V130.9H106.939Z" fill="#B3B3B3"/>
<line x1="233.167" y1="2.18557e-08" x2="233.167" y2="146" stroke="#262626" stroke-dasharray="10 10"/>
<path d="M288.583 65L305.229 28.228L306.621 31.07H285.857V24.284H311.435L312.305 28.518L296.413 65H288.583ZM332.599 65.58C329.312 65.58 326.489 64.7487 324.131 63.086C321.811 61.3847 320.013 58.9873 318.737 55.894C317.499 52.762 316.881 49.0307 316.881 44.7C316.881 40.3693 317.499 36.6573 318.737 33.564C320.013 30.432 321.811 28.0347 324.131 26.372C326.489 24.6707 329.312 23.82 332.599 23.82C335.885 23.82 338.708 24.6707 341.067 26.372C343.425 28.0347 345.223 30.432 346.461 33.564C347.737 36.6573 348.375 40.3693 348.375 44.7C348.375 49.0307 347.737 52.762 346.461 55.894C345.223 58.9873 343.425 61.3847 341.067 63.086C338.708 64.7487 335.885 65.58 332.599 65.58ZM332.599 58.968C335.305 58.968 337.393 57.7307 338.863 55.256C340.371 52.7427 341.125 49.224 341.125 44.7C341.125 40.1373 340.371 36.5993 338.863 34.086C337.393 31.5727 335.305 30.316 332.599 30.316C329.892 30.316 327.785 31.5727 326.277 34.086C324.807 36.5993 324.073 40.1373 324.073 44.7C324.073 49.224 324.807 52.7427 326.277 55.256C327.785 57.7307 329.892 58.968 332.599 58.968ZM359.27 65L386.124 24.4H393.026L365.882 65H359.27ZM362.576 45.918C360.759 45.918 359.135 45.4347 357.704 44.468C356.312 43.5013 355.21 42.1867 354.398 40.524C353.625 38.8613 353.238 36.9667 353.238 34.84C353.238 32.6747 353.625 30.7607 354.398 29.098C355.21 27.3967 356.312 26.0627 357.704 25.096C359.135 24.1293 360.778 23.646 362.634 23.646C364.452 23.646 366.056 24.1293 367.448 25.096C368.879 26.0627 369.981 27.3967 370.754 29.098C371.566 30.7607 371.972 32.6747 371.972 34.84C371.972 36.928 371.566 38.8227 370.754 40.524C369.942 42.1867 368.821 43.5013 367.39 44.468C365.96 45.4347 364.355 45.918 362.576 45.918ZM362.634 40.988C363.369 40.988 364.007 40.7367 364.548 40.234C365.09 39.7313 365.515 39.0353 365.824 38.146C366.134 37.218 366.288 36.116 366.288 34.84C366.288 33.564 366.134 32.462 365.824 31.534C365.515 30.606 365.09 29.8907 364.548 29.388C364.007 28.8853 363.35 28.634 362.576 28.634C361.842 28.634 361.184 28.9047 360.604 29.446C360.063 29.9487 359.638 30.664 359.328 31.592C359.019 32.4813 358.864 33.564 358.864 34.84C358.864 36.116 359 37.218 359.27 38.146C359.58 39.0353 360.024 39.7313 360.604 40.234C361.184 40.7367 361.861 40.988 362.634 40.988ZM390.126 65.522C388.309 65.522 386.685 65.0387 385.254 64.072C383.862 63.1053 382.76 61.7907 381.948 60.128C381.136 58.4653 380.73 56.5707 380.73 54.444C380.73 52.2787 381.117 50.3647 381.89 48.702C382.702 47.0007 383.824 45.6667 385.254 44.7C386.685 43.7333 388.309 43.25 390.126 43.25C391.982 43.25 393.606 43.7333 394.998 44.7C396.39 45.6667 397.473 47.0007 398.246 48.702C399.058 50.3647 399.464 52.2787 399.464 54.444C399.464 56.532 399.058 58.4267 398.246 60.128C397.434 61.7907 396.313 63.1053 394.882 64.072C393.49 65.0387 391.905 65.522 390.126 65.522ZM390.126 60.65C390.861 60.65 391.499 60.3987 392.04 59.896C392.62 59.3547 393.065 58.6393 393.374 57.75C393.684 56.822 393.838 55.72 393.838 54.444C393.838 53.2067 393.684 52.124 393.374 51.196C393.065 50.268 392.62 49.5527 392.04 49.05C391.499 48.5087 390.861 48.238 390.126 48.238C389.353 48.238 388.676 48.4893 388.096 48.992C387.555 49.4947 387.13 50.2293 386.82 51.196C386.511 52.124 386.356 53.2067 386.356 54.444C386.356 55.72 386.511 56.822 386.82 57.75C387.13 58.6393 387.555 59.3547 388.096 59.896C388.676 60.3987 389.353 60.65 390.126 60.65Z" fill="#CAFF33"/>
<path d="M284.521 112V99.4H289.273C290.137 99.4 290.923 99.556 291.631 99.868C292.351 100.168 292.975 100.6 293.503 101.164C294.031 101.728 294.439 102.394 294.727 103.162C295.015 103.93 295.159 104.776 295.159 105.7C295.159 106.624 295.015 107.476 294.727 108.256C294.439 109.024 294.031 109.69 293.503 110.254C292.987 110.806 292.369 111.238 291.649 111.55C290.929 111.85 290.137 112 289.273 112H284.521ZM285.925 110.884L285.763 110.632H289.183C289.843 110.632 290.449 110.518 291.001 110.29C291.565 110.05 292.045 109.714 292.441 109.282C292.849 108.838 293.161 108.316 293.377 107.716C293.605 107.116 293.719 106.444 293.719 105.7C293.719 104.956 293.605 104.284 293.377 103.684C293.161 103.084 292.849 102.568 292.441 102.136C292.033 101.692 291.553 101.356 291.001 101.128C290.449 100.888 289.843 100.768 289.183 100.768H285.709L285.925 100.552V110.884ZM297.357 112V102.604H298.707L298.743 105.106L298.599 104.764C298.731 104.344 298.941 103.954 299.229 103.594C299.529 103.234 299.883 102.946 300.291 102.73C300.699 102.514 301.149 102.406 301.641 102.406C301.845 102.406 302.037 102.424 302.217 102.46C302.397 102.484 302.547 102.52 302.667 102.568L302.289 104.08C302.133 104.008 301.971 103.96 301.803 103.936C301.647 103.9 301.497 103.882 301.353 103.882C300.945 103.882 300.579 103.954 300.255 104.098C299.931 104.242 299.655 104.446 299.427 104.71C299.199 104.962 299.025 105.256 298.905 105.592C298.785 105.928 298.725 106.288 298.725 106.672V112H297.357ZM304.432 112V102.604H305.782V112H304.432ZM305.098 100.57C304.762 100.57 304.504 100.486 304.324 100.318C304.156 100.138 304.072 99.898 304.072 99.598C304.072 99.298 304.162 99.058 304.342 98.878C304.522 98.698 304.774 98.608 305.098 98.608C305.422 98.608 305.674 98.698 305.854 98.878C306.034 99.046 306.124 99.286 306.124 99.598C306.124 99.886 306.034 100.12 305.854 100.3C305.674 100.48 305.422 100.57 305.098 100.57ZM311.647 112L307.687 102.604H309.181L312.313 110.29L311.953 110.488L315.391 102.604H316.831L312.619 112H311.647ZM322.292 112.18C321.356 112.18 320.522 111.976 319.79 111.568C319.07 111.16 318.506 110.59 318.098 109.858C317.69 109.126 317.486 108.286 317.486 107.338C317.486 106.606 317.6 105.946 317.828 105.358C318.056 104.758 318.374 104.236 318.782 103.792C319.202 103.348 319.7 103.006 320.276 102.766C320.852 102.514 321.476 102.388 322.148 102.388C322.784 102.388 323.36 102.502 323.876 102.73C324.404 102.958 324.854 103.276 325.226 103.684C325.61 104.08 325.898 104.554 326.09 105.106C326.282 105.658 326.366 106.264 326.342 106.924L326.324 107.554H318.494L318.296 106.42H325.298L324.974 106.726V106.294C324.95 105.862 324.824 105.448 324.596 105.052C324.368 104.644 324.044 104.314 323.624 104.062C323.216 103.81 322.724 103.684 322.148 103.684C321.476 103.684 320.894 103.822 320.402 104.098C319.91 104.362 319.532 104.758 319.268 105.286C319.004 105.814 318.872 106.468 318.872 107.248C318.872 107.992 319.016 108.64 319.304 109.192C319.592 109.732 320 110.152 320.528 110.452C321.068 110.752 321.716 110.902 322.472 110.902C322.916 110.902 323.354 110.83 323.786 110.686C324.23 110.53 324.716 110.23 325.244 109.786L325.946 110.758C325.67 111.034 325.34 111.28 324.956 111.496C324.572 111.7 324.152 111.868 323.696 112C323.24 112.12 322.772 112.18 322.292 112.18ZM333.845 112V99.4H338.957C339.689 99.4 340.319 99.532 340.847 99.796C341.387 100.048 341.801 100.414 342.089 100.894C342.377 101.362 342.521 101.92 342.521 102.568C342.521 103.264 342.323 103.864 341.927 104.368C341.531 104.86 340.991 105.202 340.307 105.394L340.271 105.052C340.859 105.16 341.369 105.37 341.801 105.682C342.233 105.982 342.569 106.354 342.809 106.798C343.061 107.242 343.187 107.74 343.187 108.292C343.187 108.856 343.091 109.366 342.899 109.822C342.707 110.278 342.431 110.668 342.071 110.992C341.723 111.316 341.297 111.568 340.793 111.748C340.301 111.916 339.749 112 339.137 112H333.845ZM335.249 110.632H339.029C339.569 110.632 340.037 110.542 340.433 110.362C340.841 110.17 341.153 109.9 341.369 109.552C341.597 109.204 341.711 108.802 341.711 108.346C341.711 107.914 341.591 107.536 341.351 107.212C341.123 106.888 340.799 106.636 340.379 106.456C339.971 106.276 339.491 106.186 338.939 106.186H335.249V110.632ZM335.249 104.818H338.849C339.281 104.818 339.665 104.734 340.001 104.566C340.337 104.386 340.601 104.146 340.793 103.846C340.985 103.534 341.081 103.186 341.081 102.802C341.081 102.19 340.871 101.698 340.451 101.326C340.043 100.954 339.467 100.768 338.723 100.768H335.249V104.818ZM348.711 112.18C347.991 112.18 347.379 112.036 346.875 111.748C346.383 111.448 346.005 111.016 345.741 110.452C345.489 109.888 345.363 109.186 345.363 108.346V102.604H346.731V108.076C346.731 108.712 346.815 109.246 346.983 109.678C347.163 110.098 347.427 110.416 347.775 110.632C348.135 110.848 348.573 110.956 349.089 110.956C349.485 110.956 349.851 110.89 350.187 110.758C350.523 110.614 350.817 110.422 351.069 110.182C351.321 109.942 351.519 109.66 351.663 109.336C351.807 109.012 351.879 108.67 351.879 108.31V102.604H353.229V112H351.897L351.843 110.02L352.059 109.912C351.915 110.332 351.675 110.716 351.339 111.064C351.003 111.4 350.601 111.67 350.133 111.874C349.677 112.078 349.203 112.18 348.711 112.18ZM358.935 112.18C358.131 112.18 357.411 112.03 356.775 111.73C356.139 111.43 355.635 111.034 355.263 110.542L356.217 109.714C356.565 110.134 356.973 110.452 357.441 110.668C357.921 110.884 358.455 110.992 359.043 110.992C359.343 110.992 359.613 110.962 359.853 110.902C360.093 110.83 360.303 110.728 360.483 110.596C360.663 110.464 360.801 110.308 360.897 110.128C360.993 109.948 361.041 109.75 361.041 109.534C361.041 109.138 360.867 108.808 360.519 108.544C360.363 108.436 360.141 108.328 359.853 108.22C359.565 108.1 359.217 107.986 358.809 107.878C358.137 107.686 357.579 107.494 357.135 107.302C356.691 107.098 356.343 106.864 356.091 106.6C355.911 106.384 355.773 106.15 355.677 105.898C355.593 105.646 355.551 105.37 355.551 105.07C355.551 104.686 355.629 104.332 355.785 104.008C355.953 103.684 356.181 103.402 356.469 103.162C356.769 102.91 357.117 102.724 357.513 102.604C357.921 102.472 358.359 102.406 358.827 102.406C359.271 102.406 359.709 102.466 360.141 102.586C360.573 102.706 360.975 102.88 361.347 103.108C361.719 103.336 362.037 103.606 362.301 103.918L361.473 104.818C361.245 104.578 360.993 104.362 360.717 104.17C360.441 103.978 360.147 103.828 359.835 103.72C359.535 103.612 359.223 103.558 358.899 103.558C358.611 103.558 358.341 103.594 358.089 103.666C357.849 103.738 357.639 103.84 357.459 103.972C357.291 104.092 357.159 104.242 357.063 104.422C356.979 104.602 356.937 104.8 356.937 105.016C356.937 105.196 356.973 105.358 357.045 105.502C357.117 105.646 357.219 105.772 357.351 105.88C357.519 106.012 357.753 106.138 358.053 106.258C358.365 106.366 358.749 106.48 359.205 106.6C359.733 106.744 360.177 106.894 360.537 107.05C360.909 107.194 361.215 107.368 361.455 107.572C361.779 107.812 362.007 108.088 362.139 108.4C362.283 108.712 362.355 109.066 362.355 109.462C362.355 109.99 362.205 110.458 361.905 110.866C361.617 111.274 361.215 111.598 360.699 111.838C360.183 112.066 359.595 112.18 358.935 112.18ZM364.831 112V102.604H366.181V112H364.831ZM365.497 100.57C365.161 100.57 364.903 100.486 364.723 100.318C364.555 100.138 364.471 99.898 364.471 99.598C364.471 99.298 364.561 99.058 364.741 98.878C364.921 98.698 365.173 98.608 365.497 98.608C365.821 98.608 366.073 98.698 366.253 98.878C366.433 99.046 366.523 99.286 366.523 99.598C366.523 99.886 366.433 100.12 366.253 100.3C366.073 100.48 365.821 100.57 365.497 100.57ZM369.129 112V102.604H370.461L370.515 104.566L370.299 104.656C370.419 104.248 370.653 103.876 371.001 103.54C371.349 103.204 371.763 102.934 372.243 102.73C372.735 102.514 373.239 102.406 373.755 102.406C374.451 102.406 375.033 102.544 375.501 102.82C375.969 103.096 376.323 103.522 376.563 104.098C376.803 104.674 376.923 105.406 376.923 106.294V112H375.555V106.366C375.555 105.742 375.471 105.232 375.303 104.836C375.147 104.428 374.901 104.128 374.565 103.936C374.229 103.744 373.815 103.654 373.323 103.666C372.915 103.666 372.537 103.738 372.189 103.882C371.841 104.014 371.541 104.2 371.289 104.44C371.037 104.68 370.839 104.956 370.695 105.268C370.551 105.58 370.479 105.916 370.479 106.276V112H369.813C369.729 112 369.633 112 369.525 112C369.417 112 369.285 112 369.129 112ZM383.64 112.18C382.704 112.18 381.87 111.976 381.138 111.568C380.418 111.16 379.854 110.59 379.446 109.858C379.038 109.126 378.834 108.286 378.834 107.338C378.834 106.606 378.948 105.946 379.176 105.358C379.404 104.758 379.722 104.236 380.13 103.792C380.55 103.348 381.048 103.006 381.624 102.766C382.2 102.514 382.824 102.388 383.496 102.388C384.132 102.388 384.708 102.502 385.224 102.73C385.752 102.958 386.202 103.276 386.574 103.684C386.958 104.08 387.246 104.554 387.438 105.106C387.63 105.658 387.714 106.264 387.69 106.924L387.672 107.554H379.842L379.644 106.42H386.646L386.322 106.726V106.294C386.298 105.862 386.172 105.448 385.944 105.052C385.716 104.644 385.392 104.314 384.972 104.062C384.564 103.81 384.072 103.684 383.496 103.684C382.824 103.684 382.242 103.822 381.75 104.098C381.258 104.362 380.88 104.758 380.616 105.286C380.352 105.814 380.22 106.468 380.22 107.248C380.22 107.992 380.364 108.64 380.652 109.192C380.94 109.732 381.348 110.152 381.876 110.452C382.416 110.752 383.064 110.902 383.82 110.902C384.264 110.902 384.702 110.83 385.134 110.686C385.578 110.53 386.064 110.23 386.592 109.786L387.294 110.758C387.018 111.034 386.688 111.28 386.304 111.496C385.92 111.7 385.5 111.868 385.044 112C384.588 112.12 384.12 112.18 383.64 112.18ZM392.685 112.18C391.881 112.18 391.161 112.03 390.525 111.73C389.889 111.43 389.385 111.034 389.013 110.542L389.967 109.714C390.315 110.134 390.723 110.452 391.191 110.668C391.671 110.884 392.205 110.992 392.793 110.992C393.093 110.992 393.363 110.962 393.603 110.902C393.843 110.83 394.053 110.728 394.233 110.596C394.413 110.464 394.551 110.308 394.647 110.128C394.743 109.948 394.791 109.75 394.791 109.534C394.791 109.138 394.617 108.808 394.269 108.544C394.113 108.436 393.891 108.328 393.603 108.22C393.315 108.1 392.967 107.986 392.559 107.878C391.887 107.686 391.329 107.494 390.885 107.302C390.441 107.098 390.093 106.864 389.841 106.6C389.661 106.384 389.523 106.15 389.427 105.898C389.343 105.646 389.301 105.37 389.301 105.07C389.301 104.686 389.379 104.332 389.535 104.008C389.703 103.684 389.931 103.402 390.219 103.162C390.519 102.91 390.867 102.724 391.263 102.604C391.671 102.472 392.109 102.406 392.577 102.406C393.021 102.406 393.459 102.466 393.891 102.586C394.323 102.706 394.725 102.88 395.097 103.108C395.469 103.336 395.787 103.606 396.051 103.918L395.223 104.818C394.995 104.578 394.743 104.362 394.467 104.17C394.191 103.978 393.897 103.828 393.585 103.72C393.285 103.612 392.973 103.558 392.649 103.558C392.361 103.558 392.091 103.594 391.839 103.666C391.599 103.738 391.389 103.84 391.209 103.972C391.041 104.092 390.909 104.242 390.813 104.422C390.729 104.602 390.687 104.8 390.687 105.016C390.687 105.196 390.723 105.358 390.795 105.502C390.867 105.646 390.969 105.772 391.101 105.88C391.269 106.012 391.503 106.138 391.803 106.258C392.115 106.366 392.499 106.48 392.955 106.6C393.483 106.744 393.927 106.894 394.287 107.05C394.659 107.194 394.965 107.368 395.205 107.572C395.529 107.812 395.757 108.088 395.889 108.4C396.033 108.712 396.105 109.066 396.105 109.462C396.105 109.99 395.955 110.458 395.655 110.866C395.367 111.274 394.965 111.598 394.449 111.838C393.933 112.066 393.345 112.18 392.685 112.18ZM401.299 112.18C400.495 112.18 399.775 112.03 399.139 111.73C398.503 111.43 397.999 111.034 397.627 110.542L398.581 109.714C398.929 110.134 399.337 110.452 399.805 110.668C400.285 110.884 400.819 110.992 401.407 110.992C401.707 110.992 401.977 110.962 402.217 110.902C402.457 110.83 402.667 110.728 402.847 110.596C403.027 110.464 403.165 110.308 403.261 110.128C403.357 109.948 403.405 109.75 403.405 109.534C403.405 109.138 403.231 108.808 402.883 108.544C402.727 108.436 402.505 108.328 402.217 108.22C401.929 108.1 401.581 107.986 401.173 107.878C400.501 107.686 399.943 107.494 399.499 107.302C399.055 107.098 398.707 106.864 398.455 106.6C398.275 106.384 398.137 106.15 398.041 105.898C397.957 105.646 397.915 105.37 397.915 105.07C397.915 104.686 397.993 104.332 398.149 104.008C398.317 103.684 398.545 103.402 398.833 103.162C399.133 102.91 399.481 102.724 399.877 102.604C400.285 102.472 400.723 102.406 401.191 102.406C401.635 102.406 402.073 102.466 402.505 102.586C402.937 102.706 403.339 102.88 403.711 103.108C404.083 103.336 404.401 103.606 404.665 103.918L403.837 104.818C403.609 104.578 403.357 104.362 403.081 104.17C402.805 103.978 402.511 103.828 402.199 103.72C401.899 103.612 401.587 103.558 401.263 103.558C400.975 103.558 400.705 103.594 400.453 103.666C400.213 103.738 400.003 103.84 399.823 103.972C399.655 104.092 399.523 104.242 399.427 104.422C399.343 104.602 399.301 104.8 399.301 105.016C399.301 105.196 399.337 105.358 399.409 105.502C399.481 105.646 399.583 105.772 399.715 105.88C399.883 106.012 400.117 106.138 400.417 106.258C400.729 106.366 401.113 106.48 401.569 106.6C402.097 106.744 402.541 106.894 402.901 107.05C403.273 107.194 403.579 107.368 403.819 107.572C404.143 107.812 404.371 108.088 404.503 108.4C404.647 108.712 404.719 109.066 404.719 109.462C404.719 109.99 404.569 110.458 404.269 110.866C403.981 111.274 403.579 111.598 403.063 111.838C402.547 112.066 401.959 112.18 401.299 112.18ZM284.521 139V126.4H292.153V127.768H285.925V137.632H292.117V139H284.521ZM285.169 133.204V131.836H291.145V133.204H285.169ZM301.146 139L297.888 134.806L297.726 134.608L293.82 129.604H295.53L298.734 133.726L298.914 133.96L302.838 139H301.146ZM293.748 139L297.582 134.05L298.392 135.022L295.368 139H293.748ZM299.004 134.392L298.23 133.438L300.966 129.604H302.604L299.004 134.392ZM304.441 142.96V129.604H305.791L305.827 131.89L305.575 131.926C305.683 131.47 305.917 131.056 306.277 130.684C306.637 130.3 307.075 129.994 307.591 129.766C308.107 129.538 308.653 129.424 309.229 129.424C310.069 129.424 310.819 129.634 311.479 130.054C312.151 130.474 312.685 131.05 313.081 131.782C313.477 132.514 313.675 133.354 313.675 134.302C313.675 135.238 313.483 136.072 313.099 136.804C312.715 137.536 312.187 138.118 311.515 138.55C310.843 138.97 310.087 139.18 309.247 139.18C308.659 139.18 308.101 139.06 307.573 138.82C307.045 138.58 306.595 138.268 306.223 137.884C305.851 137.488 305.605 137.062 305.485 136.606H305.809V142.96H304.441ZM309.031 137.884C309.667 137.884 310.231 137.728 310.723 137.416C311.215 137.104 311.605 136.678 311.893 136.138C312.181 135.598 312.325 134.986 312.325 134.302C312.325 133.606 312.181 132.988 311.893 132.448C311.605 131.908 311.215 131.482 310.723 131.17C310.231 130.858 309.667 130.702 309.031 130.702C308.395 130.702 307.825 130.858 307.321 131.17C306.829 131.47 306.439 131.89 306.151 132.43C305.863 132.97 305.719 133.588 305.719 134.284C305.719 134.98 305.863 135.598 306.151 136.138C306.439 136.678 306.829 137.104 307.321 137.416C307.825 137.728 308.395 137.884 309.031 137.884ZM319.311 139.18C318.495 139.18 317.757 138.97 317.097 138.55C316.437 138.118 315.915 137.536 315.531 136.804C315.147 136.06 314.955 135.22 314.955 134.284C314.955 133.336 315.153 132.496 315.549 131.764C315.945 131.032 316.473 130.456 317.133 130.036C317.805 129.616 318.555 129.406 319.383 129.406C319.875 129.406 320.331 129.478 320.751 129.622C321.171 129.766 321.543 129.97 321.867 130.234C322.203 130.486 322.479 130.786 322.695 131.134C322.923 131.47 323.079 131.836 323.163 132.232L322.767 132.034L322.821 129.604H324.171V139H322.803V136.696L323.163 136.462C323.079 136.822 322.917 137.17 322.677 137.506C322.437 137.83 322.143 138.118 321.795 138.37C321.459 138.622 321.075 138.82 320.643 138.964C320.223 139.108 319.779 139.18 319.311 139.18ZM319.617 137.884C320.241 137.884 320.799 137.734 321.291 137.434C321.783 137.122 322.167 136.696 322.443 136.156C322.731 135.604 322.875 134.98 322.875 134.284C322.875 133.588 322.731 132.97 322.443 132.43C322.167 131.89 321.783 131.464 321.291 131.152C320.799 130.84 320.241 130.684 319.617 130.684C318.981 130.684 318.417 130.84 317.925 131.152C317.445 131.464 317.061 131.89 316.773 132.43C316.497 132.97 316.359 133.588 316.359 134.284C316.359 134.968 316.497 135.586 316.773 136.138C317.049 136.678 317.433 137.104 317.925 137.416C318.417 137.728 318.981 137.884 319.617 137.884ZM326.801 139V129.604H328.133L328.187 131.566L327.971 131.656C328.091 131.248 328.325 130.876 328.673 130.54C329.021 130.204 329.435 129.934 329.915 129.73C330.407 129.514 330.911 129.406 331.427 129.406C332.123 129.406 332.705 129.544 333.173 129.82C333.641 130.096 333.995 130.522 334.235 131.098C334.475 131.674 334.595 132.406 334.595 133.294V139H333.227V133.366C333.227 132.742 333.143 132.232 332.975 131.836C332.819 131.428 332.573 131.128 332.237 130.936C331.901 130.744 331.487 130.654 330.995 130.666C330.587 130.666 330.209 130.738 329.861 130.882C329.513 131.014 329.213 131.2 328.961 131.44C328.709 131.68 328.511 131.956 328.367 132.268C328.223 132.58 328.151 132.916 328.151 133.276V139H327.485C327.401 139 327.305 139 327.197 139C327.089 139 326.957 139 326.801 139ZM340.25 139.18C339.446 139.18 338.726 139.03 338.09 138.73C337.454 138.43 336.95 138.034 336.578 137.542L337.532 136.714C337.88 137.134 338.288 137.452 338.756 137.668C339.236 137.884 339.77 137.992 340.358 137.992C340.658 137.992 340.928 137.962 341.168 137.902C341.408 137.83 341.618 137.728 341.798 137.596C341.978 137.464 342.116 137.308 342.212 137.128C342.308 136.948 342.356 136.75 342.356 136.534C342.356 136.138 342.182 135.808 341.834 135.544C341.678 135.436 341.456 135.328 341.168 135.22C340.88 135.1 340.532 134.986 340.124 134.878C339.452 134.686 338.894 134.494 338.45 134.302C338.006 134.098 337.658 133.864 337.406 133.6C337.226 133.384 337.088 133.15 336.992 132.898C336.908 132.646 336.866 132.37 336.866 132.07C336.866 131.686 336.944 131.332 337.1 131.008C337.268 130.684 337.496 130.402 337.784 130.162C338.084 129.91 338.432 129.724 338.828 129.604C339.236 129.472 339.674 129.406 340.142 129.406C340.586 129.406 341.024 129.466 341.456 129.586C341.888 129.706 342.29 129.88 342.662 130.108C343.034 130.336 343.352 130.606 343.616 130.918L342.788 131.818C342.56 131.578 342.308 131.362 342.032 131.17C341.756 130.978 341.462 130.828 341.15 130.72C340.85 130.612 340.538 130.558 340.214 130.558C339.926 130.558 339.656 130.594 339.404 130.666C339.164 130.738 338.954 130.84 338.774 130.972C338.606 131.092 338.474 131.242 338.378 131.422C338.294 131.602 338.252 131.8 338.252 132.016C338.252 132.196 338.288 132.358 338.36 132.502C338.432 132.646 338.534 132.772 338.666 132.88C338.834 133.012 339.068 133.138 339.368 133.258C339.68 133.366 340.064 133.48 340.52 133.6C341.048 133.744 341.492 133.894 341.852 134.05C342.224 134.194 342.53 134.368 342.77 134.572C343.094 134.812 343.322 135.088 343.454 135.4C343.598 135.712 343.67 136.066 343.67 136.462C343.67 136.99 343.52 137.458 343.22 137.866C342.932 138.274 342.53 138.598 342.014 138.838C341.498 139.066 340.91 139.18 340.25 139.18ZM346.145 139V129.604H347.495V139H346.145ZM346.811 127.57C346.475 127.57 346.217 127.486 346.037 127.318C345.869 127.138 345.785 126.898 345.785 126.598C345.785 126.298 345.875 126.058 346.055 125.878C346.235 125.698 346.487 125.608 346.811 125.608C347.135 125.608 347.387 125.698 347.567 125.878C347.747 126.046 347.837 126.286 347.837 126.598C347.837 126.886 347.747 127.12 347.567 127.3C347.387 127.48 347.135 127.57 346.811 127.57ZM354.601 139.18C353.665 139.18 352.831 138.97 352.099 138.55C351.379 138.13 350.809 137.548 350.389 136.804C349.981 136.06 349.777 135.214 349.777 134.266C349.777 133.33 349.981 132.496 350.389 131.764C350.809 131.032 351.379 130.456 352.099 130.036C352.831 129.616 353.665 129.406 354.601 129.406C355.525 129.406 356.347 129.616 357.067 130.036C357.799 130.456 358.369 131.032 358.777 131.764C359.197 132.496 359.407 133.33 359.407 134.266C359.407 135.214 359.197 136.06 358.777 136.804C358.369 137.548 357.799 138.13 357.067 138.55C356.347 138.97 355.525 139.18 354.601 139.18ZM354.601 137.902C355.261 137.902 355.849 137.746 356.365 137.434C356.881 137.11 357.283 136.678 357.571 136.138C357.859 135.586 358.003 134.962 358.003 134.266C358.003 133.57 357.859 132.952 357.571 132.412C357.283 131.872 356.881 131.452 356.365 131.152C355.849 130.84 355.261 130.684 354.601 130.684C353.941 130.684 353.347 130.84 352.819 131.152C352.303 131.452 351.895 131.878 351.595 132.43C351.307 132.97 351.169 133.582 351.181 134.266C351.169 134.962 351.307 135.586 351.595 136.138C351.895 136.678 352.303 137.11 352.819 137.434C353.347 137.746 353.941 137.902 354.601 137.902ZM361.377 139V129.604H362.709L362.763 131.566L362.547 131.656C362.667 131.248 362.901 130.876 363.249 130.54C363.597 130.204 364.011 129.934 364.491 129.73C364.983 129.514 365.487 129.406 366.003 129.406C366.699 129.406 367.281 129.544 367.749 129.82C368.217 130.096 368.571 130.522 368.811 131.098C369.051 131.674 369.171 132.406 369.171 133.294V139H367.803V133.366C367.803 132.742 367.719 132.232 367.551 131.836C367.395 131.428 367.149 131.128 366.813 130.936C366.477 130.744 366.063 130.654 365.571 130.666C365.163 130.666 364.785 130.738 364.437 130.882C364.089 131.014 363.789 131.2 363.537 131.44C363.285 131.68 363.087 131.956 362.943 132.268C362.799 132.58 362.727 132.916 362.727 133.276V139H362.061C361.977 139 361.881 139 361.773 139C361.665 139 361.533 139 361.377 139Z" fill="#B3B3B3"/>
<line x1="515.833" y1="2.18557e-08" x2="515.833" y2="146" stroke="#262626" stroke-dasharray="10 10"/>
<path d="M585.691 65V32.23L588.475 32.52L574.671 49.398L574.033 48.354H599.843V54.908H569.973L566.841 48.876L587.025 24.284H592.941V65H585.691ZM617.578 65.406C614.755 65.406 612.203 64.8067 609.922 63.608C607.641 62.3707 605.746 60.592 604.238 58.272L608.414 53.748C610.115 55.6427 611.643 56.9573 612.996 57.692C614.349 58.388 615.838 58.736 617.462 58.736C618.931 58.736 620.246 58.4267 621.406 57.808C622.566 57.1507 623.494 56.2807 624.19 55.198C624.886 54.0767 625.234 52.8587 625.234 51.544C625.234 50.1133 624.905 48.8567 624.248 47.774C623.591 46.6527 622.701 45.7633 621.58 45.106C620.459 44.4487 619.183 44.12 617.752 44.12C616.979 44.12 616.244 44.178 615.548 44.294C614.852 44.41 614.04 44.642 613.112 44.99C612.223 45.338 611.082 45.8793 609.69 46.614L606.094 41.742L608.472 24.284H630.918V30.954H612.706L614.388 29.098L612.474 41.974L610.328 40.466C610.831 40.002 611.565 39.5573 612.532 39.132C613.537 38.7067 614.62 38.3587 615.78 38.088C616.94 37.8173 618.081 37.682 619.202 37.682C621.715 37.682 623.958 38.262 625.93 39.422C627.902 40.582 629.468 42.1867 630.628 44.236C631.788 46.2467 632.368 48.5667 632.368 51.196C632.368 53.864 631.711 56.2807 630.396 58.446C629.12 60.5727 627.361 62.274 625.118 63.55C622.875 64.7873 620.362 65.406 617.578 65.406ZM644.033 65L670.887 24.4H677.789L650.645 65H644.033ZM647.339 45.918C645.522 45.918 643.898 45.4347 642.467 44.468C641.075 43.5013 639.973 42.1867 639.161 40.524C638.388 38.8613 638.001 36.9667 638.001 34.84C638.001 32.6747 638.388 30.7607 639.161 29.098C639.973 27.3967 641.075 26.0627 642.467 25.096C643.898 24.1293 645.541 23.646 647.397 23.646C649.214 23.646 650.819 24.1293 652.211 25.096C653.642 26.0627 654.744 27.3967 655.517 29.098C656.329 30.7607 656.735 32.6747 656.735 34.84C656.735 36.928 656.329 38.8227 655.517 40.524C654.705 42.1867 653.584 43.5013 652.153 44.468C650.722 45.4347 649.118 45.918 647.339 45.918ZM647.397 40.988C648.132 40.988 648.77 40.7367 649.311 40.234C649.852 39.7313 650.278 39.0353 650.587 38.146C650.896 37.218 651.051 36.116 651.051 34.84C651.051 33.564 650.896 32.462 650.587 31.534C650.278 30.606 649.852 29.8907 649.311 29.388C648.77 28.8853 648.112 28.634 647.339 28.634C646.604 28.634 645.947 28.9047 645.367 29.446C644.826 29.9487 644.4 30.664 644.091 31.592C643.782 32.4813 643.627 33.564 643.627 34.84C643.627 36.116 643.762 37.218 644.033 38.146C644.342 39.0353 644.787 39.7313 645.367 40.234C645.947 40.7367 646.624 40.988 647.397 40.988ZM674.889 65.522C673.072 65.522 671.448 65.0387 670.017 64.072C668.625 63.1053 667.523 61.7907 666.711 60.128C665.899 58.4653 665.493 56.5707 665.493 54.444C665.493 52.2787 665.88 50.3647 666.653 48.702C667.465 47.0007 668.586 45.6667 670.017 44.7C671.448 43.7333 673.072 43.25 674.889 43.25C676.745 43.25 678.369 43.7333 679.761 44.7C681.153 45.6667 682.236 47.0007 683.009 48.702C683.821 50.3647 684.227 52.2787 684.227 54.444C684.227 56.532 683.821 58.4267 683.009 60.128C682.197 61.7907 681.076 63.1053 679.645 64.072C678.253 65.0387 676.668 65.522 674.889 65.522ZM674.889 60.65C675.624 60.65 676.262 60.3987 676.803 59.896C677.383 59.3547 677.828 58.6393 678.137 57.75C678.446 56.822 678.601 55.72 678.601 54.444C678.601 53.2067 678.446 52.124 678.137 51.196C677.828 50.268 677.383 49.5527 676.803 49.05C676.262 48.5087 675.624 48.238 674.889 48.238C674.116 48.238 673.439 48.4893 672.859 48.992C672.318 49.4947 671.892 50.2293 671.583 51.196C671.274 52.124 671.119 53.2067 671.119 54.444C671.119 55.72 671.274 56.822 671.583 57.75C671.892 58.6393 672.318 59.3547 672.859 59.896C673.439 60.3987 674.116 60.65 674.889 60.65Z" fill="#CAFF33"/>
<path d="M570.859 112.18C570.223 112.18 569.623 112.09 569.059 111.91C568.495 111.73 567.979 111.46 567.511 111.1C567.043 110.74 566.629 110.296 566.269 109.768L567.241 108.688C567.805 109.492 568.381 110.056 568.969 110.38C569.569 110.704 570.241 110.866 570.985 110.866C571.525 110.866 572.017 110.776 572.461 110.596C572.905 110.416 573.253 110.164 573.505 109.84C573.757 109.516 573.883 109.144 573.883 108.724C573.883 108.448 573.835 108.202 573.739 107.986C573.655 107.77 573.523 107.578 573.343 107.41C573.163 107.242 572.941 107.092 572.677 106.96C572.413 106.828 572.107 106.708 571.759 106.6C571.423 106.492 571.045 106.384 570.625 106.276C570.013 106.132 569.473 105.964 569.005 105.772C568.549 105.568 568.159 105.322 567.835 105.034C567.523 104.746 567.283 104.416 567.115 104.044C566.959 103.66 566.881 103.21 566.881 102.694C566.881 102.202 566.983 101.746 567.187 101.326C567.403 100.906 567.697 100.546 568.069 100.246C568.441 99.934 568.879 99.694 569.383 99.526C569.887 99.358 570.427 99.274 571.003 99.274C571.651 99.274 572.227 99.364 572.731 99.544C573.247 99.712 573.703 99.964 574.099 100.3C574.495 100.636 574.837 101.038 575.125 101.506L574.135 102.478C573.883 102.082 573.595 101.74 573.271 101.452C572.959 101.164 572.611 100.948 572.227 100.804C571.855 100.648 571.441 100.57 570.985 100.57C570.457 100.57 569.989 100.66 569.581 100.84C569.185 101.02 568.873 101.272 568.645 101.596C568.417 101.908 568.303 102.268 568.303 102.676C568.303 102.976 568.357 103.246 568.465 103.486C568.573 103.714 568.741 103.918 568.969 104.098C569.209 104.266 569.515 104.422 569.887 104.566C570.271 104.698 570.727 104.824 571.255 104.944C571.879 105.088 572.437 105.262 572.929 105.466C573.433 105.67 573.859 105.916 574.207 106.204C574.567 106.48 574.837 106.804 575.017 107.176C575.209 107.548 575.305 107.974 575.305 108.454C575.305 109.198 575.119 109.852 574.747 110.416C574.375 110.968 573.853 111.4 573.181 111.712C572.521 112.024 571.747 112.18 570.859 112.18ZM578.895 112V100.138H580.245V112H578.895ZM576.771 103.9V102.604H582.621V103.9H576.771ZM584.278 112V102.604H585.628L585.664 105.106L585.52 104.764C585.652 104.344 585.862 103.954 586.15 103.594C586.45 103.234 586.804 102.946 587.212 102.73C587.62 102.514 588.07 102.406 588.562 102.406C588.766 102.406 588.958 102.424 589.138 102.46C589.318 102.484 589.468 102.52 589.588 102.568L589.21 104.08C589.054 104.008 588.892 103.96 588.724 103.936C588.568 103.9 588.418 103.882 588.274 103.882C587.866 103.882 587.5 103.954 587.176 104.098C586.852 104.242 586.576 104.446 586.348 104.71C586.12 104.962 585.946 105.256 585.826 105.592C585.706 105.928 585.646 106.288 585.646 106.672V112H584.278ZM594.729 112.18C593.793 112.18 592.959 111.976 592.227 111.568C591.507 111.16 590.943 110.59 590.535 109.858C590.127 109.126 589.923 108.286 589.923 107.338C589.923 106.606 590.037 105.946 590.265 105.358C590.493 104.758 590.811 104.236 591.219 103.792C591.639 103.348 592.137 103.006 592.713 102.766C593.289 102.514 593.913 102.388 594.585 102.388C595.221 102.388 595.797 102.502 596.313 102.73C596.841 102.958 597.291 103.276 597.663 103.684C598.047 104.08 598.335 104.554 598.527 105.106C598.719 105.658 598.803 106.264 598.779 106.924L598.761 107.554H590.931L590.733 106.42H597.735L597.411 106.726V106.294C597.387 105.862 597.261 105.448 597.033 105.052C596.805 104.644 596.481 104.314 596.061 104.062C595.653 103.81 595.161 103.684 594.585 103.684C593.913 103.684 593.331 103.822 592.839 104.098C592.347 104.362 591.969 104.758 591.705 105.286C591.441 105.814 591.309 106.468 591.309 107.248C591.309 107.992 591.453 108.64 591.741 109.192C592.029 109.732 592.437 110.152 592.965 110.452C593.505 110.752 594.153 110.902 594.909 110.902C595.353 110.902 595.791 110.83 596.223 110.686C596.667 110.53 597.153 110.23 597.681 109.786L598.383 110.758C598.107 111.034 597.777 111.28 597.393 111.496C597.009 111.7 596.589 111.868 596.133 112C595.677 112.12 595.209 112.18 594.729 112.18ZM604.368 112.18C603.552 112.18 602.814 111.97 602.154 111.55C601.494 111.118 600.972 110.536 600.588 109.804C600.204 109.06 600.012 108.22 600.012 107.284C600.012 106.336 600.21 105.496 600.606 104.764C601.002 104.032 601.53 103.456 602.19 103.036C602.862 102.616 603.612 102.406 604.44 102.406C604.932 102.406 605.388 102.478 605.808 102.622C606.228 102.766 606.6 102.97 606.924 103.234C607.26 103.486 607.536 103.786 607.752 104.134C607.98 104.47 608.136 104.836 608.22 105.232L607.824 105.034L607.878 102.604H609.228V112H607.86V109.696L608.22 109.462C608.136 109.822 607.974 110.17 607.734 110.506C607.494 110.83 607.2 111.118 606.852 111.37C606.516 111.622 606.132 111.82 605.7 111.964C605.28 112.108 604.836 112.18 604.368 112.18ZM604.674 110.884C605.298 110.884 605.856 110.734 606.348 110.434C606.84 110.122 607.224 109.696 607.5 109.156C607.788 108.604 607.932 107.98 607.932 107.284C607.932 106.588 607.788 105.97 607.5 105.43C607.224 104.89 606.84 104.464 606.348 104.152C605.856 103.84 605.298 103.684 604.674 103.684C604.038 103.684 603.474 103.84 602.982 104.152C602.502 104.464 602.118 104.89 601.83 105.43C601.554 105.97 601.416 106.588 601.416 107.284C601.416 107.968 601.554 108.586 601.83 109.138C602.106 109.678 602.49 110.104 602.982 110.416C603.474 110.728 604.038 110.884 604.674 110.884ZM611.84 112V102.604H613.19L613.226 104.746L612.956 104.836C613.052 104.476 613.208 104.152 613.424 103.864C613.652 103.564 613.922 103.306 614.234 103.09C614.546 102.874 614.888 102.712 615.26 102.604C615.632 102.484 616.022 102.424 616.43 102.424C616.922 102.424 617.36 102.508 617.744 102.676C618.14 102.832 618.47 103.108 618.734 103.504C619.01 103.888 619.22 104.398 619.364 105.034L619.04 104.872L619.166 104.566C619.286 104.29 619.46 104.026 619.688 103.774C619.928 103.51 620.198 103.276 620.498 103.072C620.81 102.868 621.146 102.712 621.506 102.604C621.878 102.484 622.256 102.424 622.64 102.424C623.3 102.424 623.858 102.568 624.314 102.856C624.77 103.132 625.112 103.558 625.34 104.134C625.58 104.71 625.7 105.442 625.7 106.33V112H624.314V106.402C624.314 105.778 624.236 105.268 624.08 104.872C623.924 104.476 623.69 104.182 623.378 103.99C623.078 103.786 622.694 103.684 622.226 103.684C621.818 103.684 621.44 103.756 621.092 103.9C620.756 104.032 620.462 104.224 620.21 104.476C619.97 104.716 619.778 104.992 619.634 105.304C619.502 105.616 619.436 105.952 619.436 106.312V112H618.068V106.384C618.068 105.784 617.984 105.286 617.816 104.89C617.66 104.494 617.426 104.194 617.114 103.99C616.802 103.786 616.418 103.684 615.962 103.684C615.566 103.684 615.2 103.756 614.864 103.9C614.528 104.032 614.234 104.218 613.982 104.458C613.742 104.698 613.55 104.974 613.406 105.286C613.274 105.598 613.208 105.934 613.208 106.294V112H611.84ZM628.295 112V98.68H629.645V112H628.295ZM632.662 112V102.604H634.012V112H632.662ZM633.328 100.57C632.992 100.57 632.734 100.486 632.554 100.318C632.386 100.138 632.302 99.898 632.302 99.598C632.302 99.298 632.392 99.058 632.572 98.878C632.752 98.698 633.004 98.608 633.328 98.608C633.652 98.608 633.904 98.698 634.084 98.878C634.264 99.046 634.354 99.286 634.354 99.598C634.354 99.886 634.264 100.12 634.084 100.3C633.904 100.48 633.652 100.57 633.328 100.57ZM636.96 112V102.604H638.292L638.346 104.566L638.13 104.656C638.25 104.248 638.484 103.876 638.832 103.54C639.18 103.204 639.594 102.934 640.074 102.73C640.566 102.514 641.07 102.406 641.586 102.406C642.282 102.406 642.864 102.544 643.332 102.82C643.8 103.096 644.154 103.522 644.394 104.098C644.634 104.674 644.754 105.406 644.754 106.294V112H643.386V106.366C643.386 105.742 643.302 105.232 643.134 104.836C642.978 104.428 642.732 104.128 642.396 103.936C642.06 103.744 641.646 103.654 641.154 103.666C640.746 103.666 640.368 103.738 640.02 103.882C639.672 104.014 639.372 104.2 639.12 104.44C638.868 104.68 638.67 104.956 638.526 105.268C638.382 105.58 638.31 105.916 638.31 106.276V112H637.644C637.56 112 637.464 112 637.356 112C637.248 112 637.116 112 636.96 112ZM651.471 112.18C650.535 112.18 649.701 111.976 648.969 111.568C648.249 111.16 647.685 110.59 647.277 109.858C646.869 109.126 646.665 108.286 646.665 107.338C646.665 106.606 646.779 105.946 647.007 105.358C647.235 104.758 647.553 104.236 647.961 103.792C648.381 103.348 648.879 103.006 649.455 102.766C650.031 102.514 650.655 102.388 651.327 102.388C651.963 102.388 652.539 102.502 653.055 102.73C653.583 102.958 654.033 103.276 654.405 103.684C654.789 104.08 655.077 104.554 655.269 105.106C655.461 105.658 655.545 106.264 655.521 106.924L655.503 107.554H647.673L647.475 106.42H654.477L654.153 106.726V106.294C654.129 105.862 654.003 105.448 653.775 105.052C653.547 104.644 653.223 104.314 652.803 104.062C652.395 103.81 651.903 103.684 651.327 103.684C650.655 103.684 650.073 103.822 649.581 104.098C649.089 104.362 648.711 104.758 648.447 105.286C648.183 105.814 648.051 106.468 648.051 107.248C648.051 107.992 648.195 108.64 648.483 109.192C648.771 109.732 649.179 110.152 649.707 110.452C650.247 110.752 650.895 110.902 651.651 110.902C652.095 110.902 652.533 110.83 652.965 110.686C653.409 110.53 653.895 110.23 654.423 109.786L655.125 110.758C654.849 111.034 654.519 111.28 654.135 111.496C653.751 111.7 653.331 111.868 652.875 112C652.419 112.12 651.951 112.18 651.471 112.18ZM662.483 115.96V102.604H663.833L663.869 104.89L663.617 104.926C663.725 104.47 663.959 104.056 664.319 103.684C664.679 103.3 665.117 102.994 665.633 102.766C666.149 102.538 666.695 102.424 667.271 102.424C668.111 102.424 668.861 102.634 669.521 103.054C670.193 103.474 670.727 104.05 671.123 104.782C671.519 105.514 671.717 106.354 671.717 107.302C671.717 108.238 671.525 109.072 671.141 109.804C670.757 110.536 670.229 111.118 669.557 111.55C668.885 111.97 668.129 112.18 667.289 112.18C666.701 112.18 666.143 112.06 665.615 111.82C665.087 111.58 664.637 111.268 664.265 110.884C663.893 110.488 663.647 110.062 663.527 109.606H663.851V115.96H662.483ZM667.073 110.884C667.709 110.884 668.273 110.728 668.765 110.416C669.257 110.104 669.647 109.678 669.935 109.138C670.223 108.598 670.367 107.986 670.367 107.302C670.367 106.606 670.223 105.988 669.935 105.448C669.647 104.908 669.257 104.482 668.765 104.17C668.273 103.858 667.709 103.702 667.073 103.702C666.437 103.702 665.867 103.858 665.363 104.17C664.871 104.47 664.481 104.89 664.193 105.43C663.905 105.97 663.761 106.588 663.761 107.284C663.761 107.98 663.905 108.598 664.193 109.138C664.481 109.678 664.871 110.104 665.363 110.416C665.867 110.728 666.437 110.884 667.073 110.884ZM677.353 112.18C676.537 112.18 675.799 111.97 675.139 111.55C674.479 111.118 673.957 110.536 673.573 109.804C673.189 109.06 672.997 108.22 672.997 107.284C672.997 106.336 673.195 105.496 673.591 104.764C673.987 104.032 674.515 103.456 675.175 103.036C675.847 102.616 676.597 102.406 677.425 102.406C677.917 102.406 678.373 102.478 678.793 102.622C679.213 102.766 679.585 102.97 679.909 103.234C680.245 103.486 680.521 103.786 680.737 104.134C680.965 104.47 681.121 104.836 681.205 105.232L680.809 105.034L680.863 102.604H682.213V112H680.845V109.696L681.205 109.462C681.121 109.822 680.959 110.17 680.719 110.506C680.479 110.83 680.185 111.118 679.837 111.37C679.501 111.622 679.117 111.82 678.685 111.964C678.265 112.108 677.821 112.18 677.353 112.18ZM677.659 110.884C678.283 110.884 678.841 110.734 679.333 110.434C679.825 110.122 680.209 109.696 680.485 109.156C680.773 108.604 680.917 107.98 680.917 107.284C680.917 106.588 680.773 105.97 680.485 105.43C680.209 104.89 679.825 104.464 679.333 104.152C678.841 103.84 678.283 103.684 677.659 103.684C677.023 103.684 676.459 103.84 675.967 104.152C675.487 104.464 675.103 104.89 674.815 105.43C674.539 105.97 674.401 106.588 674.401 107.284C674.401 107.968 674.539 108.586 674.815 109.138C675.091 109.678 675.475 110.104 675.967 110.416C676.459 110.728 677.023 110.884 677.659 110.884ZM686.216 116.14L688.034 111.712L688.16 112.99L683.444 102.604H684.974L688.196 109.804C688.292 109.996 688.388 110.224 688.484 110.488C688.58 110.74 688.67 110.992 688.754 111.244L688.25 111.19C688.334 110.986 688.412 110.776 688.484 110.56C688.568 110.344 688.646 110.134 688.718 109.93L691.544 102.604H693.092L689.294 112L687.674 116.14H686.216ZM694.511 112V102.604H695.861L695.897 105.106L695.753 104.764C695.885 104.344 696.095 103.954 696.383 103.594C696.683 103.234 697.037 102.946 697.445 102.73C697.853 102.514 698.303 102.406 698.795 102.406C698.999 102.406 699.191 102.424 699.371 102.46C699.551 102.484 699.701 102.52 699.821 102.568L699.443 104.08C699.287 104.008 699.125 103.96 698.957 103.936C698.801 103.9 698.651 103.882 698.507 103.882C698.099 103.882 697.733 103.954 697.409 104.098C697.085 104.242 696.809 104.446 696.581 104.71C696.353 104.962 696.179 105.256 696.059 105.592C695.939 105.928 695.879 106.288 695.879 106.672V112H694.511ZM704.979 112.18C704.043 112.18 703.209 111.97 702.477 111.55C701.757 111.13 701.187 110.548 700.767 109.804C700.359 109.06 700.155 108.214 700.155 107.266C700.155 106.33 700.359 105.496 700.767 104.764C701.187 104.032 701.757 103.456 702.477 103.036C703.209 102.616 704.043 102.406 704.979 102.406C705.903 102.406 706.725 102.616 707.445 103.036C708.177 103.456 708.747 104.032 709.155 104.764C709.575 105.496 709.785 106.33 709.785 107.266C709.785 108.214 709.575 109.06 709.155 109.804C708.747 110.548 708.177 111.13 707.445 111.55C706.725 111.97 705.903 112.18 704.979 112.18ZM704.979 110.902C705.639 110.902 706.227 110.746 706.743 110.434C707.259 110.11 707.661 109.678 707.949 109.138C708.237 108.586 708.381 107.962 708.381 107.266C708.381 106.57 708.237 105.952 707.949 105.412C707.661 104.872 707.259 104.452 706.743 104.152C706.227 103.84 705.639 103.684 704.979 103.684C704.319 103.684 703.725 103.84 703.197 104.152C702.681 104.452 702.273 104.878 701.973 105.43C701.685 105.97 701.547 106.582 701.559 107.266C701.547 107.962 701.685 108.586 701.973 109.138C702.273 109.678 702.681 110.11 703.197 110.434C703.725 110.746 704.319 110.902 704.979 110.902ZM711.791 112V98.68H713.141V112H711.791ZM715.834 112V98.68H717.184V112H715.834ZM566.647 142.96V129.604H567.997L568.033 131.89L567.781 131.926C567.889 131.47 568.123 131.056 568.483 130.684C568.843 130.3 569.281 129.994 569.797 129.766C570.313 129.538 570.859 129.424 571.435 129.424C572.275 129.424 573.025 129.634 573.685 130.054C574.357 130.474 574.891 131.05 575.287 131.782C575.683 132.514 575.881 133.354 575.881 134.302C575.881 135.238 575.689 136.072 575.305 136.804C574.921 137.536 574.393 138.118 573.721 138.55C573.049 138.97 572.293 139.18 571.453 139.18C570.865 139.18 570.307 139.06 569.779 138.82C569.251 138.58 568.801 138.268 568.429 137.884C568.057 137.488 567.811 137.062 567.691 136.606H568.015V142.96H566.647ZM571.237 137.884C571.873 137.884 572.437 137.728 572.929 137.416C573.421 137.104 573.811 136.678 574.099 136.138C574.387 135.598 574.531 134.986 574.531 134.302C574.531 133.606 574.387 132.988 574.099 132.448C573.811 131.908 573.421 131.482 572.929 131.17C572.437 130.858 571.873 130.702 571.237 130.702C570.601 130.702 570.031 130.858 569.527 131.17C569.035 131.47 568.645 131.89 568.357 132.43C568.069 132.97 567.925 133.588 567.925 134.284C567.925 134.98 568.069 135.598 568.357 136.138C568.645 136.678 569.035 137.104 569.527 137.416C570.031 137.728 570.601 137.884 571.237 137.884ZM577.845 139V129.604H579.195L579.231 132.106L579.087 131.764C579.219 131.344 579.429 130.954 579.717 130.594C580.017 130.234 580.371 129.946 580.779 129.73C581.187 129.514 581.637 129.406 582.129 129.406C582.333 129.406 582.525 129.424 582.705 129.46C582.885 129.484 583.035 129.52 583.155 129.568L582.777 131.08C582.621 131.008 582.459 130.96 582.291 130.936C582.135 130.9 581.985 130.882 581.841 130.882C581.433 130.882 581.067 130.954 580.743 131.098C580.419 131.242 580.143 131.446 579.915 131.71C579.687 131.962 579.513 132.256 579.393 132.592C579.273 132.928 579.213 133.288 579.213 133.672V139H577.845ZM588.313 139.18C587.377 139.18 586.543 138.97 585.811 138.55C585.091 138.13 584.521 137.548 584.101 136.804C583.693 136.06 583.489 135.214 583.489 134.266C583.489 133.33 583.693 132.496 584.101 131.764C584.521 131.032 585.091 130.456 585.811 130.036C586.543 129.616 587.377 129.406 588.313 129.406C589.237 129.406 590.059 129.616 590.779 130.036C591.511 130.456 592.081 131.032 592.489 131.764C592.909 132.496 593.119 133.33 593.119 134.266C593.119 135.214 592.909 136.06 592.489 136.804C592.081 137.548 591.511 138.13 590.779 138.55C590.059 138.97 589.237 139.18 588.313 139.18ZM588.313 137.902C588.973 137.902 589.561 137.746 590.077 137.434C590.593 137.11 590.995 136.678 591.283 136.138C591.571 135.586 591.715 134.962 591.715 134.266C591.715 133.57 591.571 132.952 591.283 132.412C590.995 131.872 590.593 131.452 590.077 131.152C589.561 130.84 588.973 130.684 588.313 130.684C587.653 130.684 587.059 130.84 586.531 131.152C586.015 131.452 585.607 131.878 585.307 132.43C585.019 132.97 584.881 133.582 584.893 134.266C584.881 134.962 585.019 135.586 585.307 136.138C585.607 136.678 586.015 137.11 586.531 137.434C587.059 137.746 587.653 137.902 588.313 137.902ZM599.049 139.18C598.161 139.18 597.369 138.97 596.673 138.55C595.977 138.118 595.425 137.536 595.017 136.804C594.621 136.06 594.423 135.22 594.423 134.284C594.423 133.348 594.621 132.514 595.017 131.782C595.425 131.038 595.977 130.456 596.673 130.036C597.369 129.616 598.167 129.406 599.067 129.406C599.871 129.406 600.603 129.568 601.263 129.892C601.923 130.204 602.451 130.642 602.847 131.206L602.055 132.178C601.827 131.878 601.551 131.614 601.227 131.386C600.915 131.158 600.573 130.984 600.201 130.864C599.841 130.732 599.481 130.666 599.121 130.666C598.485 130.666 597.915 130.828 597.411 131.152C596.907 131.464 596.505 131.89 596.205 132.43C595.917 132.97 595.773 133.588 595.773 134.284C595.773 134.98 595.917 135.604 596.205 136.156C596.505 136.696 596.907 137.122 597.411 137.434C597.915 137.746 598.479 137.902 599.103 137.902C599.463 137.902 599.817 137.848 600.165 137.74C600.513 137.62 600.843 137.452 601.155 137.236C601.467 137.02 601.755 136.75 602.019 136.426L602.811 137.398C602.403 137.938 601.857 138.37 601.173 138.694C600.489 139.018 599.781 139.18 599.049 139.18ZM608.704 139.18C607.768 139.18 606.934 138.976 606.202 138.568C605.482 138.16 604.918 137.59 604.51 136.858C604.102 136.126 603.898 135.286 603.898 134.338C603.898 133.606 604.012 132.946 604.24 132.358C604.468 131.758 604.786 131.236 605.194 130.792C605.614 130.348 606.112 130.006 606.688 129.766C607.264 129.514 607.888 129.388 608.56 129.388C609.196 129.388 609.772 129.502 610.288 129.73C610.816 129.958 611.266 130.276 611.638 130.684C612.022 131.08 612.31 131.554 612.502 132.106C612.694 132.658 612.778 133.264 612.754 133.924L612.736 134.554H604.906L604.708 133.42H611.71L611.386 133.726V133.294C611.362 132.862 611.236 132.448 611.008 132.052C610.78 131.644 610.456 131.314 610.036 131.062C609.628 130.81 609.136 130.684 608.56 130.684C607.888 130.684 607.306 130.822 606.814 131.098C606.322 131.362 605.944 131.758 605.68 132.286C605.416 132.814 605.284 133.468 605.284 134.248C605.284 134.992 605.428 135.64 605.716 136.192C606.004 136.732 606.412 137.152 606.94 137.452C607.48 137.752 608.128 137.902 608.884 137.902C609.328 137.902 609.766 137.83 610.198 137.686C610.642 137.53 611.128 137.23 611.656 136.786L612.358 137.758C612.082 138.034 611.752 138.28 611.368 138.496C610.984 138.7 610.564 138.868 610.108 139C609.652 139.12 609.184 139.18 608.704 139.18ZM617.749 139.18C616.945 139.18 616.225 139.03 615.589 138.73C614.953 138.43 614.449 138.034 614.077 137.542L615.031 136.714C615.379 137.134 615.787 137.452 616.255 137.668C616.735 137.884 617.269 137.992 617.857 137.992C618.157 137.992 618.427 137.962 618.667 137.902C618.907 137.83 619.117 137.728 619.297 137.596C619.477 137.464 619.615 137.308 619.711 137.128C619.807 136.948 619.855 136.75 619.855 136.534C619.855 136.138 619.681 135.808 619.333 135.544C619.177 135.436 618.955 135.328 618.667 135.22C618.379 135.1 618.031 134.986 617.623 134.878C616.951 134.686 616.393 134.494 615.949 134.302C615.505 134.098 615.157 133.864 614.905 133.6C614.725 133.384 614.587 133.15 614.491 132.898C614.407 132.646 614.365 132.37 614.365 132.07C614.365 131.686 614.443 131.332 614.599 131.008C614.767 130.684 614.995 130.402 615.283 130.162C615.583 129.91 615.931 129.724 616.327 129.604C616.735 129.472 617.173 129.406 617.641 129.406C618.085 129.406 618.523 129.466 618.955 129.586C619.387 129.706 619.789 129.88 620.161 130.108C620.533 130.336 620.851 130.606 621.115 130.918L620.287 131.818C620.059 131.578 619.807 131.362 619.531 131.17C619.255 130.978 618.961 130.828 618.649 130.72C618.349 130.612 618.037 130.558 617.713 130.558C617.425 130.558 617.155 130.594 616.903 130.666C616.663 130.738 616.453 130.84 616.273 130.972C616.105 131.092 615.973 131.242 615.877 131.422C615.793 131.602 615.751 131.8 615.751 132.016C615.751 132.196 615.787 132.358 615.859 132.502C615.931 132.646 616.033 132.772 616.165 132.88C616.333 133.012 616.567 133.138 616.867 133.258C617.179 133.366 617.563 133.48 618.019 133.6C618.547 133.744 618.991 133.894 619.351 134.05C619.723 134.194 620.029 134.368 620.269 134.572C620.593 134.812 620.821 135.088 620.953 135.4C621.097 135.712 621.169 136.066 621.169 136.462C621.169 136.99 621.019 137.458 620.719 137.866C620.431 138.274 620.029 138.598 619.513 138.838C618.997 139.066 618.409 139.18 617.749 139.18ZM626.362 139.18C625.558 139.18 624.838 139.03 624.202 138.73C623.566 138.43 623.062 138.034 622.69 137.542L623.644 136.714C623.992 137.134 624.4 137.452 624.868 137.668C625.348 137.884 625.882 137.992 626.47 137.992C626.77 137.992 627.04 137.962 627.28 137.902C627.52 137.83 627.73 137.728 627.91 137.596C628.09 137.464 628.228 137.308 628.324 137.128C628.42 136.948 628.468 136.75 628.468 136.534C628.468 136.138 628.294 135.808 627.946 135.544C627.79 135.436 627.568 135.328 627.28 135.22C626.992 135.1 626.644 134.986 626.236 134.878C625.564 134.686 625.006 134.494 624.562 134.302C624.118 134.098 623.77 133.864 623.518 133.6C623.338 133.384 623.2 133.15 623.104 132.898C623.02 132.646 622.978 132.37 622.978 132.07C622.978 131.686 623.056 131.332 623.212 131.008C623.38 130.684 623.608 130.402 623.896 130.162C624.196 129.91 624.544 129.724 624.94 129.604C625.348 129.472 625.786 129.406 626.254 129.406C626.698 129.406 627.136 129.466 627.568 129.586C628 129.706 628.402 129.88 628.774 130.108C629.146 130.336 629.464 130.606 629.728 130.918L628.9 131.818C628.672 131.578 628.42 131.362 628.144 131.17C627.868 130.978 627.574 130.828 627.262 130.72C626.962 130.612 626.65 130.558 626.326 130.558C626.038 130.558 625.768 130.594 625.516 130.666C625.276 130.738 625.066 130.84 624.886 130.972C624.718 131.092 624.586 131.242 624.49 131.422C624.406 131.602 624.364 131.8 624.364 132.016C624.364 132.196 624.4 132.358 624.472 132.502C624.544 132.646 624.646 132.772 624.778 132.88C624.946 133.012 625.18 133.138 625.48 133.258C625.792 133.366 626.176 133.48 626.632 133.6C627.16 133.744 627.604 133.894 627.964 134.05C628.336 134.194 628.642 134.368 628.882 134.572C629.206 134.812 629.434 135.088 629.566 135.4C629.71 135.712 629.782 136.066 629.782 136.462C629.782 136.99 629.632 137.458 629.332 137.866C629.044 138.274 628.642 138.598 628.126 138.838C627.61 139.066 627.022 139.18 626.362 139.18ZM632.257 139V129.604H633.607V139H632.257ZM632.923 127.57C632.587 127.57 632.329 127.486 632.149 127.318C631.981 127.138 631.897 126.898 631.897 126.598C631.897 126.298 631.987 126.058 632.167 125.878C632.347 125.698 632.599 125.608 632.923 125.608C633.247 125.608 633.499 125.698 633.679 125.878C633.859 126.046 633.949 126.286 633.949 126.598C633.949 126.886 633.859 127.12 633.679 127.3C633.499 127.48 633.247 127.57 632.923 127.57ZM636.556 139V129.604H637.888L637.942 131.566L637.726 131.656C637.846 131.248 638.08 130.876 638.428 130.54C638.776 130.204 639.19 129.934 639.67 129.73C640.162 129.514 640.666 129.406 641.182 129.406C641.878 129.406 642.46 129.544 642.928 129.82C643.396 130.096 643.75 130.522 643.99 131.098C644.23 131.674 644.35 132.406 644.35 133.294V139H642.982V133.366C642.982 132.742 642.898 132.232 642.73 131.836C642.574 131.428 642.328 131.128 641.992 130.936C641.656 130.744 641.242 130.654 640.75 130.666C640.342 130.666 639.964 130.738 639.616 130.882C639.268 131.014 638.968 131.2 638.716 131.44C638.464 131.68 638.266 131.956 638.122 132.268C637.978 132.58 637.906 132.916 637.906 133.276V139H637.24C637.156 139 637.06 139 636.952 139C636.844 139 636.712 139 636.556 139ZM650.977 143.14C650.281 143.14 649.621 143.032 648.997 142.816C648.373 142.6 647.857 142.33 647.449 142.006L647.989 140.872C648.229 141.064 648.505 141.232 648.817 141.376C649.141 141.532 649.489 141.652 649.861 141.736C650.233 141.832 650.611 141.88 650.995 141.88C651.691 141.88 652.279 141.748 652.759 141.484C653.251 141.232 653.623 140.854 653.875 140.35C654.139 139.846 654.271 139.222 654.271 138.478V136.678L654.487 136.624C654.379 137.08 654.145 137.506 653.785 137.902C653.425 138.286 652.987 138.598 652.471 138.838C651.955 139.066 651.409 139.18 650.833 139.18C649.957 139.18 649.171 138.97 648.475 138.55C647.791 138.13 647.251 137.554 646.855 136.822C646.459 136.078 646.261 135.238 646.261 134.302C646.261 133.354 646.459 132.514 646.855 131.782C647.263 131.038 647.809 130.456 648.493 130.036C649.177 129.616 649.945 129.406 650.797 129.406C651.169 129.406 651.529 129.454 651.877 129.55C652.225 129.634 652.543 129.76 652.831 129.928C653.131 130.096 653.401 130.288 653.641 130.504C653.881 130.72 654.079 130.954 654.235 131.206C654.403 131.458 654.523 131.716 654.595 131.98L654.217 131.926L654.271 129.604H655.621V138.424C655.621 139.18 655.513 139.846 655.297 140.422C655.081 141.01 654.763 141.502 654.343 141.898C653.935 142.306 653.443 142.612 652.867 142.816C652.303 143.032 651.673 143.14 650.977 143.14ZM650.995 137.884C651.631 137.884 652.195 137.734 652.687 137.434C653.191 137.122 653.587 136.696 653.875 136.156C654.163 135.616 654.307 134.992 654.307 134.284C654.307 133.588 654.163 132.97 653.875 132.43C653.599 131.89 653.209 131.464 652.705 131.152C652.201 130.84 651.631 130.684 650.995 130.684C650.347 130.684 649.771 130.84 649.267 131.152C648.775 131.464 648.385 131.89 648.097 132.43C647.809 132.97 647.665 133.588 647.665 134.284C647.665 134.968 647.803 135.586 648.079 136.138C648.367 136.678 648.757 137.104 649.249 137.416C649.753 137.728 650.335 137.884 650.995 137.884Z" fill="#B3B3B3"/>
</svg>
