<svg width="748" height="147" viewBox="0 0 748 147" fill="none" xmlns="http://www.w3.org/2000/svg">
<path d="M5.916 65.5L22.562 28.728L23.954 31.57H3.19V24.784H28.768L29.638 29.018L13.746 65.5H5.916ZM47.4653 65.674C44.8746 65.674 42.4966 65.152 40.3313 64.108C38.2046 63.0253 36.5033 61.5947 35.2273 59.816C33.9513 57.9987 33.3133 55.988 33.3133 53.784C33.3133 52.4693 33.4873 51.2513 33.8353 50.13C34.222 49.0087 34.7633 48.0033 35.4593 47.114C36.194 46.2247 37.064 45.432 38.0693 44.736C39.1133 44.0013 40.2926 43.3633 41.6073 42.822L41.1433 44.446C40.138 44.0207 39.21 43.518 38.3593 42.938C37.5473 42.358 36.832 41.7007 36.2133 40.966C35.6333 40.1927 35.1886 39.3807 34.8793 38.53C34.57 37.6407 34.4153 36.7127 34.4153 35.746C34.4153 33.658 34.9953 31.7827 36.1553 30.12C37.354 28.4573 38.9393 27.1427 40.9113 26.176C42.8833 25.1707 45.068 24.668 47.4653 24.668C49.9013 24.668 52.1053 25.1707 54.0773 26.176C56.0493 27.1427 57.6153 28.4573 58.7753 30.12C59.974 31.7827 60.5733 33.658 60.5733 35.746C60.5733 36.7127 60.4186 37.6407 60.1093 38.53C59.8 39.3807 59.3553 40.1733 58.7753 40.908C58.234 41.604 57.538 42.2613 56.6873 42.88C55.8366 43.46 54.8506 43.982 53.7293 44.446L53.4393 43.054C54.6766 43.4793 55.798 44.04 56.8033 44.736C57.8086 45.432 58.6786 46.244 59.4133 47.172C60.148 48.1 60.7086 49.1247 61.0953 50.246C61.5206 51.3673 61.7333 52.5467 61.7333 53.784C61.7333 56.0267 61.0953 58.0567 59.8193 59.874C58.5433 61.6527 56.8226 63.064 54.6573 64.108C52.5306 65.152 50.1333 65.674 47.4653 65.674ZM47.4653 59.178C48.78 59.178 49.9593 58.9267 51.0033 58.424C52.0473 57.9213 52.8593 57.2447 53.4393 56.394C54.058 55.5433 54.3673 54.5573 54.3673 53.436C54.3673 52.2373 54.058 51.1933 53.4393 50.304C52.8593 49.376 52.0473 48.6607 51.0033 48.158C49.9593 47.6167 48.78 47.346 47.4653 47.346C46.1893 47.346 45.0293 47.6167 43.9853 48.158C42.98 48.6607 42.168 49.376 41.5493 50.304C40.9306 51.1933 40.6213 52.2373 40.6213 53.436C40.6213 54.5187 40.9306 55.4853 41.5493 56.336C42.168 57.1867 42.98 57.8827 43.9853 58.424C45.0293 58.9267 46.1893 59.178 47.4653 59.178ZM47.4653 40.966C48.6253 40.966 49.65 40.7533 50.5393 40.328C51.4673 39.9027 52.1826 39.3227 52.6853 38.588C53.188 37.8533 53.4393 37.0027 53.4393 36.036C53.4393 35.0307 53.188 34.1607 52.6853 33.426C52.1826 32.6527 51.4673 32.0533 50.5393 31.628C49.65 31.164 48.6253 30.932 47.4653 30.932C46.344 30.932 45.3193 31.164 44.3913 31.628C43.502 32.0533 42.806 32.6527 42.3033 33.426C41.8006 34.1607 41.5493 35.0307 41.5493 36.036C41.5493 37.0027 41.8006 37.8533 42.3033 38.588C42.806 39.3227 43.502 39.9027 44.3913 40.328C45.3193 40.7533 46.344 40.966 47.4653 40.966ZM72.8657 65.5L99.7197 24.9H106.622L79.4777 65.5H72.8657ZM76.1717 46.418C74.3543 46.418 72.7303 45.9347 71.2997 44.968C69.9077 44.0013 68.8057 42.6867 67.9937 41.024C67.2203 39.3613 66.8337 37.4667 66.8337 35.34C66.8337 33.1747 67.2203 31.2607 67.9937 29.598C68.8057 27.8967 69.9077 26.5627 71.2997 25.596C72.7303 24.6293 74.3737 24.146 76.2297 24.146C78.047 24.146 79.6517 24.6293 81.0437 25.596C82.4743 26.5627 83.5763 27.8967 84.3497 29.598C85.1617 31.2607 85.5677 33.1747 85.5677 35.34C85.5677 37.428 85.1617 39.3227 84.3497 41.024C83.5377 42.6867 82.4163 44.0013 80.9857 44.968C79.555 45.9347 77.9503 46.418 76.1717 46.418ZM76.2297 41.488C76.9643 41.488 77.6023 41.2367 78.1437 40.734C78.685 40.2313 79.1103 39.5353 79.4197 38.646C79.729 37.718 79.8837 36.616 79.8837 35.34C79.8837 34.064 79.729 32.962 79.4197 32.034C79.1103 31.106 78.685 30.3907 78.1437 29.888C77.6023 29.3853 76.945 29.134 76.1717 29.134C75.437 29.134 74.7797 29.4047 74.1997 29.946C73.6583 30.4487 73.233 31.164 72.9237 32.092C72.6143 32.9813 72.4597 34.064 72.4597 35.34C72.4597 36.616 72.595 37.718 72.8657 38.646C73.175 39.5353 73.6197 40.2313 74.1997 40.734C74.7797 41.2367 75.4563 41.488 76.2297 41.488ZM103.722 66.022C101.904 66.022 100.28 65.5387 98.8497 64.572C97.4577 63.6053 96.3557 62.2907 95.5437 60.628C94.7317 58.9653 94.3257 57.0707 94.3257 54.944C94.3257 52.7787 94.7123 50.8647 95.4857 49.202C96.2977 47.5007 97.419 46.1667 98.8497 45.2C100.28 44.2333 101.904 43.75 103.722 43.75C105.578 43.75 107.202 44.2333 108.594 45.2C109.986 46.1667 111.068 47.5007 111.842 49.202C112.654 50.8647 113.06 52.7787 113.06 54.944C113.06 57.032 112.654 58.9267 111.842 60.628C111.03 62.2907 109.908 63.6053 108.478 64.572C107.086 65.5387 105.5 66.022 103.722 66.022ZM103.722 61.15C104.456 61.15 105.094 60.8987 105.636 60.396C106.216 59.8547 106.66 59.1393 106.97 58.25C107.279 57.322 107.434 56.22 107.434 54.944C107.434 53.7067 107.279 52.624 106.97 51.696C106.66 50.768 106.216 50.0527 105.636 49.55C105.094 49.0087 104.456 48.738 103.722 48.738C102.948 48.738 102.272 48.9893 101.692 49.492C101.15 49.9947 100.725 50.7293 100.416 51.696C100.106 52.624 99.9517 53.7067 99.9517 54.944C99.9517 56.22 100.106 57.322 100.416 58.25C100.725 59.1393 101.15 59.8547 101.692 60.396C102.272 60.8987 102.948 61.15 103.722 61.15Z" fill="#CAFF33"/>
<path d="M5.526 112.68C4.89 112.68 4.29 112.59 3.726 112.41C3.162 112.23 2.646 111.96 2.178 111.6C1.71 111.24 1.296 110.796 0.936 110.268L1.908 109.188C2.472 109.992 3.048 110.556 3.636 110.88C4.236 111.204 4.908 111.366 5.652 111.366C6.192 111.366 6.684 111.276 7.128 111.096C7.572 110.916 7.92 110.664 8.172 110.34C8.424 110.016 8.55 109.644 8.55 109.224C8.55 108.948 8.502 108.702 8.406 108.486C8.322 108.27 8.19 108.078 8.01 107.91C7.83 107.742 7.608 107.592 7.344 107.46C7.08 107.328 6.774 107.208 6.426 107.1C6.09 106.992 5.712 106.884 5.292 106.776C4.68 106.632 4.14 106.464 3.672 106.272C3.216 106.068 2.826 105.822 2.502 105.534C2.19 105.246 1.95 104.916 1.782 104.544C1.626 104.16 1.548 103.71 1.548 103.194C1.548 102.702 1.65 102.246 1.854 101.826C2.07 101.406 2.364 101.046 2.736 100.746C3.108 100.434 3.546 100.194 4.05 100.026C4.554 99.858 5.094 99.774 5.67 99.774C6.318 99.774 6.894 99.864 7.398 100.044C7.914 100.212 8.37 100.464 8.766 100.8C9.162 101.136 9.504 101.538 9.792 102.006L8.802 102.978C8.55 102.582 8.262 102.24 7.938 101.952C7.626 101.664 7.278 101.448 6.894 101.304C6.522 101.148 6.108 101.07 5.652 101.07C5.124 101.07 4.656 101.16 4.248 101.34C3.852 101.52 3.54 101.772 3.312 102.096C3.084 102.408 2.97 102.768 2.97 103.176C2.97 103.476 3.024 103.746 3.132 103.986C3.24 104.214 3.408 104.418 3.636 104.598C3.876 104.766 4.182 104.922 4.554 105.066C4.938 105.198 5.394 105.324 5.922 105.444C6.546 105.588 7.104 105.762 7.596 105.966C8.1 106.17 8.526 106.416 8.874 106.704C9.234 106.98 9.504 107.304 9.684 107.676C9.876 108.048 9.972 108.474 9.972 108.954C9.972 109.698 9.786 110.352 9.414 110.916C9.042 111.468 8.52 111.9 7.848 112.212C7.188 112.524 6.414 112.68 5.526 112.68ZM16.4052 112.68C15.4692 112.68 14.6352 112.476 13.9032 112.068C13.1832 111.66 12.6192 111.09 12.2112 110.358C11.8032 109.626 11.5992 108.786 11.5992 107.838C11.5992 107.106 11.7132 106.446 11.9412 105.858C12.1692 105.258 12.4872 104.736 12.8952 104.292C13.3152 103.848 13.8132 103.506 14.3892 103.266C14.9652 103.014 15.5892 102.888 16.2612 102.888C16.8972 102.888 17.4732 103.002 17.9892 103.23C18.5172 103.458 18.9672 103.776 19.3392 104.184C19.7232 104.58 20.0112 105.054 20.2032 105.606C20.3952 106.158 20.4792 106.764 20.4552 107.424L20.4372 108.054H12.6072L12.4092 106.92H19.4112L19.0872 107.226V106.794C19.0632 106.362 18.9372 105.948 18.7092 105.552C18.4812 105.144 18.1572 104.814 17.7372 104.562C17.3292 104.31 16.8372 104.184 16.2612 104.184C15.5892 104.184 15.0072 104.322 14.5152 104.598C14.0232 104.862 13.6452 105.258 13.3812 105.786C13.1172 106.314 12.9852 106.968 12.9852 107.748C12.9852 108.492 13.1292 109.14 13.4172 109.692C13.7052 110.232 14.1132 110.652 14.6412 110.952C15.1812 111.252 15.8292 111.402 16.5852 111.402C17.0292 111.402 17.4672 111.33 17.8992 111.186C18.3432 111.03 18.8292 110.73 19.3572 110.286L20.0592 111.258C19.7832 111.534 19.4532 111.78 19.0692 111.996C18.6852 112.2 18.2652 112.368 17.8092 112.5C17.3532 112.62 16.8852 112.68 16.4052 112.68ZM26.3326 112.68C25.4446 112.68 24.6526 112.47 23.9566 112.05C23.2606 111.618 22.7086 111.036 22.3006 110.304C21.9046 109.56 21.7066 108.72 21.7066 107.784C21.7066 106.848 21.9046 106.014 22.3006 105.282C22.7086 104.538 23.2606 103.956 23.9566 103.536C24.6526 103.116 25.4506 102.906 26.3506 102.906C27.1546 102.906 27.8866 103.068 28.5466 103.392C29.2066 103.704 29.7346 104.142 30.1306 104.706L29.3386 105.678C29.1106 105.378 28.8346 105.114 28.5106 104.886C28.1986 104.658 27.8566 104.484 27.4846 104.364C27.1246 104.232 26.7646 104.166 26.4046 104.166C25.7686 104.166 25.1986 104.328 24.6946 104.652C24.1906 104.964 23.7886 105.39 23.4886 105.93C23.2006 106.47 23.0566 107.088 23.0566 107.784C23.0566 108.48 23.2006 109.104 23.4886 109.656C23.7886 110.196 24.1906 110.622 24.6946 110.934C25.1986 111.246 25.7626 111.402 26.3866 111.402C26.7466 111.402 27.1006 111.348 27.4486 111.24C27.7966 111.12 28.1266 110.952 28.4386 110.736C28.7506 110.52 29.0386 110.25 29.3026 109.926L30.0946 110.898C29.6866 111.438 29.1406 111.87 28.4566 112.194C27.7726 112.518 27.0646 112.68 26.3326 112.68ZM35.1772 112.68C34.4572 112.68 33.8452 112.536 33.3412 112.248C32.8492 111.948 32.4712 111.516 32.2072 110.952C31.9552 110.388 31.8292 109.686 31.8292 108.846V103.104H33.1972V108.576C33.1972 109.212 33.2812 109.746 33.4492 110.178C33.6292 110.598 33.8932 110.916 34.2412 111.132C34.6012 111.348 35.0392 111.456 35.5552 111.456C35.9512 111.456 36.3172 111.39 36.6532 111.258C36.9892 111.114 37.2832 110.922 37.5352 110.682C37.7872 110.442 37.9852 110.16 38.1292 109.836C38.2732 109.512 38.3452 109.17 38.3452 108.81V103.104H39.6952V112.5H38.3632L38.3092 110.52L38.5252 110.412C38.3812 110.832 38.1412 111.216 37.8052 111.564C37.4692 111.9 37.0672 112.17 36.5992 112.374C36.1432 112.578 35.6692 112.68 35.1772 112.68ZM42.3238 112.5V103.104H43.6738L43.7098 105.606L43.5658 105.264C43.6978 104.844 43.9078 104.454 44.1958 104.094C44.4958 103.734 44.8498 103.446 45.2578 103.23C45.6658 103.014 46.1158 102.906 46.6078 102.906C46.8118 102.906 47.0038 102.924 47.1838 102.96C47.3638 102.984 47.5138 103.02 47.6338 103.068L47.2558 104.58C47.0998 104.508 46.9378 104.46 46.7698 104.436C46.6138 104.4 46.4638 104.382 46.3198 104.382C45.9118 104.382 45.5458 104.454 45.2218 104.598C44.8978 104.742 44.6218 104.946 44.3938 105.21C44.1658 105.462 43.9918 105.756 43.8718 106.092C43.7518 106.428 43.6918 106.788 43.6918 107.172V112.5H42.3238ZM52.7743 112.68C51.8383 112.68 51.0043 112.476 50.2723 112.068C49.5523 111.66 48.9883 111.09 48.5803 110.358C48.1723 109.626 47.9683 108.786 47.9683 107.838C47.9683 107.106 48.0823 106.446 48.3103 105.858C48.5383 105.258 48.8563 104.736 49.2643 104.292C49.6843 103.848 50.1823 103.506 50.7583 103.266C51.3343 103.014 51.9583 102.888 52.6303 102.888C53.2663 102.888 53.8423 103.002 54.3583 103.23C54.8863 103.458 55.3363 103.776 55.7083 104.184C56.0923 104.58 56.3803 105.054 56.5723 105.606C56.7643 106.158 56.8483 106.764 56.8243 107.424L56.8063 108.054H48.9763L48.7783 106.92H55.7803L55.4563 107.226V106.794C55.4323 106.362 55.3063 105.948 55.0783 105.552C54.8503 105.144 54.5263 104.814 54.1063 104.562C53.6983 104.31 53.2063 104.184 52.6303 104.184C51.9583 104.184 51.3763 104.322 50.8843 104.598C50.3923 104.862 50.0143 105.258 49.7503 105.786C49.4863 106.314 49.3543 106.968 49.3543 107.748C49.3543 108.492 49.4983 109.14 49.7863 109.692C50.0743 110.232 50.4823 110.652 51.0103 110.952C51.5503 111.252 52.1983 111.402 52.9543 111.402C53.3983 111.402 53.8363 111.33 54.2683 111.186C54.7123 111.03 55.1983 110.73 55.7263 110.286L56.4283 111.258C56.1523 111.534 55.8223 111.78 55.4383 111.996C55.0543 112.2 54.6343 112.368 54.1783 112.5C53.7223 112.62 53.2543 112.68 52.7743 112.68ZM64.3267 112.5V99.9H69.2587C69.9907 99.9 70.6507 100.074 71.2387 100.422C71.8387 100.758 72.3127 101.22 72.6607 101.808C73.0087 102.396 73.1827 103.062 73.1827 103.806C73.1827 104.502 73.0147 105.132 72.6787 105.696C72.3427 106.26 71.8867 106.71 71.3107 107.046C70.7347 107.37 70.0867 107.532 69.3667 107.532H65.7307V112.5H64.3267ZM72.0127 112.5L68.8447 106.956L70.1947 106.488L73.6867 112.5H72.0127ZM65.7307 106.164H69.4927C69.9367 106.164 70.3267 106.062 70.6627 105.858C70.9987 105.654 71.2627 105.378 71.4547 105.03C71.6467 104.67 71.7427 104.262 71.7427 103.806C71.7427 103.314 71.6287 102.876 71.4007 102.492C71.1727 102.108 70.8547 101.808 70.4467 101.592C70.0507 101.376 69.5947 101.268 69.0787 101.268H65.7307V106.164ZM79.4579 112.68C78.5219 112.68 77.6879 112.476 76.9559 112.068C76.2359 111.66 75.6719 111.09 75.2639 110.358C74.8559 109.626 74.6519 108.786 74.6519 107.838C74.6519 107.106 74.7659 106.446 74.9939 105.858C75.2219 105.258 75.5399 104.736 75.9479 104.292C76.3679 103.848 76.8659 103.506 77.4419 103.266C78.0179 103.014 78.6419 102.888 79.3139 102.888C79.9499 102.888 80.5259 103.002 81.0419 103.23C81.5699 103.458 82.0199 103.776 82.3919 104.184C82.7759 104.58 83.0639 105.054 83.2559 105.606C83.4479 106.158 83.5319 106.764 83.5079 107.424L83.4899 108.054H75.6599L75.4619 106.92H82.4639L82.1399 107.226V106.794C82.1159 106.362 81.9899 105.948 81.7619 105.552C81.5339 105.144 81.2099 104.814 80.7899 104.562C80.3819 104.31 79.8899 104.184 79.3139 104.184C78.6419 104.184 78.0599 104.322 77.5679 104.598C77.0759 104.862 76.6979 105.258 76.4339 105.786C76.1699 106.314 76.0379 106.968 76.0379 107.748C76.0379 108.492 76.1819 109.14 76.4699 109.692C76.7579 110.232 77.1659 110.652 77.6939 110.952C78.2339 111.252 78.8819 111.402 79.6379 111.402C80.0819 111.402 80.5199 111.33 80.9519 111.186C81.3959 111.03 81.8819 110.73 82.4099 110.286L83.1119 111.258C82.8359 111.534 82.5059 111.78 82.1219 111.996C81.7379 112.2 81.3179 112.368 80.8619 112.5C80.4059 112.62 79.9379 112.68 79.4579 112.68ZM86.7213 112.5V100.638H88.0713V112.5H86.7213ZM84.5973 104.4V103.104H90.4473V104.4H84.5973ZM92.465 112.5V103.104H93.815V112.5H92.465ZM93.131 101.07C92.795 101.07 92.537 100.986 92.357 100.818C92.189 100.638 92.105 100.398 92.105 100.098C92.105 99.798 92.195 99.558 92.375 99.378C92.555 99.198 92.807 99.108 93.131 99.108C93.455 99.108 93.707 99.198 93.887 99.378C94.067 99.546 94.157 99.786 94.157 100.098C94.157 100.386 94.067 100.62 93.887 100.8C93.707 100.98 93.455 101.07 93.131 101.07ZM96.7632 112.5V103.104H98.1132L98.1492 105.606L98.0052 105.264C98.1372 104.844 98.3472 104.454 98.6352 104.094C98.9352 103.734 99.2892 103.446 99.6972 103.23C100.105 103.014 100.555 102.906 101.047 102.906C101.251 102.906 101.443 102.924 101.623 102.96C101.803 102.984 101.953 103.02 102.073 103.068L101.695 104.58C101.539 104.508 101.377 104.46 101.209 104.436C101.053 104.4 100.903 104.382 100.759 104.382C100.351 104.382 99.9852 104.454 99.6612 104.598C99.3372 104.742 99.0612 104.946 98.8332 105.21C98.6052 105.462 98.4312 105.756 98.3112 106.092C98.1912 106.428 98.1312 106.788 98.1312 107.172V112.5H96.7632ZM107.214 112.68C106.278 112.68 105.444 112.476 104.712 112.068C103.992 111.66 103.428 111.09 103.02 110.358C102.612 109.626 102.408 108.786 102.408 107.838C102.408 107.106 102.522 106.446 102.75 105.858C102.978 105.258 103.296 104.736 103.704 104.292C104.124 103.848 104.622 103.506 105.198 103.266C105.774 103.014 106.398 102.888 107.07 102.888C107.706 102.888 108.282 103.002 108.798 103.23C109.326 103.458 109.776 103.776 110.148 104.184C110.532 104.58 110.82 105.054 111.012 105.606C111.204 106.158 111.288 106.764 111.264 107.424L111.246 108.054H103.416L103.218 106.92H110.22L109.896 107.226V106.794C109.872 106.362 109.746 105.948 109.518 105.552C109.29 105.144 108.966 104.814 108.546 104.562C108.138 104.31 107.646 104.184 107.07 104.184C106.398 104.184 105.816 104.322 105.324 104.598C104.832 104.862 104.454 105.258 104.19 105.786C103.926 106.314 103.794 106.968 103.794 107.748C103.794 108.492 103.938 109.14 104.226 109.692C104.514 110.232 104.922 110.652 105.45 110.952C105.99 111.252 106.638 111.402 107.394 111.402C107.838 111.402 108.276 111.33 108.708 111.186C109.152 111.03 109.638 110.73 110.166 110.286L110.868 111.258C110.592 111.534 110.262 111.78 109.878 111.996C109.494 112.2 109.074 112.368 108.618 112.5C108.162 112.62 107.694 112.68 107.214 112.68ZM113.163 112.5V103.104H114.513L114.549 105.246L114.279 105.336C114.375 104.976 114.531 104.652 114.747 104.364C114.975 104.064 115.245 103.806 115.557 103.59C115.869 103.374 116.211 103.212 116.583 103.104C116.955 102.984 117.345 102.924 117.753 102.924C118.245 102.924 118.683 103.008 119.067 103.176C119.463 103.332 119.793 103.608 120.057 104.004C120.333 104.388 120.543 104.898 120.687 105.534L120.363 105.372L120.489 105.066C120.609 104.79 120.783 104.526 121.011 104.274C121.251 104.01 121.521 103.776 121.821 103.572C122.133 103.368 122.469 103.212 122.829 103.104C123.201 102.984 123.579 102.924 123.963 102.924C124.623 102.924 125.181 103.068 125.637 103.356C126.093 103.632 126.435 104.058 126.663 104.634C126.903 105.21 127.023 105.942 127.023 106.83V112.5H125.637V106.902C125.637 106.278 125.559 105.768 125.403 105.372C125.247 104.976 125.013 104.682 124.701 104.49C124.401 104.286 124.017 104.184 123.549 104.184C123.141 104.184 122.763 104.256 122.415 104.4C122.079 104.532 121.785 104.724 121.533 104.976C121.293 105.216 121.101 105.492 120.957 105.804C120.825 106.116 120.759 106.452 120.759 106.812V112.5H119.391V106.884C119.391 106.284 119.307 105.786 119.139 105.39C118.983 104.994 118.749 104.694 118.437 104.49C118.125 104.286 117.741 104.184 117.285 104.184C116.889 104.184 116.523 104.256 116.187 104.4C115.851 104.532 115.557 104.718 115.305 104.958C115.065 105.198 114.873 105.474 114.729 105.786C114.597 106.098 114.531 106.434 114.531 106.794V112.5H113.163ZM133.722 112.68C132.786 112.68 131.952 112.476 131.22 112.068C130.5 111.66 129.936 111.09 129.528 110.358C129.12 109.626 128.916 108.786 128.916 107.838C128.916 107.106 129.03 106.446 129.258 105.858C129.486 105.258 129.804 104.736 130.212 104.292C130.632 103.848 131.13 103.506 131.706 103.266C132.282 103.014 132.906 102.888 133.578 102.888C134.214 102.888 134.79 103.002 135.306 103.23C135.834 103.458 136.284 103.776 136.656 104.184C137.04 104.58 137.328 105.054 137.52 105.606C137.712 106.158 137.796 106.764 137.772 107.424L137.754 108.054H129.924L129.726 106.92H136.728L136.404 107.226V106.794C136.38 106.362 136.254 105.948 136.026 105.552C135.798 105.144 135.474 104.814 135.054 104.562C134.646 104.31 134.154 104.184 133.578 104.184C132.906 104.184 132.324 104.322 131.832 104.598C131.34 104.862 130.962 105.258 130.698 105.786C130.434 106.314 130.302 106.968 130.302 107.748C130.302 108.492 130.446 109.14 130.734 109.692C131.022 110.232 131.43 110.652 131.958 110.952C132.498 111.252 133.146 111.402 133.902 111.402C134.346 111.402 134.784 111.33 135.216 111.186C135.66 111.03 136.146 110.73 136.674 110.286L137.376 111.258C137.1 111.534 136.77 111.78 136.386 111.996C136.002 112.2 135.582 112.368 135.126 112.5C134.67 112.62 134.202 112.68 133.722 112.68ZM139.689 112.5V103.104H141.021L141.075 105.066L140.859 105.156C140.979 104.748 141.213 104.376 141.561 104.04C141.909 103.704 142.323 103.434 142.803 103.23C143.295 103.014 143.799 102.906 144.315 102.906C145.011 102.906 145.593 103.044 146.061 103.32C146.529 103.596 146.883 104.022 147.123 104.598C147.363 105.174 147.483 105.906 147.483 106.794V112.5H146.115V106.866C146.115 106.242 146.031 105.732 145.863 105.336C145.707 104.928 145.461 104.628 145.125 104.436C144.789 104.244 144.375 104.154 143.883 104.166C143.475 104.166 143.097 104.238 142.749 104.382C142.401 104.514 142.101 104.7 141.849 104.94C141.597 105.18 141.399 105.456 141.255 105.768C141.111 106.08 141.039 106.416 141.039 106.776V112.5H140.373C140.289 112.5 140.193 112.5 140.085 112.5C139.977 112.5 139.845 112.5 139.689 112.5ZM151.356 112.5V100.638H152.706V112.5H151.356ZM149.232 104.4V103.104H155.082V104.4H149.232ZM1.854 139.5V126.9H6.84C7.5 126.9 8.094 127.062 8.622 127.386C9.15 127.71 9.57 128.16 9.882 128.736C10.194 129.3 10.35 129.936 10.35 130.644C10.35 131.388 10.194 132.054 9.882 132.642C9.57 133.218 9.15 133.68 8.622 134.028C8.094 134.364 7.5 134.532 6.84 134.532H3.258V139.5H1.854ZM3.258 133.164H6.912C7.284 133.164 7.614 133.056 7.902 132.84C8.202 132.612 8.442 132.312 8.622 131.94C8.802 131.556 8.892 131.118 8.892 130.626C8.892 130.182 8.802 129.786 8.622 129.438C8.442 129.078 8.202 128.796 7.902 128.592C7.614 128.376 7.284 128.268 6.912 128.268H3.258V133.164ZM12.5473 139.5V126.18H13.8973V139.5H12.5473ZM20.0505 139.68C19.2345 139.68 18.4965 139.47 17.8365 139.05C17.1765 138.618 16.6545 138.036 16.2705 137.304C15.8865 136.56 15.6945 135.72 15.6945 134.784C15.6945 133.836 15.8925 132.996 16.2885 132.264C16.6845 131.532 17.2125 130.956 17.8725 130.536C18.5445 130.116 19.2945 129.906 20.1225 129.906C20.6145 129.906 21.0705 129.978 21.4905 130.122C21.9105 130.266 22.2825 130.47 22.6065 130.734C22.9425 130.986 23.2185 131.286 23.4345 131.634C23.6625 131.97 23.8185 132.336 23.9025 132.732L23.5065 132.534L23.5605 130.104H24.9105V139.5H23.5425V137.196L23.9025 136.962C23.8185 137.322 23.6565 137.67 23.4165 138.006C23.1765 138.33 22.8825 138.618 22.5345 138.87C22.1985 139.122 21.8145 139.32 21.3825 139.464C20.9625 139.608 20.5185 139.68 20.0505 139.68ZM20.3565 138.384C20.9805 138.384 21.5385 138.234 22.0305 137.934C22.5225 137.622 22.9065 137.196 23.1825 136.656C23.4705 136.104 23.6145 135.48 23.6145 134.784C23.6145 134.088 23.4705 133.47 23.1825 132.93C22.9065 132.39 22.5225 131.964 22.0305 131.652C21.5385 131.34 20.9805 131.184 20.3565 131.184C19.7205 131.184 19.1565 131.34 18.6645 131.652C18.1845 131.964 17.8005 132.39 17.5125 132.93C17.2365 133.47 17.0985 134.088 17.0985 134.784C17.0985 135.468 17.2365 136.086 17.5125 136.638C17.7885 137.178 18.1725 137.604 18.6645 137.916C19.1565 138.228 19.7205 138.384 20.3565 138.384ZM27.5406 139.5V130.104H28.8726L28.9266 132.066L28.7106 132.156C28.8306 131.748 29.0646 131.376 29.4126 131.04C29.7606 130.704 30.1746 130.434 30.6546 130.23C31.1466 130.014 31.6506 129.906 32.1666 129.906C32.8626 129.906 33.4446 130.044 33.9126 130.32C34.3806 130.596 34.7346 131.022 34.9746 131.598C35.2146 132.174 35.3346 132.906 35.3346 133.794V139.5H33.9666V133.866C33.9666 133.242 33.8826 132.732 33.7146 132.336C33.5586 131.928 33.3126 131.628 32.9766 131.436C32.6406 131.244 32.2266 131.154 31.7346 131.166C31.3266 131.166 30.9486 131.238 30.6006 131.382C30.2526 131.514 29.9526 131.7 29.7006 131.94C29.4486 132.18 29.2506 132.456 29.1066 132.768C28.9626 133.08 28.8906 133.416 28.8906 133.776V139.5H28.2246C28.1406 139.5 28.0446 139.5 27.9366 139.5C27.8286 139.5 27.6966 139.5 27.5406 139.5ZM37.9117 139.5V130.104H39.2437L39.2977 132.066L39.0817 132.156C39.2017 131.748 39.4357 131.376 39.7837 131.04C40.1317 130.704 40.5457 130.434 41.0257 130.23C41.5177 130.014 42.0217 129.906 42.5377 129.906C43.2337 129.906 43.8157 130.044 44.2837 130.32C44.7517 130.596 45.1057 131.022 45.3457 131.598C45.5857 132.174 45.7057 132.906 45.7057 133.794V139.5H44.3377V133.866C44.3377 133.242 44.2537 132.732 44.0857 132.336C43.9297 131.928 43.6837 131.628 43.3477 131.436C43.0117 131.244 42.5977 131.154 42.1057 131.166C41.6977 131.166 41.3197 131.238 40.9717 131.382C40.6237 131.514 40.3237 131.7 40.0717 131.94C39.8197 132.18 39.6217 132.456 39.4777 132.768C39.3337 133.08 39.2617 133.416 39.2617 133.776V139.5H38.5957C38.5117 139.5 38.4157 139.5 38.3077 139.5C38.1997 139.5 38.0677 139.5 37.9117 139.5ZM48.6428 139.5V130.104H49.9928V139.5H48.6428ZM49.3088 128.07C48.9728 128.07 48.7148 127.986 48.5348 127.818C48.3668 127.638 48.2828 127.398 48.2828 127.098C48.2828 126.798 48.3728 126.558 48.5528 126.378C48.7328 126.198 48.9848 126.108 49.3088 126.108C49.6328 126.108 49.8848 126.198 50.0648 126.378C50.2448 126.546 50.3348 126.786 50.3348 127.098C50.3348 127.386 50.2448 127.62 50.0648 127.8C49.8848 127.98 49.6328 128.07 49.3088 128.07ZM52.941 139.5V130.104H54.273L54.327 132.066L54.111 132.156C54.231 131.748 54.465 131.376 54.813 131.04C55.161 130.704 55.575 130.434 56.055 130.23C56.547 130.014 57.051 129.906 57.567 129.906C58.263 129.906 58.845 130.044 59.313 130.32C59.781 130.596 60.135 131.022 60.375 131.598C60.615 132.174 60.735 132.906 60.735 133.794V139.5H59.367V133.866C59.367 133.242 59.283 132.732 59.115 132.336C58.959 131.928 58.713 131.628 58.377 131.436C58.041 131.244 57.627 131.154 57.135 131.166C56.727 131.166 56.349 131.238 56.001 131.382C55.653 131.514 55.353 131.7 55.101 131.94C54.849 132.18 54.651 132.456 54.507 132.768C54.363 133.08 54.291 133.416 54.291 133.776V139.5H53.625C53.541 139.5 53.445 139.5 53.337 139.5C53.229 139.5 53.097 139.5 52.941 139.5ZM67.362 143.64C66.666 143.64 66.006 143.532 65.382 143.316C64.758 143.1 64.242 142.83 63.834 142.506L64.374 141.372C64.614 141.564 64.89 141.732 65.202 141.876C65.526 142.032 65.874 142.152 66.246 142.236C66.618 142.332 66.996 142.38 67.38 142.38C68.076 142.38 68.664 142.248 69.144 141.984C69.636 141.732 70.008 141.354 70.26 140.85C70.524 140.346 70.656 139.722 70.656 138.978V137.178L70.872 137.124C70.764 137.58 70.53 138.006 70.17 138.402C69.81 138.786 69.372 139.098 68.856 139.338C68.34 139.566 67.794 139.68 67.218 139.68C66.342 139.68 65.556 139.47 64.86 139.05C64.176 138.63 63.636 138.054 63.24 137.322C62.844 136.578 62.646 135.738 62.646 134.802C62.646 133.854 62.844 133.014 63.24 132.282C63.648 131.538 64.194 130.956 64.878 130.536C65.562 130.116 66.33 129.906 67.182 129.906C67.554 129.906 67.914 129.954 68.262 130.05C68.61 130.134 68.928 130.26 69.216 130.428C69.516 130.596 69.786 130.788 70.026 131.004C70.266 131.22 70.464 131.454 70.62 131.706C70.788 131.958 70.908 132.216 70.98 132.48L70.602 132.426L70.656 130.104H72.006V138.924C72.006 139.68 71.898 140.346 71.682 140.922C71.466 141.51 71.148 142.002 70.728 142.398C70.32 142.806 69.828 143.112 69.252 143.316C68.688 143.532 68.058 143.64 67.362 143.64ZM67.38 138.384C68.016 138.384 68.58 138.234 69.072 137.934C69.576 137.622 69.972 137.196 70.26 136.656C70.548 136.116 70.692 135.492 70.692 134.784C70.692 134.088 70.548 133.47 70.26 132.93C69.984 132.39 69.594 131.964 69.09 131.652C68.586 131.34 68.016 131.184 67.38 131.184C66.732 131.184 66.156 131.34 65.652 131.652C65.16 131.964 64.77 132.39 64.482 132.93C64.194 133.47 64.05 134.088 64.05 134.784C64.05 135.468 64.188 136.086 64.464 136.638C64.752 137.178 65.142 137.604 65.634 137.916C66.138 138.228 66.72 138.384 67.38 138.384Z" fill="#B3B3B3"/>
<line x1="233.167" y1="0.5" x2="233.167" y2="146.5" stroke="#262626" stroke-dasharray="10 10"/>
<path d="M299.313 65.5C297.263 65.5 295.349 65.1327 293.571 64.398C291.831 63.6633 290.303 62.658 288.989 61.382C287.713 60.0673 286.707 58.54 285.973 56.8C285.238 55.06 284.871 53.146 284.871 51.058C284.871 49.898 285.006 48.6607 285.277 47.346C285.586 46.0313 286.031 44.6393 286.611 43.17C287.229 41.662 287.945 40.096 288.757 38.472C289.569 36.848 290.516 35.1467 291.599 33.368L296.993 24.204H304.185L304.417 24.784L297.515 36.152C296.393 38.008 295.407 39.7673 294.557 41.43C293.706 43.054 292.971 44.62 292.353 46.128C291.773 47.5973 291.289 49.028 290.903 50.42L289.337 45.142C289.917 43.9047 290.632 42.7833 291.483 41.778C292.333 40.7727 293.281 39.922 294.325 39.226C295.369 38.53 296.451 38.008 297.573 37.66C298.733 37.312 299.912 37.138 301.111 37.138C303.353 37.138 305.422 37.7567 307.317 38.994C309.211 40.1927 310.719 41.7973 311.841 43.808C313.001 45.8187 313.581 48.0227 313.581 50.42C313.581 53.32 312.962 55.9107 311.725 58.192C310.526 60.4347 308.844 62.2133 306.679 63.528C304.513 64.8427 302.058 65.5 299.313 65.5ZM299.371 58.888C300.763 58.888 302 58.5593 303.083 57.902C304.204 57.2447 305.074 56.336 305.693 55.176C306.311 53.9773 306.621 52.6047 306.621 51.058C306.621 49.7433 306.292 48.5253 305.635 47.404C305.016 46.244 304.165 45.316 303.083 44.62C302 43.8853 300.782 43.518 299.429 43.518C297.959 43.518 296.645 43.866 295.485 44.562C294.363 45.2193 293.474 46.128 292.817 47.288C292.198 48.4093 291.889 49.666 291.889 51.058C291.889 52.5273 292.198 53.8613 292.817 55.06C293.474 56.22 294.363 57.148 295.485 57.844C296.606 58.54 297.901 58.888 299.371 58.888ZM330.773 66.08C327.757 66.08 325.128 65.4227 322.885 64.108C320.643 62.7547 318.574 60.4733 316.679 57.264L322.363 53.668C323.253 55.0987 324.161 56.2587 325.089 57.148C326.056 57.9987 327.023 58.6367 327.989 59.062C328.995 59.4487 330.058 59.642 331.179 59.642C332.455 59.642 333.615 59.3327 334.659 58.714C335.742 58.0953 336.593 57.2447 337.211 56.162C337.869 55.0793 338.197 53.842 338.197 52.45C338.197 51.058 337.927 49.8787 337.385 48.912C336.883 47.9453 336.129 47.2107 335.123 46.708C334.157 46.1667 332.977 45.896 331.585 45.896C330.967 45.896 330.309 45.9733 329.613 46.128C328.917 46.244 328.183 46.4373 327.409 46.708C326.636 46.94 325.785 47.23 324.857 47.578L323.001 42.648L334.543 29.888L336.283 31.57L319.173 31.454V24.784H343.011L344.403 27.568L331.063 42.126L329.323 40.212C329.633 40.0573 330.135 39.922 330.831 39.806C331.566 39.6513 332.204 39.574 332.745 39.574C334.447 39.574 336.071 39.9027 337.617 40.56C339.164 41.1787 340.498 42.068 341.619 43.228C342.779 44.388 343.688 45.7413 344.345 47.288C345.003 48.796 345.331 50.4393 345.331 52.218C345.331 54.886 344.674 57.264 343.359 59.352C342.083 61.4013 340.343 63.0447 338.139 64.282C335.935 65.4807 333.48 66.08 330.773 66.08ZM355.759 65.5L382.613 24.9H389.515L362.371 65.5H355.759ZM359.065 46.418C357.247 46.418 355.623 45.9347 354.193 44.968C352.801 44.0013 351.699 42.6867 350.887 41.024C350.113 39.3613 349.727 37.4667 349.727 35.34C349.727 33.1747 350.113 31.2607 350.887 29.598C351.699 27.8967 352.801 26.5627 354.193 25.596C355.623 24.6293 357.267 24.146 359.123 24.146C360.94 24.146 362.545 24.6293 363.937 25.596C365.367 26.5627 366.469 27.8967 367.243 29.598C368.055 31.2607 368.461 33.1747 368.461 35.34C368.461 37.428 368.055 39.3227 367.243 41.024C366.431 42.6867 365.309 44.0013 363.879 44.968C362.448 45.9347 360.843 46.418 359.065 46.418ZM359.123 41.488C359.857 41.488 360.495 41.2367 361.037 40.734C361.578 40.2313 362.003 39.5353 362.313 38.646C362.622 37.718 362.777 36.616 362.777 35.34C362.777 34.064 362.622 32.962 362.313 32.034C362.003 31.106 361.578 30.3907 361.037 29.888C360.495 29.3853 359.838 29.134 359.065 29.134C358.33 29.134 357.673 29.4047 357.093 29.946C356.551 30.4487 356.126 31.164 355.817 32.092C355.507 32.9813 355.353 34.064 355.353 35.34C355.353 36.616 355.488 37.718 355.759 38.646C356.068 39.5353 356.513 40.2313 357.093 40.734C357.673 41.2367 358.349 41.488 359.123 41.488ZM386.615 66.022C384.797 66.022 383.173 65.5387 381.743 64.572C380.351 63.6053 379.249 62.2907 378.437 60.628C377.625 58.9653 377.219 57.0707 377.219 54.944C377.219 52.7787 377.605 50.8647 378.379 49.202C379.191 47.5007 380.312 46.1667 381.743 45.2C383.173 44.2333 384.797 43.75 386.615 43.75C388.471 43.75 390.095 44.2333 391.487 45.2C392.879 46.1667 393.961 47.5007 394.735 49.202C395.547 50.8647 395.953 52.7787 395.953 54.944C395.953 57.032 395.547 58.9267 394.735 60.628C393.923 62.2907 392.801 63.6053 391.371 64.572C389.979 65.5387 388.393 66.022 386.615 66.022ZM386.615 61.15C387.349 61.15 387.987 60.8987 388.529 60.396C389.109 59.8547 389.553 59.1393 389.863 58.25C390.172 57.322 390.327 56.22 390.327 54.944C390.327 53.7067 390.172 52.624 389.863 51.696C389.553 50.768 389.109 50.0527 388.529 49.55C387.987 49.0087 387.349 48.738 386.615 48.738C385.841 48.738 385.165 48.9893 384.585 49.492C384.043 49.9947 383.618 50.7293 383.309 51.696C382.999 52.624 382.845 53.7067 382.845 54.944C382.845 56.22 382.999 57.322 383.309 58.25C383.618 59.1393 384.043 59.8547 384.585 60.396C385.165 60.8987 385.841 61.15 386.615 61.15Z" fill="#CAFF33"/>
<path d="M284.521 112.5V99.9H285.889L290.731 107.766L290.083 107.748L294.979 99.9H296.257V112.5H294.853V106.74C294.853 105.66 294.871 104.688 294.907 103.824C294.943 102.96 295.009 102.102 295.105 101.25L295.357 101.754L290.839 108.846H289.867L285.475 101.844L285.673 101.25C285.769 102.054 285.835 102.882 285.871 103.734C285.907 104.574 285.925 105.576 285.925 106.74V112.5H284.521ZM303.104 112.68C302.288 112.68 301.55 112.47 300.89 112.05C300.23 111.618 299.708 111.036 299.324 110.304C298.94 109.56 298.748 108.72 298.748 107.784C298.748 106.836 298.946 105.996 299.342 105.264C299.738 104.532 300.266 103.956 300.926 103.536C301.598 103.116 302.348 102.906 303.176 102.906C303.668 102.906 304.124 102.978 304.544 103.122C304.964 103.266 305.336 103.47 305.66 103.734C305.996 103.986 306.272 104.286 306.488 104.634C306.716 104.97 306.872 105.336 306.956 105.732L306.56 105.534L306.614 103.104H307.964V112.5H306.596V110.196L306.956 109.962C306.872 110.322 306.71 110.67 306.47 111.006C306.23 111.33 305.936 111.618 305.588 111.87C305.252 112.122 304.868 112.32 304.436 112.464C304.016 112.608 303.572 112.68 303.104 112.68ZM303.41 111.384C304.034 111.384 304.592 111.234 305.084 110.934C305.576 110.622 305.96 110.196 306.236 109.656C306.524 109.104 306.668 108.48 306.668 107.784C306.668 107.088 306.524 106.47 306.236 105.93C305.96 105.39 305.576 104.964 305.084 104.652C304.592 104.34 304.034 104.184 303.41 104.184C302.774 104.184 302.21 104.34 301.718 104.652C301.238 104.964 300.854 105.39 300.566 105.93C300.29 106.47 300.152 107.088 300.152 107.784C300.152 108.468 300.29 109.086 300.566 109.638C300.842 110.178 301.226 110.604 301.718 110.916C302.21 111.228 302.774 111.384 303.41 111.384ZM310.594 112.5V103.104H311.926L311.98 105.066L311.764 105.156C311.884 104.748 312.118 104.376 312.466 104.04C312.814 103.704 313.228 103.434 313.708 103.23C314.2 103.014 314.704 102.906 315.22 102.906C315.916 102.906 316.498 103.044 316.966 103.32C317.434 103.596 317.788 104.022 318.028 104.598C318.268 105.174 318.388 105.906 318.388 106.794V112.5H317.02V106.866C317.02 106.242 316.936 105.732 316.768 105.336C316.612 104.928 316.366 104.628 316.03 104.436C315.694 104.244 315.28 104.154 314.788 104.166C314.38 104.166 314.002 104.238 313.654 104.382C313.306 104.514 313.006 104.7 312.754 104.94C312.502 105.18 312.304 105.456 312.16 105.768C312.016 106.08 311.944 106.416 311.944 106.776V112.5H311.278C311.194 112.5 311.098 112.5 310.99 112.5C310.882 112.5 310.75 112.5 310.594 112.5ZM324.637 112.68C323.821 112.68 323.083 112.47 322.423 112.05C321.763 111.618 321.241 111.036 320.857 110.304C320.473 109.56 320.281 108.72 320.281 107.784C320.281 106.836 320.479 105.996 320.875 105.264C321.271 104.532 321.799 103.956 322.459 103.536C323.131 103.116 323.881 102.906 324.709 102.906C325.201 102.906 325.657 102.978 326.077 103.122C326.497 103.266 326.869 103.47 327.193 103.734C327.529 103.986 327.805 104.286 328.021 104.634C328.249 104.97 328.405 105.336 328.489 105.732L328.093 105.534L328.147 103.104H329.497V112.5H328.129V110.196L328.489 109.962C328.405 110.322 328.243 110.67 328.003 111.006C327.763 111.33 327.469 111.618 327.121 111.87C326.785 112.122 326.401 112.32 325.969 112.464C325.549 112.608 325.105 112.68 324.637 112.68ZM324.943 111.384C325.567 111.384 326.125 111.234 326.617 110.934C327.109 110.622 327.493 110.196 327.769 109.656C328.057 109.104 328.201 108.48 328.201 107.784C328.201 107.088 328.057 106.47 327.769 105.93C327.493 105.39 327.109 104.964 326.617 104.652C326.125 104.34 325.567 104.184 324.943 104.184C324.307 104.184 323.743 104.34 323.251 104.652C322.771 104.964 322.387 105.39 322.099 105.93C321.823 106.47 321.685 107.088 321.685 107.784C321.685 108.468 321.823 109.086 322.099 109.638C322.375 110.178 322.759 110.604 323.251 110.916C323.743 111.228 324.307 111.384 324.943 111.384ZM336.177 116.64C335.481 116.64 334.821 116.532 334.197 116.316C333.573 116.1 333.057 115.83 332.649 115.506L333.189 114.372C333.429 114.564 333.705 114.732 334.017 114.876C334.341 115.032 334.689 115.152 335.061 115.236C335.433 115.332 335.811 115.38 336.195 115.38C336.891 115.38 337.479 115.248 337.959 114.984C338.451 114.732 338.823 114.354 339.075 113.85C339.339 113.346 339.471 112.722 339.471 111.978V110.178L339.687 110.124C339.579 110.58 339.345 111.006 338.985 111.402C338.625 111.786 338.187 112.098 337.671 112.338C337.155 112.566 336.609 112.68 336.033 112.68C335.157 112.68 334.371 112.47 333.675 112.05C332.991 111.63 332.451 111.054 332.055 110.322C331.659 109.578 331.461 108.738 331.461 107.802C331.461 106.854 331.659 106.014 332.055 105.282C332.463 104.538 333.009 103.956 333.693 103.536C334.377 103.116 335.145 102.906 335.997 102.906C336.369 102.906 336.729 102.954 337.077 103.05C337.425 103.134 337.743 103.26 338.031 103.428C338.331 103.596 338.601 103.788 338.841 104.004C339.081 104.22 339.279 104.454 339.435 104.706C339.603 104.958 339.723 105.216 339.795 105.48L339.417 105.426L339.471 103.104H340.821V111.924C340.821 112.68 340.713 113.346 340.497 113.922C340.281 114.51 339.963 115.002 339.543 115.398C339.135 115.806 338.643 116.112 338.067 116.316C337.503 116.532 336.873 116.64 336.177 116.64ZM336.195 111.384C336.831 111.384 337.395 111.234 337.887 110.934C338.391 110.622 338.787 110.196 339.075 109.656C339.363 109.116 339.507 108.492 339.507 107.784C339.507 107.088 339.363 106.47 339.075 105.93C338.799 105.39 338.409 104.964 337.905 104.652C337.401 104.34 336.831 104.184 336.195 104.184C335.547 104.184 334.971 104.34 334.467 104.652C333.975 104.964 333.585 105.39 333.297 105.93C333.009 106.47 332.865 107.088 332.865 107.784C332.865 108.468 333.003 109.086 333.279 109.638C333.567 110.178 333.957 110.604 334.449 110.916C334.953 111.228 335.535 111.384 336.195 111.384ZM347.587 112.68C346.651 112.68 345.817 112.476 345.085 112.068C344.365 111.66 343.801 111.09 343.393 110.358C342.985 109.626 342.781 108.786 342.781 107.838C342.781 107.106 342.895 106.446 343.123 105.858C343.351 105.258 343.669 104.736 344.077 104.292C344.497 103.848 344.995 103.506 345.571 103.266C346.147 103.014 346.771 102.888 347.443 102.888C348.079 102.888 348.655 103.002 349.171 103.23C349.699 103.458 350.149 103.776 350.521 104.184C350.905 104.58 351.193 105.054 351.385 105.606C351.577 106.158 351.661 106.764 351.637 107.424L351.619 108.054H343.789L343.591 106.92H350.593L350.269 107.226V106.794C350.245 106.362 350.119 105.948 349.891 105.552C349.663 105.144 349.339 104.814 348.919 104.562C348.511 104.31 348.019 104.184 347.443 104.184C346.771 104.184 346.189 104.322 345.697 104.598C345.205 104.862 344.827 105.258 344.563 105.786C344.299 106.314 344.167 106.968 344.167 107.748C344.167 108.492 344.311 109.14 344.599 109.692C344.887 110.232 345.295 110.652 345.823 110.952C346.363 111.252 347.011 111.402 347.767 111.402C348.211 111.402 348.649 111.33 349.081 111.186C349.525 111.03 350.011 110.73 350.539 110.286L351.241 111.258C350.965 111.534 350.635 111.78 350.251 111.996C349.867 112.2 349.447 112.368 348.991 112.5C348.535 112.62 348.067 112.68 347.587 112.68ZM357.227 112.68C356.411 112.68 355.673 112.47 355.013 112.05C354.353 111.618 353.831 111.036 353.447 110.304C353.063 109.56 352.871 108.72 352.871 107.784C352.871 106.836 353.069 105.996 353.465 105.264C353.861 104.532 354.389 103.956 355.049 103.536C355.721 103.116 356.471 102.906 357.299 102.906C357.791 102.906 358.247 102.978 358.667 103.122C359.087 103.266 359.459 103.47 359.783 103.734C360.119 103.986 360.395 104.286 360.611 104.634C360.839 104.97 360.995 105.336 361.079 105.732L360.683 105.534L360.737 103.104H362.087V112.5H360.719V110.196L361.079 109.962C360.995 110.322 360.833 110.67 360.593 111.006C360.353 111.33 360.059 111.618 359.711 111.87C359.375 112.122 358.991 112.32 358.559 112.464C358.139 112.608 357.695 112.68 357.227 112.68ZM357.533 111.384C358.157 111.384 358.715 111.234 359.207 110.934C359.699 110.622 360.083 110.196 360.359 109.656C360.647 109.104 360.791 108.48 360.791 107.784C360.791 107.088 360.647 106.47 360.359 105.93C360.083 105.39 359.699 104.964 359.207 104.652C358.715 104.34 358.157 104.184 357.533 104.184C356.897 104.184 356.333 104.34 355.841 104.652C355.361 104.964 354.977 105.39 354.689 105.93C354.413 106.47 354.275 107.088 354.275 107.784C354.275 108.468 354.413 109.086 354.689 109.638C354.965 110.178 355.349 110.604 355.841 110.916C356.333 111.228 356.897 111.384 357.533 111.384ZM369.487 112.68C369.043 112.68 368.611 112.614 368.191 112.482C367.771 112.338 367.387 112.146 367.039 111.906C366.703 111.666 366.415 111.39 366.175 111.078C365.947 110.766 365.791 110.442 365.707 110.106L366.103 110.124L366.049 112.482H364.717V99.18H366.067V105.354L365.797 105.426C365.881 105.09 366.031 104.772 366.247 104.472C366.475 104.16 366.757 103.89 367.093 103.662C367.429 103.422 367.795 103.236 368.191 103.104C368.599 102.972 369.019 102.906 369.451 102.906C370.291 102.906 371.041 103.116 371.701 103.536C372.373 103.956 372.907 104.532 373.303 105.264C373.699 105.996 373.897 106.836 373.897 107.784C373.897 108.732 373.705 109.578 373.321 110.322C372.937 111.054 372.409 111.63 371.737 112.05C371.077 112.47 370.327 112.68 369.487 112.68ZM369.271 111.402C369.907 111.402 370.471 111.246 370.963 110.934C371.455 110.61 371.839 110.178 372.115 109.638C372.403 109.086 372.547 108.468 372.547 107.784C372.547 107.088 372.403 106.47 372.115 105.93C371.839 105.39 371.455 104.964 370.963 104.652C370.471 104.34 369.907 104.184 369.271 104.184C368.635 104.184 368.071 104.34 367.579 104.652C367.087 104.964 366.697 105.39 366.409 105.93C366.133 106.47 365.995 107.088 365.995 107.784C365.995 108.48 366.133 109.104 366.409 109.656C366.697 110.196 367.087 110.622 367.579 110.934C368.071 111.246 368.635 111.402 369.271 111.402ZM375.897 112.5V99.18H377.247V112.5H375.897ZM383.869 112.68C382.933 112.68 382.099 112.476 381.367 112.068C380.647 111.66 380.083 111.09 379.675 110.358C379.267 109.626 379.063 108.786 379.063 107.838C379.063 107.106 379.177 106.446 379.405 105.858C379.633 105.258 379.951 104.736 380.359 104.292C380.779 103.848 381.277 103.506 381.853 103.266C382.429 103.014 383.053 102.888 383.725 102.888C384.361 102.888 384.937 103.002 385.453 103.23C385.981 103.458 386.431 103.776 386.803 104.184C387.187 104.58 387.475 105.054 387.667 105.606C387.859 106.158 387.943 106.764 387.919 107.424L387.901 108.054H380.071L379.873 106.92H386.875L386.551 107.226V106.794C386.527 106.362 386.401 105.948 386.173 105.552C385.945 105.144 385.621 104.814 385.201 104.562C384.793 104.31 384.301 104.184 383.725 104.184C383.053 104.184 382.471 104.322 381.979 104.598C381.487 104.862 381.109 105.258 380.845 105.786C380.581 106.314 380.449 106.968 380.449 107.748C380.449 108.492 380.593 109.14 380.881 109.692C381.169 110.232 381.577 110.652 382.105 110.952C382.645 111.252 383.293 111.402 384.049 111.402C384.493 111.402 384.931 111.33 385.363 111.186C385.807 111.03 386.293 110.73 386.821 110.286L387.523 111.258C387.247 111.534 386.917 111.78 386.533 111.996C386.149 112.2 385.729 112.368 385.273 112.5C384.817 112.62 384.349 112.68 383.869 112.68ZM395.421 112.5V99.9H400.173C401.037 99.9 401.823 100.056 402.531 100.368C403.251 100.668 403.875 101.1 404.403 101.664C404.931 102.228 405.339 102.894 405.627 103.662C405.915 104.43 406.059 105.276 406.059 106.2C406.059 107.124 405.915 107.976 405.627 108.756C405.339 109.524 404.931 110.19 404.403 110.754C403.887 111.306 403.269 111.738 402.549 112.05C401.829 112.35 401.037 112.5 400.173 112.5H395.421ZM396.825 111.384L396.663 111.132H400.083C400.743 111.132 401.349 111.018 401.901 110.79C402.465 110.55 402.945 110.214 403.341 109.782C403.749 109.338 404.061 108.816 404.277 108.216C404.505 107.616 404.619 106.944 404.619 106.2C404.619 105.456 404.505 104.784 404.277 104.184C404.061 103.584 403.749 103.068 403.341 102.636C402.933 102.192 402.453 101.856 401.901 101.628C401.349 101.388 400.743 101.268 400.083 101.268H396.609L396.825 101.052V111.384ZM412.398 112.68C411.462 112.68 410.628 112.476 409.896 112.068C409.176 111.66 408.612 111.09 408.204 110.358C407.796 109.626 407.592 108.786 407.592 107.838C407.592 107.106 407.706 106.446 407.934 105.858C408.162 105.258 408.48 104.736 408.888 104.292C409.308 103.848 409.806 103.506 410.382 103.266C410.958 103.014 411.582 102.888 412.254 102.888C412.89 102.888 413.466 103.002 413.982 103.23C414.51 103.458 414.96 103.776 415.332 104.184C415.716 104.58 416.004 105.054 416.196 105.606C416.388 106.158 416.472 106.764 416.448 107.424L416.43 108.054H408.6L408.402 106.92H415.404L415.08 107.226V106.794C415.056 106.362 414.93 105.948 414.702 105.552C414.474 105.144 414.15 104.814 413.73 104.562C413.322 104.31 412.83 104.184 412.254 104.184C411.582 104.184 411 104.322 410.508 104.598C410.016 104.862 409.638 105.258 409.374 105.786C409.11 106.314 408.978 106.968 408.978 107.748C408.978 108.492 409.122 109.14 409.41 109.692C409.698 110.232 410.106 110.652 410.634 110.952C411.174 111.252 411.822 111.402 412.578 111.402C413.022 111.402 413.46 111.33 413.892 111.186C414.336 111.03 414.822 110.73 415.35 110.286L416.052 111.258C415.776 111.534 415.446 111.78 415.062 111.996C414.678 112.2 414.258 112.368 413.802 112.5C413.346 112.62 412.878 112.68 412.398 112.68ZM423.135 112.68C422.691 112.68 422.259 112.614 421.839 112.482C421.419 112.338 421.035 112.146 420.687 111.906C420.351 111.666 420.063 111.39 419.823 111.078C419.595 110.766 419.439 110.442 419.355 110.106L419.751 110.124L419.697 112.482H418.365V99.18H419.715V105.354L419.445 105.426C419.529 105.09 419.679 104.772 419.895 104.472C420.123 104.16 420.405 103.89 420.741 103.662C421.077 103.422 421.443 103.236 421.839 103.104C422.247 102.972 422.667 102.906 423.099 102.906C423.939 102.906 424.689 103.116 425.349 103.536C426.021 103.956 426.555 104.532 426.951 105.264C427.347 105.996 427.545 106.836 427.545 107.784C427.545 108.732 427.353 109.578 426.969 110.322C426.585 111.054 426.057 111.63 425.385 112.05C424.725 112.47 423.975 112.68 423.135 112.68ZM422.919 111.402C423.555 111.402 424.119 111.246 424.611 110.934C425.103 110.61 425.487 110.178 425.763 109.638C426.051 109.086 426.195 108.468 426.195 107.784C426.195 107.088 426.051 106.47 425.763 105.93C425.487 105.39 425.103 104.964 424.611 104.652C424.119 104.34 423.555 104.184 422.919 104.184C422.283 104.184 421.719 104.34 421.227 104.652C420.735 104.964 420.345 105.39 420.057 105.93C419.781 106.47 419.643 107.088 419.643 107.784C419.643 108.48 419.781 109.104 420.057 109.656C420.345 110.196 420.735 110.622 421.227 110.934C421.719 111.246 422.283 111.402 422.919 111.402ZM430.806 112.5V100.638H432.156V112.5H430.806ZM428.682 104.4V103.104H434.532V104.4H428.682ZM289.741 139.68C288.841 139.68 288.013 139.524 287.257 139.212C286.501 138.888 285.847 138.438 285.295 137.862C284.743 137.274 284.311 136.584 283.999 135.792C283.699 135 283.549 134.136 283.549 133.2C283.549 132.276 283.699 131.43 283.999 130.662C284.311 129.882 284.749 129.204 285.313 128.628C285.877 128.04 286.531 127.59 287.275 127.278C288.019 126.966 288.835 126.81 289.723 126.81C290.311 126.81 290.893 126.906 291.469 127.098C292.045 127.278 292.573 127.53 293.053 127.854C293.545 128.178 293.947 128.55 294.259 128.97L293.287 129.978C292.987 129.618 292.639 129.306 292.243 129.042C291.859 128.778 291.451 128.574 291.019 128.43C290.587 128.286 290.155 128.214 289.723 128.214C289.051 128.214 288.421 128.34 287.833 128.592C287.257 128.832 286.759 129.174 286.339 129.618C285.919 130.062 285.589 130.59 285.349 131.202C285.121 131.814 285.007 132.48 285.007 133.2C285.007 133.944 285.121 134.628 285.349 135.252C285.589 135.876 285.925 136.416 286.357 136.872C286.801 137.316 287.317 137.664 287.905 137.916C288.505 138.156 289.171 138.276 289.903 138.276C290.335 138.276 290.767 138.216 291.199 138.096C291.631 137.964 292.027 137.784 292.387 137.556C292.747 137.328 293.053 137.07 293.305 136.782L294.025 137.952C293.749 138.288 293.377 138.588 292.909 138.852C292.453 139.104 291.949 139.308 291.397 139.464C290.845 139.608 290.293 139.68 289.741 139.68ZM300.303 139.68C299.367 139.68 298.533 139.47 297.801 139.05C297.081 138.63 296.511 138.048 296.091 137.304C295.683 136.56 295.479 135.714 295.479 134.766C295.479 133.83 295.683 132.996 296.091 132.264C296.511 131.532 297.081 130.956 297.801 130.536C298.533 130.116 299.367 129.906 300.303 129.906C301.227 129.906 302.049 130.116 302.769 130.536C303.501 130.956 304.071 131.532 304.479 132.264C304.899 132.996 305.109 133.83 305.109 134.766C305.109 135.714 304.899 136.56 304.479 137.304C304.071 138.048 303.501 138.63 302.769 139.05C302.049 139.47 301.227 139.68 300.303 139.68ZM300.303 138.402C300.963 138.402 301.551 138.246 302.067 137.934C302.583 137.61 302.985 137.178 303.273 136.638C303.561 136.086 303.705 135.462 303.705 134.766C303.705 134.07 303.561 133.452 303.273 132.912C302.985 132.372 302.583 131.952 302.067 131.652C301.551 131.34 300.963 131.184 300.303 131.184C299.643 131.184 299.049 131.34 298.521 131.652C298.005 131.952 297.597 132.378 297.297 132.93C297.009 133.47 296.871 134.082 296.883 134.766C296.871 135.462 297.009 136.086 297.297 136.638C297.597 137.178 298.005 137.61 298.521 137.934C299.049 138.246 299.643 138.402 300.303 138.402ZM307.078 139.5V130.104H308.41L308.464 132.066L308.248 132.156C308.368 131.748 308.602 131.376 308.95 131.04C309.298 130.704 309.712 130.434 310.192 130.23C310.684 130.014 311.188 129.906 311.704 129.906C312.4 129.906 312.982 130.044 313.45 130.32C313.918 130.596 314.272 131.022 314.512 131.598C314.752 132.174 314.872 132.906 314.872 133.794V139.5H313.504V133.866C313.504 133.242 313.42 132.732 313.252 132.336C313.096 131.928 312.85 131.628 312.514 131.436C312.178 131.244 311.764 131.154 311.272 131.166C310.864 131.166 310.486 131.238 310.138 131.382C309.79 131.514 309.49 131.7 309.238 131.94C308.986 132.18 308.788 132.456 308.644 132.768C308.5 133.08 308.428 133.416 308.428 133.776V139.5H307.762C307.678 139.5 307.582 139.5 307.474 139.5C307.366 139.5 307.234 139.5 307.078 139.5ZM320.527 139.68C319.723 139.68 319.003 139.53 318.367 139.23C317.731 138.93 317.227 138.534 316.855 138.042L317.809 137.214C318.157 137.634 318.565 137.952 319.033 138.168C319.513 138.384 320.047 138.492 320.635 138.492C320.935 138.492 321.205 138.462 321.445 138.402C321.685 138.33 321.895 138.228 322.075 138.096C322.255 137.964 322.393 137.808 322.489 137.628C322.585 137.448 322.633 137.25 322.633 137.034C322.633 136.638 322.459 136.308 322.111 136.044C321.955 135.936 321.733 135.828 321.445 135.72C321.157 135.6 320.809 135.486 320.401 135.378C319.729 135.186 319.171 134.994 318.727 134.802C318.283 134.598 317.935 134.364 317.683 134.1C317.503 133.884 317.365 133.65 317.269 133.398C317.185 133.146 317.143 132.87 317.143 132.57C317.143 132.186 317.221 131.832 317.377 131.508C317.545 131.184 317.773 130.902 318.061 130.662C318.361 130.41 318.709 130.224 319.105 130.104C319.513 129.972 319.951 129.906 320.419 129.906C320.863 129.906 321.301 129.966 321.733 130.086C322.165 130.206 322.567 130.38 322.939 130.608C323.311 130.836 323.629 131.106 323.893 131.418L323.065 132.318C322.837 132.078 322.585 131.862 322.309 131.67C322.033 131.478 321.739 131.328 321.427 131.22C321.127 131.112 320.815 131.058 320.491 131.058C320.203 131.058 319.933 131.094 319.681 131.166C319.441 131.238 319.231 131.34 319.051 131.472C318.883 131.592 318.751 131.742 318.655 131.922C318.571 132.102 318.529 132.3 318.529 132.516C318.529 132.696 318.565 132.858 318.637 133.002C318.709 133.146 318.811 133.272 318.943 133.38C319.111 133.512 319.345 133.638 319.645 133.758C319.957 133.866 320.341 133.98 320.797 134.1C321.325 134.244 321.769 134.394 322.129 134.55C322.501 134.694 322.807 134.868 323.047 135.072C323.371 135.312 323.599 135.588 323.731 135.9C323.875 136.212 323.947 136.566 323.947 136.962C323.947 137.49 323.797 137.958 323.497 138.366C323.209 138.774 322.807 139.098 322.291 139.338C321.775 139.566 321.187 139.68 320.527 139.68ZM330.221 139.68C329.285 139.68 328.451 139.47 327.719 139.05C326.999 138.63 326.429 138.048 326.009 137.304C325.601 136.56 325.397 135.714 325.397 134.766C325.397 133.83 325.601 132.996 326.009 132.264C326.429 131.532 326.999 130.956 327.719 130.536C328.451 130.116 329.285 129.906 330.221 129.906C331.145 129.906 331.967 130.116 332.687 130.536C333.419 130.956 333.989 131.532 334.397 132.264C334.817 132.996 335.027 133.83 335.027 134.766C335.027 135.714 334.817 136.56 334.397 137.304C333.989 138.048 333.419 138.63 332.687 139.05C331.967 139.47 331.145 139.68 330.221 139.68ZM330.221 138.402C330.881 138.402 331.469 138.246 331.985 137.934C332.501 137.61 332.903 137.178 333.191 136.638C333.479 136.086 333.623 135.462 333.623 134.766C333.623 134.07 333.479 133.452 333.191 132.912C332.903 132.372 332.501 131.952 331.985 131.652C331.469 131.34 330.881 131.184 330.221 131.184C329.561 131.184 328.967 131.34 328.439 131.652C327.923 131.952 327.515 132.378 327.215 132.93C326.927 133.47 326.789 134.082 326.801 134.766C326.789 135.462 326.927 136.086 327.215 136.638C327.515 137.178 327.923 137.61 328.439 137.934C328.967 138.246 329.561 138.402 330.221 138.402ZM337.032 139.5V126.18H338.382V139.5H337.032ZM341.399 139.5V130.104H342.749V139.5H341.399ZM342.065 128.07C341.729 128.07 341.471 127.986 341.291 127.818C341.123 127.638 341.039 127.398 341.039 127.098C341.039 126.798 341.129 126.558 341.309 126.378C341.489 126.198 341.741 126.108 342.065 126.108C342.389 126.108 342.641 126.198 342.821 126.378C343.001 126.546 343.091 126.786 343.091 127.098C343.091 127.386 343.001 127.62 342.821 127.8C342.641 127.98 342.389 128.07 342.065 128.07ZM349.513 139.68C348.661 139.68 347.893 139.47 347.209 139.05C346.537 138.63 346.003 138.054 345.607 137.322C345.223 136.578 345.031 135.738 345.031 134.802C345.031 133.854 345.229 133.014 345.625 132.282C346.021 131.538 346.555 130.956 347.227 130.536C347.899 130.116 348.655 129.906 349.495 129.906C349.963 129.906 350.413 129.978 350.845 130.122C351.289 130.266 351.685 130.47 352.033 130.734C352.381 130.986 352.669 131.28 352.897 131.616C353.125 131.94 353.263 132.282 353.311 132.642L352.897 132.498V126.18H354.247V139.5H352.915L352.879 137.16L353.221 137.034C353.173 137.37 353.035 137.7 352.807 138.024C352.591 138.336 352.315 138.618 351.979 138.87C351.643 139.122 351.259 139.32 350.827 139.464C350.407 139.608 349.969 139.68 349.513 139.68ZM349.711 138.438C350.335 138.438 350.893 138.282 351.385 137.97C351.877 137.658 352.261 137.226 352.537 136.674C352.825 136.122 352.969 135.492 352.969 134.784C352.969 134.076 352.825 133.452 352.537 132.912C352.261 132.36 351.877 131.928 351.385 131.616C350.893 131.292 350.335 131.13 349.711 131.13C349.063 131.13 348.493 131.292 348.001 131.616C347.521 131.928 347.137 132.36 346.849 132.912C346.573 133.452 346.435 134.076 346.435 134.784C346.435 135.48 346.573 136.104 346.849 136.656C347.125 137.208 347.509 137.646 348.001 137.97C348.493 138.282 349.063 138.438 349.711 138.438ZM360.549 139.68C359.733 139.68 358.995 139.47 358.335 139.05C357.675 138.618 357.153 138.036 356.769 137.304C356.385 136.56 356.193 135.72 356.193 134.784C356.193 133.836 356.391 132.996 356.787 132.264C357.183 131.532 357.711 130.956 358.371 130.536C359.043 130.116 359.793 129.906 360.621 129.906C361.113 129.906 361.569 129.978 361.989 130.122C362.409 130.266 362.781 130.47 363.105 130.734C363.441 130.986 363.717 131.286 363.933 131.634C364.161 131.97 364.317 132.336 364.401 132.732L364.005 132.534L364.059 130.104H365.409V139.5H364.041V137.196L364.401 136.962C364.317 137.322 364.155 137.67 363.915 138.006C363.675 138.33 363.381 138.618 363.033 138.87C362.697 139.122 362.313 139.32 361.881 139.464C361.461 139.608 361.017 139.68 360.549 139.68ZM360.855 138.384C361.479 138.384 362.037 138.234 362.529 137.934C363.021 137.622 363.405 137.196 363.681 136.656C363.969 136.104 364.113 135.48 364.113 134.784C364.113 134.088 363.969 133.47 363.681 132.93C363.405 132.39 363.021 131.964 362.529 131.652C362.037 131.34 361.479 131.184 360.855 131.184C360.219 131.184 359.655 131.34 359.163 131.652C358.683 131.964 358.299 132.39 358.011 132.93C357.735 133.47 357.597 134.088 357.597 134.784C357.597 135.468 357.735 136.086 358.011 136.638C358.287 137.178 358.671 137.604 359.163 137.916C359.655 138.228 360.219 138.384 360.855 138.384ZM369.335 139.5V127.638H370.685V139.5H369.335ZM367.211 131.4V130.104H373.061V131.4H367.211ZM375.079 139.5V130.104H376.429V139.5H375.079ZM375.745 128.07C375.409 128.07 375.151 127.986 374.971 127.818C374.803 127.638 374.719 127.398 374.719 127.098C374.719 126.798 374.809 126.558 374.989 126.378C375.169 126.198 375.421 126.108 375.745 126.108C376.069 126.108 376.321 126.198 376.501 126.378C376.681 126.546 376.771 126.786 376.771 127.098C376.771 127.386 376.681 127.62 376.501 127.8C376.321 127.98 376.069 128.07 375.745 128.07ZM383.535 139.68C382.599 139.68 381.765 139.47 381.033 139.05C380.313 138.63 379.743 138.048 379.323 137.304C378.915 136.56 378.711 135.714 378.711 134.766C378.711 133.83 378.915 132.996 379.323 132.264C379.743 131.532 380.313 130.956 381.033 130.536C381.765 130.116 382.599 129.906 383.535 129.906C384.459 129.906 385.281 130.116 386.001 130.536C386.733 130.956 387.303 131.532 387.711 132.264C388.131 132.996 388.341 133.83 388.341 134.766C388.341 135.714 388.131 136.56 387.711 137.304C387.303 138.048 386.733 138.63 386.001 139.05C385.281 139.47 384.459 139.68 383.535 139.68ZM383.535 138.402C384.195 138.402 384.783 138.246 385.299 137.934C385.815 137.61 386.217 137.178 386.505 136.638C386.793 136.086 386.937 135.462 386.937 134.766C386.937 134.07 386.793 133.452 386.505 132.912C386.217 132.372 385.815 131.952 385.299 131.652C384.783 131.34 384.195 131.184 383.535 131.184C382.875 131.184 382.281 131.34 381.753 131.652C381.237 131.952 380.829 132.378 380.529 132.93C380.241 133.47 380.103 134.082 380.115 134.766C380.103 135.462 380.241 136.086 380.529 136.638C380.829 137.178 381.237 137.61 381.753 137.934C382.281 138.246 382.875 138.402 383.535 138.402ZM390.311 139.5V130.104H391.643L391.697 132.066L391.481 132.156C391.601 131.748 391.835 131.376 392.183 131.04C392.531 130.704 392.945 130.434 393.425 130.23C393.917 130.014 394.421 129.906 394.937 129.906C395.633 129.906 396.215 130.044 396.683 130.32C397.151 130.596 397.505 131.022 397.745 131.598C397.985 132.174 398.105 132.906 398.105 133.794V139.5H396.737V133.866C396.737 133.242 396.653 132.732 396.485 132.336C396.329 131.928 396.083 131.628 395.747 131.436C395.411 131.244 394.997 131.154 394.505 131.166C394.097 131.166 393.719 131.238 393.371 131.382C393.023 131.514 392.723 131.7 392.471 131.94C392.219 132.18 392.021 132.456 391.877 132.768C391.733 133.08 391.661 133.416 391.661 133.776V139.5H390.995C390.911 139.5 390.815 139.5 390.707 139.5C390.599 139.5 390.467 139.5 390.311 139.5Z" fill="#B3B3B3"/>
<line x1="515.833" y1="0.5" x2="515.833" y2="146.5" stroke="#262626" stroke-dasharray="10 10"/>
<path d="M578.151 65.5L577.919 64.92L590.215 39.284L590.911 43.634C590.331 44.8713 589.616 45.9733 588.765 46.94C587.953 47.9067 587.006 48.7573 585.923 49.492C584.879 50.188 583.797 50.7293 582.675 51.116C581.554 51.464 580.433 51.638 579.311 51.638C577.107 51.638 575.077 51.058 573.221 49.898C571.365 48.6993 569.877 47.1333 568.755 45.2C567.634 43.228 567.073 41.082 567.073 38.762C567.073 36.0167 567.711 33.542 568.987 31.338C570.263 29.0953 571.984 27.336 574.149 26.06C576.353 24.7453 578.828 24.088 581.573 24.088C583.545 24.088 585.401 24.4553 587.141 25.19C588.92 25.886 590.447 26.872 591.723 28.148C593.038 29.424 594.063 30.8933 594.797 32.556C595.571 34.2187 595.957 35.978 595.957 37.834C595.957 38.9553 595.841 40.1153 595.609 41.314C595.416 42.474 595.087 43.75 594.623 45.142C594.159 46.534 593.56 48.0613 592.825 49.724C592.129 51.3867 591.279 53.2813 590.273 55.408L585.343 65.5H578.151ZM580.993 45.142C582.385 45.142 583.642 44.8327 584.763 44.214C585.885 43.5567 586.755 42.706 587.373 41.662C587.992 40.618 588.301 39.4193 588.301 38.066C588.301 36.674 587.992 35.4173 587.373 34.296C586.755 33.1747 585.904 32.3047 584.821 31.686C583.739 31.0287 582.501 30.7 581.109 30.7C579.795 30.7 578.635 31.0093 577.629 31.628C576.624 32.2467 575.812 33.1167 575.193 34.238C574.613 35.3207 574.323 36.5967 574.323 38.066C574.323 39.3033 574.613 40.4633 575.193 41.546C575.812 42.6287 576.624 43.4987 577.629 44.156C578.673 44.8133 579.795 45.142 580.993 45.142ZM610.259 62.658V29.714L612.405 32.498L604.169 36.674L602.487 30.062L613.565 24.32H617.741V62.658H610.259ZM603.473 65.5V58.54H624.701V65.5H603.473ZM636.443 65.5L663.297 24.9H670.199L643.055 65.5H636.443ZM639.749 46.418C637.932 46.418 636.308 45.9347 634.877 44.968C633.485 44.0013 632.383 42.6867 631.571 41.024C630.798 39.3613 630.411 37.4667 630.411 35.34C630.411 33.1747 630.798 31.2607 631.571 29.598C632.383 27.8967 633.485 26.5627 634.877 25.596C636.308 24.6293 637.951 24.146 639.807 24.146C641.625 24.146 643.229 24.6293 644.621 25.596C646.052 26.5627 647.154 27.8967 647.927 29.598C648.739 31.2607 649.145 33.1747 649.145 35.34C649.145 37.428 648.739 39.3227 647.927 41.024C647.115 42.6867 645.994 44.0013 644.563 44.968C643.133 45.9347 641.528 46.418 639.749 46.418ZM639.807 41.488C640.542 41.488 641.18 41.2367 641.721 40.734C642.263 40.2313 642.688 39.5353 642.997 38.646C643.307 37.718 643.461 36.616 643.461 35.34C643.461 34.064 643.307 32.962 642.997 32.034C642.688 31.106 642.263 30.3907 641.721 29.888C641.18 29.3853 640.523 29.134 639.749 29.134C639.015 29.134 638.357 29.4047 637.777 29.946C637.236 30.4487 636.811 31.164 636.501 32.092C636.192 32.9813 636.037 34.064 636.037 35.34C636.037 36.616 636.173 37.718 636.443 38.646C636.753 39.5353 637.197 40.2313 637.777 40.734C638.357 41.2367 639.034 41.488 639.807 41.488ZM667.299 66.022C665.482 66.022 663.858 65.5387 662.427 64.572C661.035 63.6053 659.933 62.2907 659.121 60.628C658.309 58.9653 657.903 57.0707 657.903 54.944C657.903 52.7787 658.29 50.8647 659.063 49.202C659.875 47.5007 660.997 46.1667 662.427 45.2C663.858 44.2333 665.482 43.75 667.299 43.75C669.155 43.75 670.779 44.2333 672.171 45.2C673.563 46.1667 674.646 47.5007 675.419 49.202C676.231 50.8647 676.637 52.7787 676.637 54.944C676.637 57.032 676.231 58.9267 675.419 60.628C674.607 62.2907 673.486 63.6053 672.055 64.572C670.663 65.5387 669.078 66.022 667.299 66.022ZM667.299 61.15C668.034 61.15 668.672 60.8987 669.213 60.396C669.793 59.8547 670.238 59.1393 670.547 58.25C670.857 57.322 671.011 56.22 671.011 54.944C671.011 53.7067 670.857 52.624 670.547 51.696C670.238 50.768 669.793 50.0527 669.213 49.55C668.672 49.0087 668.034 48.738 667.299 48.738C666.526 48.738 665.849 48.9893 665.269 49.492C664.728 49.9947 664.303 50.7293 663.993 51.696C663.684 52.624 663.529 53.7067 663.529 54.944C663.529 56.22 663.684 57.322 663.993 58.25C664.303 59.1393 664.728 59.8547 665.269 60.396C665.849 60.8987 666.526 61.15 667.299 61.15Z" fill="#CAFF33"/>
<path d="M567.187 112.5V99.9H572.119C572.851 99.9 573.511 100.074 574.099 100.422C574.699 100.758 575.173 101.22 575.521 101.808C575.869 102.396 576.043 103.062 576.043 103.806C576.043 104.502 575.875 105.132 575.539 105.696C575.203 106.26 574.747 106.71 574.171 107.046C573.595 107.37 572.947 107.532 572.227 107.532H568.591V112.5H567.187ZM574.873 112.5L571.705 106.956L573.055 106.488L576.547 112.5H574.873ZM568.591 106.164H572.353C572.797 106.164 573.187 106.062 573.523 105.858C573.859 105.654 574.123 105.378 574.315 105.03C574.507 104.67 574.603 104.262 574.603 103.806C574.603 103.314 574.489 102.876 574.261 102.492C574.033 102.108 573.715 101.808 573.307 101.592C572.911 101.376 572.455 101.268 571.939 101.268H568.591V106.164ZM582.319 112.68C581.383 112.68 580.549 112.476 579.817 112.068C579.097 111.66 578.533 111.09 578.125 110.358C577.717 109.626 577.513 108.786 577.513 107.838C577.513 107.106 577.627 106.446 577.855 105.858C578.083 105.258 578.401 104.736 578.809 104.292C579.229 103.848 579.727 103.506 580.303 103.266C580.879 103.014 581.503 102.888 582.175 102.888C582.811 102.888 583.387 103.002 583.903 103.23C584.431 103.458 584.881 103.776 585.253 104.184C585.637 104.58 585.925 105.054 586.117 105.606C586.309 106.158 586.393 106.764 586.369 107.424L586.351 108.054H578.521L578.323 106.92H585.325L585.001 107.226V106.794C584.977 106.362 584.851 105.948 584.623 105.552C584.395 105.144 584.071 104.814 583.651 104.562C583.243 104.31 582.751 104.184 582.175 104.184C581.503 104.184 580.921 104.322 580.429 104.598C579.937 104.862 579.559 105.258 579.295 105.786C579.031 106.314 578.899 106.968 578.899 107.748C578.899 108.492 579.043 109.14 579.331 109.692C579.619 110.232 580.027 110.652 580.555 110.952C581.095 111.252 581.743 111.402 582.499 111.402C582.943 111.402 583.381 111.33 583.813 111.186C584.257 111.03 584.743 110.73 585.271 110.286L585.973 111.258C585.697 111.534 585.367 111.78 584.983 111.996C584.599 112.2 584.179 112.368 583.723 112.5C583.267 112.62 582.799 112.68 582.319 112.68ZM592.102 112.68C591.25 112.68 590.482 112.47 589.798 112.05C589.126 111.63 588.592 111.054 588.196 110.322C587.812 109.578 587.62 108.738 587.62 107.802C587.62 106.854 587.818 106.014 588.214 105.282C588.61 104.538 589.144 103.956 589.816 103.536C590.488 103.116 591.244 102.906 592.084 102.906C592.552 102.906 593.002 102.978 593.434 103.122C593.878 103.266 594.274 103.47 594.622 103.734C594.97 103.986 595.258 104.28 595.486 104.616C595.714 104.94 595.852 105.282 595.9 105.642L595.486 105.498V99.18H596.836V112.5H595.504L595.468 110.16L595.81 110.034C595.762 110.37 595.624 110.7 595.396 111.024C595.18 111.336 594.904 111.618 594.568 111.87C594.232 112.122 593.848 112.32 593.416 112.464C592.996 112.608 592.558 112.68 592.102 112.68ZM592.3 111.438C592.924 111.438 593.482 111.282 593.974 110.97C594.466 110.658 594.85 110.226 595.126 109.674C595.414 109.122 595.558 108.492 595.558 107.784C595.558 107.076 595.414 106.452 595.126 105.912C594.85 105.36 594.466 104.928 593.974 104.616C593.482 104.292 592.924 104.13 592.3 104.13C591.652 104.13 591.082 104.292 590.59 104.616C590.11 104.928 589.726 105.36 589.438 105.912C589.162 106.452 589.024 107.076 589.024 107.784C589.024 108.48 589.162 109.104 589.438 109.656C589.714 110.208 590.098 110.646 590.59 110.97C591.082 111.282 591.652 111.438 592.3 111.438ZM603.077 112.68C602.357 112.68 601.745 112.536 601.241 112.248C600.749 111.948 600.371 111.516 600.107 110.952C599.855 110.388 599.729 109.686 599.729 108.846V103.104H601.097V108.576C601.097 109.212 601.181 109.746 601.349 110.178C601.529 110.598 601.793 110.916 602.141 111.132C602.501 111.348 602.939 111.456 603.455 111.456C603.851 111.456 604.217 111.39 604.553 111.258C604.889 111.114 605.183 110.922 605.435 110.682C605.687 110.442 605.885 110.16 606.029 109.836C606.173 109.512 606.245 109.17 606.245 108.81V103.104H607.595V112.5H606.263L606.209 110.52L606.425 110.412C606.281 110.832 606.041 111.216 605.705 111.564C605.369 111.9 604.967 112.17 604.499 112.374C604.043 112.578 603.569 112.68 603.077 112.68ZM614.184 112.68C613.296 112.68 612.504 112.47 611.808 112.05C611.112 111.618 610.56 111.036 610.152 110.304C609.756 109.56 609.558 108.72 609.558 107.784C609.558 106.848 609.756 106.014 610.152 105.282C610.56 104.538 611.112 103.956 611.808 103.536C612.504 103.116 613.302 102.906 614.202 102.906C615.006 102.906 615.738 103.068 616.398 103.392C617.058 103.704 617.586 104.142 617.982 104.706L617.19 105.678C616.962 105.378 616.686 105.114 616.362 104.886C616.05 104.658 615.708 104.484 615.336 104.364C614.976 104.232 614.616 104.166 614.256 104.166C613.62 104.166 613.05 104.328 612.546 104.652C612.042 104.964 611.64 105.39 611.34 105.93C611.052 106.47 610.908 107.088 610.908 107.784C610.908 108.48 611.052 109.104 611.34 109.656C611.64 110.196 612.042 110.622 612.546 110.934C613.05 111.246 613.614 111.402 614.238 111.402C614.598 111.402 614.952 111.348 615.3 111.24C615.648 111.12 615.978 110.952 616.29 110.736C616.602 110.52 616.89 110.25 617.154 109.926L617.946 110.898C617.538 111.438 616.992 111.87 616.308 112.194C615.624 112.518 614.916 112.68 614.184 112.68ZM620.058 112.5V103.104H621.408V112.5H620.058ZM620.724 101.07C620.388 101.07 620.13 100.986 619.95 100.818C619.782 100.638 619.698 100.398 619.698 100.098C619.698 99.798 619.788 99.558 619.968 99.378C620.148 99.198 620.4 99.108 620.724 99.108C621.048 99.108 621.3 99.198 621.48 99.378C621.66 99.546 621.75 99.786 621.75 100.098C621.75 100.386 621.66 100.62 621.48 100.8C621.3 100.98 621.048 101.07 620.724 101.07ZM624.356 112.5V103.104H625.688L625.742 105.066L625.526 105.156C625.646 104.748 625.88 104.376 626.228 104.04C626.576 103.704 626.99 103.434 627.47 103.23C627.962 103.014 628.466 102.906 628.982 102.906C629.678 102.906 630.26 103.044 630.728 103.32C631.196 103.596 631.55 104.022 631.79 104.598C632.03 105.174 632.15 105.906 632.15 106.794V112.5H630.782V106.866C630.782 106.242 630.698 105.732 630.53 105.336C630.374 104.928 630.128 104.628 629.792 104.436C629.456 104.244 629.042 104.154 628.55 104.166C628.142 104.166 627.764 104.238 627.416 104.382C627.068 104.514 626.768 104.7 626.516 104.94C626.264 105.18 626.066 105.456 625.922 105.768C625.778 106.08 625.706 106.416 625.706 106.776V112.5H625.04C624.956 112.5 624.86 112.5 624.752 112.5C624.644 112.5 624.512 112.5 624.356 112.5ZM638.778 116.64C638.082 116.64 637.422 116.532 636.798 116.316C636.174 116.1 635.658 115.83 635.25 115.506L635.79 114.372C636.03 114.564 636.306 114.732 636.618 114.876C636.942 115.032 637.29 115.152 637.662 115.236C638.034 115.332 638.412 115.38 638.796 115.38C639.492 115.38 640.08 115.248 640.56 114.984C641.052 114.732 641.424 114.354 641.676 113.85C641.94 113.346 642.072 112.722 642.072 111.978V110.178L642.288 110.124C642.18 110.58 641.946 111.006 641.586 111.402C641.226 111.786 640.788 112.098 640.272 112.338C639.756 112.566 639.21 112.68 638.634 112.68C637.758 112.68 636.972 112.47 636.276 112.05C635.592 111.63 635.052 111.054 634.656 110.322C634.26 109.578 634.062 108.738 634.062 107.802C634.062 106.854 634.26 106.014 634.656 105.282C635.064 104.538 635.61 103.956 636.294 103.536C636.978 103.116 637.746 102.906 638.598 102.906C638.97 102.906 639.33 102.954 639.678 103.05C640.026 103.134 640.344 103.26 640.632 103.428C640.932 103.596 641.202 103.788 641.442 104.004C641.682 104.22 641.88 104.454 642.036 104.706C642.204 104.958 642.324 105.216 642.396 105.48L642.018 105.426L642.072 103.104H643.422V111.924C643.422 112.68 643.314 113.346 643.098 113.922C642.882 114.51 642.564 115.002 642.144 115.398C641.736 115.806 641.244 116.112 640.668 116.316C640.104 116.532 639.474 116.64 638.778 116.64ZM638.796 111.384C639.432 111.384 639.996 111.234 640.488 110.934C640.992 110.622 641.388 110.196 641.676 109.656C641.964 109.116 642.108 108.492 642.108 107.784C642.108 107.088 641.964 106.47 641.676 105.93C641.4 105.39 641.01 104.964 640.506 104.652C640.002 104.34 639.432 104.184 638.796 104.184C638.148 104.184 637.572 104.34 637.068 104.652C636.576 104.964 636.186 105.39 635.898 105.93C635.61 106.47 635.466 107.088 635.466 107.784C635.466 108.468 635.604 109.086 635.88 109.638C636.168 110.178 636.558 110.604 637.05 110.916C637.554 111.228 638.136 111.384 638.796 111.384ZM652.173 112.5V101.646C652.173 101.178 652.275 100.764 652.479 100.404C652.683 100.044 652.971 99.762 653.343 99.558C653.727 99.342 654.171 99.234 654.675 99.234C655.059 99.234 655.401 99.306 655.701 99.45C656.013 99.582 656.271 99.768 656.475 100.008L656.007 101.07C655.815 100.866 655.605 100.722 655.377 100.638C655.161 100.542 654.951 100.494 654.747 100.494C654.483 100.494 654.261 100.542 654.081 100.638C653.901 100.722 653.763 100.854 653.667 101.034C653.583 101.202 653.541 101.406 653.541 101.646V112.5H652.911C652.779 112.5 652.653 112.5 652.533 112.5C652.413 112.5 652.293 112.5 652.173 112.5ZM650.499 104.436V103.176H655.935V104.436H650.499ZM658.257 112.5V103.104H659.607V112.5H658.257ZM658.923 101.07C658.587 101.07 658.329 100.986 658.149 100.818C657.981 100.638 657.897 100.398 657.897 100.098C657.897 99.798 657.987 99.558 658.167 99.378C658.347 99.198 658.599 99.108 658.923 99.108C659.247 99.108 659.499 99.198 659.679 99.378C659.859 99.546 659.949 99.786 659.949 100.098C659.949 100.386 659.859 100.62 659.679 100.8C659.499 100.98 659.247 101.07 658.923 101.07ZM662.554 112.5V103.104H663.886L663.94 105.066L663.724 105.156C663.844 104.748 664.078 104.376 664.426 104.04C664.774 103.704 665.188 103.434 665.668 103.23C666.16 103.014 666.664 102.906 667.18 102.906C667.876 102.906 668.458 103.044 668.926 103.32C669.394 103.596 669.748 104.022 669.988 104.598C670.228 105.174 670.348 105.906 670.348 106.794V112.5H668.98V106.866C668.98 106.242 668.896 105.732 668.728 105.336C668.572 104.928 668.326 104.628 667.99 104.436C667.654 104.244 667.24 104.154 666.748 104.166C666.34 104.166 665.962 104.238 665.614 104.382C665.266 104.514 664.966 104.7 664.714 104.94C664.462 105.18 664.264 105.456 664.12 105.768C663.976 106.08 663.904 106.416 663.904 106.776V112.5H663.238C663.154 112.5 663.058 112.5 662.95 112.5C662.842 112.5 662.71 112.5 662.554 112.5ZM676.597 112.68C675.781 112.68 675.043 112.47 674.383 112.05C673.723 111.618 673.201 111.036 672.817 110.304C672.433 109.56 672.241 108.72 672.241 107.784C672.241 106.836 672.439 105.996 672.835 105.264C673.231 104.532 673.759 103.956 674.419 103.536C675.091 103.116 675.841 102.906 676.669 102.906C677.161 102.906 677.617 102.978 678.037 103.122C678.457 103.266 678.829 103.47 679.153 103.734C679.489 103.986 679.765 104.286 679.981 104.634C680.209 104.97 680.365 105.336 680.449 105.732L680.053 105.534L680.107 103.104H681.457V112.5H680.089V110.196L680.449 109.962C680.365 110.322 680.203 110.67 679.963 111.006C679.723 111.33 679.429 111.618 679.081 111.87C678.745 112.122 678.361 112.32 677.929 112.464C677.509 112.608 677.065 112.68 676.597 112.68ZM676.903 111.384C677.527 111.384 678.085 111.234 678.577 110.934C679.069 110.622 679.453 110.196 679.729 109.656C680.017 109.104 680.161 108.48 680.161 107.784C680.161 107.088 680.017 106.47 679.729 105.93C679.453 105.39 679.069 104.964 678.577 104.652C678.085 104.34 677.527 104.184 676.903 104.184C676.267 104.184 675.703 104.34 675.211 104.652C674.731 104.964 674.347 105.39 674.059 105.93C673.783 106.47 673.645 107.088 673.645 107.784C673.645 108.468 673.783 109.086 674.059 109.638C674.335 110.178 674.719 110.604 675.211 110.916C675.703 111.228 676.267 111.384 676.903 111.384ZM684.087 112.5V103.104H685.419L685.473 105.066L685.257 105.156C685.377 104.748 685.611 104.376 685.959 104.04C686.307 103.704 686.721 103.434 687.201 103.23C687.693 103.014 688.197 102.906 688.713 102.906C689.409 102.906 689.991 103.044 690.459 103.32C690.927 103.596 691.281 104.022 691.521 104.598C691.761 105.174 691.881 105.906 691.881 106.794V112.5H690.513V106.866C690.513 106.242 690.429 105.732 690.261 105.336C690.105 104.928 689.859 104.628 689.523 104.436C689.187 104.244 688.773 104.154 688.281 104.166C687.873 104.166 687.495 104.238 687.147 104.382C686.799 104.514 686.499 104.7 686.247 104.94C685.995 105.18 685.797 105.456 685.653 105.768C685.509 106.08 685.437 106.416 685.437 106.776V112.5H684.771C684.687 112.5 684.591 112.5 684.483 112.5C684.375 112.5 684.243 112.5 684.087 112.5ZM698.418 112.68C697.53 112.68 696.738 112.47 696.042 112.05C695.346 111.618 694.794 111.036 694.386 110.304C693.99 109.56 693.792 108.72 693.792 107.784C693.792 106.848 693.99 106.014 694.386 105.282C694.794 104.538 695.346 103.956 696.042 103.536C696.738 103.116 697.536 102.906 698.436 102.906C699.24 102.906 699.972 103.068 700.632 103.392C701.292 103.704 701.82 104.142 702.216 104.706L701.424 105.678C701.196 105.378 700.92 105.114 700.596 104.886C700.284 104.658 699.942 104.484 699.57 104.364C699.21 104.232 698.85 104.166 698.49 104.166C697.854 104.166 697.284 104.328 696.78 104.652C696.276 104.964 695.874 105.39 695.574 105.93C695.286 106.47 695.142 107.088 695.142 107.784C695.142 108.48 695.286 109.104 695.574 109.656C695.874 110.196 696.276 110.622 696.78 110.934C697.284 111.246 697.848 111.402 698.472 111.402C698.832 111.402 699.186 111.348 699.534 111.24C699.882 111.12 700.212 110.952 700.524 110.736C700.836 110.52 701.124 110.25 701.388 109.926L702.18 110.898C701.772 111.438 701.226 111.87 700.542 112.194C699.858 112.518 699.15 112.68 698.418 112.68ZM704.293 112.5V103.104H705.643V112.5H704.293ZM704.959 101.07C704.623 101.07 704.365 100.986 704.185 100.818C704.017 100.638 703.933 100.398 703.933 100.098C703.933 99.798 704.023 99.558 704.203 99.378C704.383 99.198 704.635 99.108 704.959 99.108C705.283 99.108 705.535 99.198 705.715 99.378C705.895 99.546 705.985 99.786 705.985 100.098C705.985 100.386 705.895 100.62 705.715 100.8C705.535 100.98 705.283 101.07 704.959 101.07ZM712.263 112.68C711.447 112.68 710.709 112.47 710.049 112.05C709.389 111.618 708.867 111.036 708.483 110.304C708.099 109.56 707.907 108.72 707.907 107.784C707.907 106.836 708.105 105.996 708.501 105.264C708.897 104.532 709.425 103.956 710.085 103.536C710.757 103.116 711.507 102.906 712.335 102.906C712.827 102.906 713.283 102.978 713.703 103.122C714.123 103.266 714.495 103.47 714.819 103.734C715.155 103.986 715.431 104.286 715.647 104.634C715.875 104.97 716.031 105.336 716.115 105.732L715.719 105.534L715.773 103.104H717.123V112.5H715.755V110.196L716.115 109.962C716.031 110.322 715.869 110.67 715.629 111.006C715.389 111.33 715.095 111.618 714.747 111.87C714.411 112.122 714.027 112.32 713.595 112.464C713.175 112.608 712.731 112.68 712.263 112.68ZM712.569 111.384C713.193 111.384 713.751 111.234 714.243 110.934C714.735 110.622 715.119 110.196 715.395 109.656C715.683 109.104 715.827 108.48 715.827 107.784C715.827 107.088 715.683 106.47 715.395 105.93C715.119 105.39 714.735 104.964 714.243 104.652C713.751 104.34 713.193 104.184 712.569 104.184C711.933 104.184 711.369 104.34 710.877 104.652C710.397 104.964 710.013 105.39 709.725 105.93C709.449 106.47 709.311 107.088 709.311 107.784C709.311 108.468 709.449 109.086 709.725 109.638C710.001 110.178 710.385 110.604 710.877 110.916C711.369 111.228 711.933 111.384 712.569 111.384ZM719.789 112.5V99.18H721.139V112.5H719.789ZM571.417 139.68C570.973 139.68 570.541 139.614 570.121 139.482C569.701 139.338 569.317 139.146 568.969 138.906C568.633 138.666 568.345 138.39 568.105 138.078C567.877 137.766 567.721 137.442 567.637 137.106L568.033 137.124L567.979 139.482H566.647V126.18H567.997V132.354L567.727 132.426C567.811 132.09 567.961 131.772 568.177 131.472C568.405 131.16 568.687 130.89 569.023 130.662C569.359 130.422 569.725 130.236 570.121 130.104C570.529 129.972 570.949 129.906 571.381 129.906C572.221 129.906 572.971 130.116 573.631 130.536C574.303 130.956 574.837 131.532 575.233 132.264C575.629 132.996 575.827 133.836 575.827 134.784C575.827 135.732 575.635 136.578 575.251 137.322C574.867 138.054 574.339 138.63 573.667 139.05C573.007 139.47 572.257 139.68 571.417 139.68ZM571.201 138.402C571.837 138.402 572.401 138.246 572.893 137.934C573.385 137.61 573.769 137.178 574.045 136.638C574.333 136.086 574.477 135.468 574.477 134.784C574.477 134.088 574.333 133.47 574.045 132.93C573.769 132.39 573.385 131.964 572.893 131.652C572.401 131.34 571.837 131.184 571.201 131.184C570.565 131.184 570.001 131.34 569.509 131.652C569.017 131.964 568.627 132.39 568.339 132.93C568.063 133.47 567.925 134.088 567.925 134.784C567.925 135.48 568.063 136.104 568.339 136.656C568.627 137.196 569.017 137.622 569.509 137.934C570.001 138.246 570.565 138.402 571.201 138.402ZM581.122 139.68C580.402 139.68 579.79 139.536 579.286 139.248C578.794 138.948 578.416 138.516 578.152 137.952C577.9 137.388 577.774 136.686 577.774 135.846V130.104H579.142V135.576C579.142 136.212 579.226 136.746 579.394 137.178C579.574 137.598 579.838 137.916 580.186 138.132C580.546 138.348 580.984 138.456 581.5 138.456C581.896 138.456 582.262 138.39 582.598 138.258C582.934 138.114 583.228 137.922 583.48 137.682C583.732 137.442 583.93 137.16 584.074 136.836C584.218 136.512 584.29 136.17 584.29 135.81V130.104H585.64V139.5H584.308L584.254 137.52L584.47 137.412C584.326 137.832 584.086 138.216 583.75 138.564C583.414 138.9 583.012 139.17 582.544 139.374C582.088 139.578 581.614 139.68 581.122 139.68ZM588.269 139.5V130.104H589.619L589.655 132.606L589.511 132.264C589.643 131.844 589.853 131.454 590.141 131.094C590.441 130.734 590.795 130.446 591.203 130.23C591.611 130.014 592.061 129.906 592.553 129.906C592.757 129.906 592.949 129.924 593.129 129.96C593.309 129.984 593.459 130.02 593.579 130.068L593.201 131.58C593.045 131.508 592.883 131.46 592.715 131.436C592.559 131.4 592.409 131.382 592.265 131.382C591.857 131.382 591.491 131.454 591.167 131.598C590.843 131.742 590.567 131.946 590.339 132.21C590.111 132.462 589.937 132.756 589.817 133.092C589.697 133.428 589.637 133.788 589.637 134.172V139.5H588.269ZM598.395 139.68C597.543 139.68 596.775 139.47 596.091 139.05C595.419 138.63 594.885 138.054 594.489 137.322C594.105 136.578 593.913 135.738 593.913 134.802C593.913 133.854 594.111 133.014 594.507 132.282C594.903 131.538 595.437 130.956 596.109 130.536C596.781 130.116 597.537 129.906 598.377 129.906C598.845 129.906 599.295 129.978 599.727 130.122C600.171 130.266 600.567 130.47 600.915 130.734C601.263 130.986 601.551 131.28 601.779 131.616C602.007 131.94 602.145 132.282 602.193 132.642L601.779 132.498V126.18H603.129V139.5H601.797L601.761 137.16L602.103 137.034C602.055 137.37 601.917 137.7 601.689 138.024C601.473 138.336 601.197 138.618 600.861 138.87C600.525 139.122 600.141 139.32 599.709 139.464C599.289 139.608 598.851 139.68 598.395 139.68ZM598.593 138.438C599.217 138.438 599.775 138.282 600.267 137.97C600.759 137.658 601.143 137.226 601.419 136.674C601.707 136.122 601.851 135.492 601.851 134.784C601.851 134.076 601.707 133.452 601.419 132.912C601.143 132.36 600.759 131.928 600.267 131.616C599.775 131.292 599.217 131.13 598.593 131.13C597.945 131.13 597.375 131.292 596.883 131.616C596.403 131.928 596.019 132.36 595.731 132.912C595.455 133.452 595.317 134.076 595.317 134.784C595.317 135.48 595.455 136.104 595.731 136.656C596.007 137.208 596.391 137.646 596.883 137.97C597.375 138.282 597.945 138.438 598.593 138.438ZM609.899 139.68C608.963 139.68 608.129 139.476 607.397 139.068C606.677 138.66 606.113 138.09 605.705 137.358C605.297 136.626 605.093 135.786 605.093 134.838C605.093 134.106 605.207 133.446 605.435 132.858C605.663 132.258 605.981 131.736 606.389 131.292C606.809 130.848 607.307 130.506 607.883 130.266C608.459 130.014 609.083 129.888 609.755 129.888C610.391 129.888 610.967 130.002 611.483 130.23C612.011 130.458 612.461 130.776 612.833 131.184C613.217 131.58 613.505 132.054 613.697 132.606C613.889 133.158 613.973 133.764 613.949 134.424L613.931 135.054H606.101L605.903 133.92H612.905L612.581 134.226V133.794C612.557 133.362 612.431 132.948 612.203 132.552C611.975 132.144 611.651 131.814 611.231 131.562C610.823 131.31 610.331 131.184 609.755 131.184C609.083 131.184 608.501 131.322 608.009 131.598C607.517 131.862 607.139 132.258 606.875 132.786C606.611 133.314 606.479 133.968 606.479 134.748C606.479 135.492 606.623 136.14 606.911 136.692C607.199 137.232 607.607 137.652 608.135 137.952C608.675 138.252 609.323 138.402 610.079 138.402C610.523 138.402 610.961 138.33 611.393 138.186C611.837 138.03 612.323 137.73 612.851 137.286L613.553 138.258C613.277 138.534 612.947 138.78 612.563 138.996C612.179 139.2 611.759 139.368 611.303 139.5C610.847 139.62 610.379 139.68 609.899 139.68ZM615.866 139.5V130.104H617.198L617.252 132.066L617.036 132.156C617.156 131.748 617.39 131.376 617.738 131.04C618.086 130.704 618.5 130.434 618.98 130.23C619.472 130.014 619.976 129.906 620.492 129.906C621.188 129.906 621.77 130.044 622.238 130.32C622.706 130.596 623.06 131.022 623.3 131.598C623.54 132.174 623.66 132.906 623.66 133.794V139.5H622.292V133.866C622.292 133.242 622.208 132.732 622.04 132.336C621.884 131.928 621.638 131.628 621.302 131.436C620.966 131.244 620.552 131.154 620.06 131.166C619.652 131.166 619.274 131.238 618.926 131.382C618.578 131.514 618.278 131.7 618.026 131.94C617.774 132.18 617.576 132.456 617.432 132.768C617.288 133.08 617.216 133.416 617.216 133.776V139.5H616.55C616.466 139.5 616.37 139.5 616.262 139.5C616.154 139.5 616.022 139.5 615.866 139.5ZM629.315 139.68C628.511 139.68 627.791 139.53 627.155 139.23C626.519 138.93 626.015 138.534 625.643 138.042L626.597 137.214C626.945 137.634 627.353 137.952 627.821 138.168C628.301 138.384 628.835 138.492 629.423 138.492C629.723 138.492 629.993 138.462 630.233 138.402C630.473 138.33 630.683 138.228 630.863 138.096C631.043 137.964 631.181 137.808 631.277 137.628C631.373 137.448 631.421 137.25 631.421 137.034C631.421 136.638 631.247 136.308 630.899 136.044C630.743 135.936 630.521 135.828 630.233 135.72C629.945 135.6 629.597 135.486 629.189 135.378C628.517 135.186 627.959 134.994 627.515 134.802C627.071 134.598 626.723 134.364 626.471 134.1C626.291 133.884 626.153 133.65 626.057 133.398C625.973 133.146 625.931 132.87 625.931 132.57C625.931 132.186 626.009 131.832 626.165 131.508C626.333 131.184 626.561 130.902 626.849 130.662C627.149 130.41 627.497 130.224 627.893 130.104C628.301 129.972 628.739 129.906 629.207 129.906C629.651 129.906 630.089 129.966 630.521 130.086C630.953 130.206 631.355 130.38 631.727 130.608C632.099 130.836 632.417 131.106 632.681 131.418L631.853 132.318C631.625 132.078 631.373 131.862 631.097 131.67C630.821 131.478 630.527 131.328 630.215 131.22C629.915 131.112 629.603 131.058 629.279 131.058C628.991 131.058 628.721 131.094 628.469 131.166C628.229 131.238 628.019 131.34 627.839 131.472C627.671 131.592 627.539 131.742 627.443 131.922C627.359 132.102 627.317 132.3 627.317 132.516C627.317 132.696 627.353 132.858 627.425 133.002C627.497 133.146 627.599 133.272 627.731 133.38C627.899 133.512 628.133 133.638 628.433 133.758C628.745 133.866 629.129 133.98 629.585 134.1C630.113 134.244 630.557 134.394 630.917 134.55C631.289 134.694 631.595 134.868 631.835 135.072C632.159 135.312 632.387 135.588 632.519 135.9C632.663 136.212 632.735 136.566 632.735 136.962C632.735 137.49 632.585 137.958 632.285 138.366C631.997 138.774 631.595 139.098 631.079 139.338C630.563 139.566 629.975 139.68 629.315 139.68Z" fill="#B3B3B3"/>
</svg>
